M48
; DRILL file {KiCad 9.0.4} date 2026-02-11T20:10:49+0900
; FORMAT={-:-/ absolute / metric / decimal}
; #@! TF.CreationDate,2026-02-11T20:10:49+09:00
; #@! TF.GenerationSoftware,Kicad,Pcbnew,9.0.4
; #@! TF.FileFunction,MixedPlating,1,2
FMAT,2
METRIC
; #@! TA.AperFunction,Plated,PTH,ComponentDrill
T1C0.800
; #@! TA.AperFunction,Plated,PTH,ComponentDrill
T2C0.889
; #@! TA.AperFunction,Plated,PTH,ComponentDrill
T3C1.000
; #@! TA.AperFunction,NonPlated,NPTH,ComponentDrill
T4C3.000
%
G90
G05
T1
X102.92Y-83.0
X105.46Y-83.0
X108.0Y-83.0
X112.483Y-61.11
X112.483Y-63.65
X112.483Y-66.19
X112.483Y-68.73
X112.483Y-71.27
X112.483Y-73.81
X112.483Y-76.35
X112.483Y-78.89
X116.92Y-82.5
X127.08Y-82.5
X130.34Y-82.5
X130.517Y-61.11
X130.517Y-63.65
X130.517Y-66.19
X130.517Y-68.73
X130.517Y-71.27
X130.517Y-73.81
X130.517Y-76.35
X130.517Y-78.89
X140.5Y-82.5
X144.34Y-82.5
X154.5Y-82.5
T2
X137.26Y-61.0
X137.26Y-76.24
X139.8Y-61.0
X139.8Y-76.24
X142.34Y-61.0
X142.34Y-76.24
X144.88Y-61.0
X144.88Y-76.24
X147.42Y-61.0
X147.42Y-76.24
X149.96Y-61.0
X149.96Y-76.24
X152.5Y-61.0
X152.5Y-76.24
T3
X103.0Y-62.5
X103.0Y-65.0
X103.0Y-75.0
X103.0Y-77.5
X162.5Y-77.0
X162.5Y-79.5
T4
X166.5Y-60.0
M30
