%TF.GenerationSoftware,KiCad,Pcbnew,9.0.4*%
%TF.CreationDate,2026-02-11T20:10:41+09:00*%
%TF.ProjectId,kizuna_band,6b697a75-6e61-45f6-9261-6e642e6b6963,rev?*%
%TF.SameCoordinates,Original*%
%TF.FileFunction,Legend,Top*%
%TF.FilePolarity,Positive*%
%FSLAX46Y46*%
G04 Gerber Fmt 4.6, Leading zero omitted, Abs format (unit mm)*
G04 Created by KiCad (PCBNEW 9.0.4) date 2026-02-11 20:10:41*
%MOMM*%
%LPD*%
G01*
G04 APERTURE LIST*
%ADD10C,0.150000*%
%ADD11C,0.101600*%
%ADD12C,0.100000*%
%ADD13C,0.127000*%
%ADD14C,0.200000*%
%ADD15C,0.120000*%
G04 APERTURE END LIST*
D10*
X148824761Y-82954819D02*
X148253333Y-82954819D01*
X148539047Y-82954819D02*
X148539047Y-81954819D01*
X148539047Y-81954819D02*
X148443809Y-82097676D01*
X148443809Y-82097676D02*
X148348571Y-82192914D01*
X148348571Y-82192914D02*
X148253333Y-82240533D01*
X149443809Y-81954819D02*
X149539047Y-81954819D01*
X149539047Y-81954819D02*
X149634285Y-82002438D01*
X149634285Y-82002438D02*
X149681904Y-82050057D01*
X149681904Y-82050057D02*
X149729523Y-82145295D01*
X149729523Y-82145295D02*
X149777142Y-82335771D01*
X149777142Y-82335771D02*
X149777142Y-82573866D01*
X149777142Y-82573866D02*
X149729523Y-82764342D01*
X149729523Y-82764342D02*
X149681904Y-82859580D01*
X149681904Y-82859580D02*
X149634285Y-82907200D01*
X149634285Y-82907200D02*
X149539047Y-82954819D01*
X149539047Y-82954819D02*
X149443809Y-82954819D01*
X149443809Y-82954819D02*
X149348571Y-82907200D01*
X149348571Y-82907200D02*
X149300952Y-82859580D01*
X149300952Y-82859580D02*
X149253333Y-82764342D01*
X149253333Y-82764342D02*
X149205714Y-82573866D01*
X149205714Y-82573866D02*
X149205714Y-82335771D01*
X149205714Y-82335771D02*
X149253333Y-82145295D01*
X149253333Y-82145295D02*
X149300952Y-82050057D01*
X149300952Y-82050057D02*
X149348571Y-82002438D01*
X149348571Y-82002438D02*
X149443809Y-81954819D01*
X150205714Y-82954819D02*
X150205714Y-81954819D01*
X150300952Y-82573866D02*
X150586666Y-82954819D01*
X150586666Y-82288152D02*
X150205714Y-82669104D01*
D11*
X167213955Y-82169643D02*
X167183717Y-82139405D01*
X167183717Y-82139405D02*
X167153479Y-82078929D01*
X167153479Y-82078929D02*
X167153479Y-81927738D01*
X167153479Y-81927738D02*
X167183717Y-81867262D01*
X167183717Y-81867262D02*
X167213955Y-81837024D01*
X167213955Y-81837024D02*
X167274431Y-81806786D01*
X167274431Y-81806786D02*
X167334907Y-81806786D01*
X167334907Y-81806786D02*
X167425621Y-81837024D01*
X167425621Y-81837024D02*
X167788479Y-82199881D01*
X167788479Y-82199881D02*
X167788479Y-81806786D01*
X167153479Y-81413691D02*
X167153479Y-81353214D01*
X167153479Y-81353214D02*
X167183717Y-81292738D01*
X167183717Y-81292738D02*
X167213955Y-81262500D01*
X167213955Y-81262500D02*
X167274431Y-81232262D01*
X167274431Y-81232262D02*
X167395383Y-81202024D01*
X167395383Y-81202024D02*
X167546574Y-81202024D01*
X167546574Y-81202024D02*
X167667526Y-81232262D01*
X167667526Y-81232262D02*
X167728002Y-81262500D01*
X167728002Y-81262500D02*
X167758241Y-81292738D01*
X167758241Y-81292738D02*
X167788479Y-81353214D01*
X167788479Y-81353214D02*
X167788479Y-81413691D01*
X167788479Y-81413691D02*
X167758241Y-81474167D01*
X167758241Y-81474167D02*
X167728002Y-81504405D01*
X167728002Y-81504405D02*
X167667526Y-81534643D01*
X167667526Y-81534643D02*
X167546574Y-81564881D01*
X167546574Y-81564881D02*
X167395383Y-81564881D01*
X167395383Y-81564881D02*
X167274431Y-81534643D01*
X167274431Y-81534643D02*
X167213955Y-81504405D01*
X167213955Y-81504405D02*
X167183717Y-81474167D01*
X167183717Y-81474167D02*
X167153479Y-81413691D01*
X167213955Y-80960119D02*
X167183717Y-80929881D01*
X167183717Y-80929881D02*
X167153479Y-80869405D01*
X167153479Y-80869405D02*
X167153479Y-80718214D01*
X167153479Y-80718214D02*
X167183717Y-80657738D01*
X167183717Y-80657738D02*
X167213955Y-80627500D01*
X167213955Y-80627500D02*
X167274431Y-80597262D01*
X167274431Y-80597262D02*
X167334907Y-80597262D01*
X167334907Y-80597262D02*
X167425621Y-80627500D01*
X167425621Y-80627500D02*
X167788479Y-80990357D01*
X167788479Y-80990357D02*
X167788479Y-80597262D01*
X167153479Y-80052976D02*
X167153479Y-80173929D01*
X167153479Y-80173929D02*
X167183717Y-80234405D01*
X167183717Y-80234405D02*
X167213955Y-80264643D01*
X167213955Y-80264643D02*
X167304669Y-80325119D01*
X167304669Y-80325119D02*
X167425621Y-80355357D01*
X167425621Y-80355357D02*
X167667526Y-80355357D01*
X167667526Y-80355357D02*
X167728002Y-80325119D01*
X167728002Y-80325119D02*
X167758241Y-80294881D01*
X167758241Y-80294881D02*
X167788479Y-80234405D01*
X167788479Y-80234405D02*
X167788479Y-80113452D01*
X167788479Y-80113452D02*
X167758241Y-80052976D01*
X167758241Y-80052976D02*
X167728002Y-80022738D01*
X167728002Y-80022738D02*
X167667526Y-79992500D01*
X167667526Y-79992500D02*
X167516336Y-79992500D01*
X167516336Y-79992500D02*
X167455860Y-80022738D01*
X167455860Y-80022738D02*
X167425621Y-80052976D01*
X167425621Y-80052976D02*
X167395383Y-80113452D01*
X167395383Y-80113452D02*
X167395383Y-80234405D01*
X167395383Y-80234405D02*
X167425621Y-80294881D01*
X167425621Y-80294881D02*
X167455860Y-80325119D01*
X167455860Y-80325119D02*
X167516336Y-80355357D01*
X167123241Y-79266786D02*
X167939669Y-79811071D01*
X167153479Y-78934167D02*
X167153479Y-78873690D01*
X167153479Y-78873690D02*
X167183717Y-78813214D01*
X167183717Y-78813214D02*
X167213955Y-78782976D01*
X167213955Y-78782976D02*
X167274431Y-78752738D01*
X167274431Y-78752738D02*
X167395383Y-78722500D01*
X167395383Y-78722500D02*
X167546574Y-78722500D01*
X167546574Y-78722500D02*
X167667526Y-78752738D01*
X167667526Y-78752738D02*
X167728002Y-78782976D01*
X167728002Y-78782976D02*
X167758241Y-78813214D01*
X167758241Y-78813214D02*
X167788479Y-78873690D01*
X167788479Y-78873690D02*
X167788479Y-78934167D01*
X167788479Y-78934167D02*
X167758241Y-78994643D01*
X167758241Y-78994643D02*
X167728002Y-79024881D01*
X167728002Y-79024881D02*
X167667526Y-79055119D01*
X167667526Y-79055119D02*
X167546574Y-79085357D01*
X167546574Y-79085357D02*
X167395383Y-79085357D01*
X167395383Y-79085357D02*
X167274431Y-79055119D01*
X167274431Y-79055119D02*
X167213955Y-79024881D01*
X167213955Y-79024881D02*
X167183717Y-78994643D01*
X167183717Y-78994643D02*
X167153479Y-78934167D01*
X167213955Y-78480595D02*
X167183717Y-78450357D01*
X167183717Y-78450357D02*
X167153479Y-78389881D01*
X167153479Y-78389881D02*
X167153479Y-78238690D01*
X167153479Y-78238690D02*
X167183717Y-78178214D01*
X167183717Y-78178214D02*
X167213955Y-78147976D01*
X167213955Y-78147976D02*
X167274431Y-78117738D01*
X167274431Y-78117738D02*
X167334907Y-78117738D01*
X167334907Y-78117738D02*
X167425621Y-78147976D01*
X167425621Y-78147976D02*
X167788479Y-78510833D01*
X167788479Y-78510833D02*
X167788479Y-78117738D01*
X167123241Y-77392024D02*
X167939669Y-77936309D01*
X167788479Y-76847738D02*
X167788479Y-77210595D01*
X167788479Y-77029167D02*
X167153479Y-77029167D01*
X167153479Y-77029167D02*
X167244193Y-77089643D01*
X167244193Y-77089643D02*
X167304669Y-77150119D01*
X167304669Y-77150119D02*
X167334907Y-77210595D01*
X167788479Y-76242976D02*
X167788479Y-76605833D01*
X167788479Y-76424405D02*
X167153479Y-76424405D01*
X167153479Y-76424405D02*
X167244193Y-76484881D01*
X167244193Y-76484881D02*
X167304669Y-76545357D01*
X167304669Y-76545357D02*
X167334907Y-76605833D01*
X167153479Y-75547499D02*
X167153479Y-75154404D01*
X167153479Y-75154404D02*
X167395383Y-75366071D01*
X167395383Y-75366071D02*
X167395383Y-75275356D01*
X167395383Y-75275356D02*
X167425621Y-75214880D01*
X167425621Y-75214880D02*
X167455860Y-75184642D01*
X167455860Y-75184642D02*
X167516336Y-75154404D01*
X167516336Y-75154404D02*
X167667526Y-75154404D01*
X167667526Y-75154404D02*
X167728002Y-75184642D01*
X167728002Y-75184642D02*
X167758241Y-75214880D01*
X167758241Y-75214880D02*
X167788479Y-75275356D01*
X167788479Y-75275356D02*
X167788479Y-75456785D01*
X167788479Y-75456785D02*
X167758241Y-75517261D01*
X167758241Y-75517261D02*
X167728002Y-75547499D01*
X167153479Y-74972975D02*
X167153479Y-74610118D01*
X167788479Y-74791547D02*
X167153479Y-74791547D01*
X167788479Y-73914641D02*
X167153479Y-73914641D01*
X167153479Y-73914641D02*
X167153479Y-73672736D01*
X167153479Y-73672736D02*
X167183717Y-73612260D01*
X167183717Y-73612260D02*
X167213955Y-73582022D01*
X167213955Y-73582022D02*
X167274431Y-73551784D01*
X167274431Y-73551784D02*
X167365145Y-73551784D01*
X167365145Y-73551784D02*
X167425621Y-73582022D01*
X167425621Y-73582022D02*
X167455860Y-73612260D01*
X167455860Y-73612260D02*
X167486098Y-73672736D01*
X167486098Y-73672736D02*
X167486098Y-73914641D01*
X167788479Y-73279641D02*
X167365145Y-73279641D01*
X167486098Y-73279641D02*
X167425621Y-73249403D01*
X167425621Y-73249403D02*
X167395383Y-73219165D01*
X167395383Y-73219165D02*
X167365145Y-73158689D01*
X167365145Y-73158689D02*
X167365145Y-73098212D01*
X167788479Y-72795832D02*
X167758241Y-72856308D01*
X167758241Y-72856308D02*
X167728002Y-72886546D01*
X167728002Y-72886546D02*
X167667526Y-72916784D01*
X167667526Y-72916784D02*
X167486098Y-72916784D01*
X167486098Y-72916784D02*
X167425621Y-72886546D01*
X167425621Y-72886546D02*
X167395383Y-72856308D01*
X167395383Y-72856308D02*
X167365145Y-72795832D01*
X167365145Y-72795832D02*
X167365145Y-72705117D01*
X167365145Y-72705117D02*
X167395383Y-72644641D01*
X167395383Y-72644641D02*
X167425621Y-72614403D01*
X167425621Y-72614403D02*
X167486098Y-72584165D01*
X167486098Y-72584165D02*
X167667526Y-72584165D01*
X167667526Y-72584165D02*
X167728002Y-72614403D01*
X167728002Y-72614403D02*
X167758241Y-72644641D01*
X167758241Y-72644641D02*
X167788479Y-72705117D01*
X167788479Y-72705117D02*
X167788479Y-72795832D01*
X167365145Y-72312022D02*
X167909431Y-72312022D01*
X167909431Y-72312022D02*
X167969907Y-72342260D01*
X167969907Y-72342260D02*
X168000145Y-72402736D01*
X168000145Y-72402736D02*
X168000145Y-72432974D01*
X167153479Y-72312022D02*
X167183717Y-72342260D01*
X167183717Y-72342260D02*
X167213955Y-72312022D01*
X167213955Y-72312022D02*
X167183717Y-72281784D01*
X167183717Y-72281784D02*
X167153479Y-72312022D01*
X167153479Y-72312022D02*
X167213955Y-72312022D01*
X167758241Y-71767736D02*
X167788479Y-71828212D01*
X167788479Y-71828212D02*
X167788479Y-71949165D01*
X167788479Y-71949165D02*
X167758241Y-72009641D01*
X167758241Y-72009641D02*
X167697764Y-72039879D01*
X167697764Y-72039879D02*
X167455860Y-72039879D01*
X167455860Y-72039879D02*
X167395383Y-72009641D01*
X167395383Y-72009641D02*
X167365145Y-71949165D01*
X167365145Y-71949165D02*
X167365145Y-71828212D01*
X167365145Y-71828212D02*
X167395383Y-71767736D01*
X167395383Y-71767736D02*
X167455860Y-71737498D01*
X167455860Y-71737498D02*
X167516336Y-71737498D01*
X167516336Y-71737498D02*
X167576812Y-72039879D01*
X167758241Y-71193212D02*
X167788479Y-71253688D01*
X167788479Y-71253688D02*
X167788479Y-71374641D01*
X167788479Y-71374641D02*
X167758241Y-71435117D01*
X167758241Y-71435117D02*
X167728002Y-71465355D01*
X167728002Y-71465355D02*
X167667526Y-71495593D01*
X167667526Y-71495593D02*
X167486098Y-71495593D01*
X167486098Y-71495593D02*
X167425621Y-71465355D01*
X167425621Y-71465355D02*
X167395383Y-71435117D01*
X167395383Y-71435117D02*
X167365145Y-71374641D01*
X167365145Y-71374641D02*
X167365145Y-71253688D01*
X167365145Y-71253688D02*
X167395383Y-71193212D01*
X167365145Y-71011783D02*
X167365145Y-70769879D01*
X167153479Y-70921069D02*
X167697764Y-70921069D01*
X167697764Y-70921069D02*
X167758241Y-70890831D01*
X167758241Y-70890831D02*
X167788479Y-70830355D01*
X167788479Y-70830355D02*
X167788479Y-70769879D01*
X166288479Y-81763572D02*
X165653479Y-81763572D01*
X166288479Y-81400715D02*
X165925621Y-81672858D01*
X165653479Y-81400715D02*
X166016336Y-81763572D01*
X166288479Y-81128572D02*
X165865145Y-81128572D01*
X165653479Y-81128572D02*
X165683717Y-81158810D01*
X165683717Y-81158810D02*
X165713955Y-81128572D01*
X165713955Y-81128572D02*
X165683717Y-81098334D01*
X165683717Y-81098334D02*
X165653479Y-81128572D01*
X165653479Y-81128572D02*
X165713955Y-81128572D01*
X165865145Y-80886667D02*
X165865145Y-80554048D01*
X165865145Y-80554048D02*
X166288479Y-80886667D01*
X166288479Y-80886667D02*
X166288479Y-80554048D01*
X165865145Y-80040000D02*
X166288479Y-80040000D01*
X165865145Y-80312143D02*
X166197764Y-80312143D01*
X166197764Y-80312143D02*
X166258241Y-80281905D01*
X166258241Y-80281905D02*
X166288479Y-80221429D01*
X166288479Y-80221429D02*
X166288479Y-80130714D01*
X166288479Y-80130714D02*
X166258241Y-80070238D01*
X166258241Y-80070238D02*
X166228002Y-80040000D01*
X165865145Y-79737619D02*
X166288479Y-79737619D01*
X165925621Y-79737619D02*
X165895383Y-79707381D01*
X165895383Y-79707381D02*
X165865145Y-79646905D01*
X165865145Y-79646905D02*
X165865145Y-79556190D01*
X165865145Y-79556190D02*
X165895383Y-79495714D01*
X165895383Y-79495714D02*
X165955860Y-79465476D01*
X165955860Y-79465476D02*
X166288479Y-79465476D01*
X166288479Y-78890952D02*
X165955860Y-78890952D01*
X165955860Y-78890952D02*
X165895383Y-78921190D01*
X165895383Y-78921190D02*
X165865145Y-78981666D01*
X165865145Y-78981666D02*
X165865145Y-79102619D01*
X165865145Y-79102619D02*
X165895383Y-79163095D01*
X166258241Y-78890952D02*
X166288479Y-78951428D01*
X166288479Y-78951428D02*
X166288479Y-79102619D01*
X166288479Y-79102619D02*
X166258241Y-79163095D01*
X166258241Y-79163095D02*
X166197764Y-79193333D01*
X166197764Y-79193333D02*
X166137288Y-79193333D01*
X166137288Y-79193333D02*
X166076812Y-79163095D01*
X166076812Y-79163095D02*
X166046574Y-79102619D01*
X166046574Y-79102619D02*
X166046574Y-78951428D01*
X166046574Y-78951428D02*
X166016336Y-78890952D01*
X165955860Y-77893094D02*
X165986098Y-77802380D01*
X165986098Y-77802380D02*
X166016336Y-77772142D01*
X166016336Y-77772142D02*
X166076812Y-77741904D01*
X166076812Y-77741904D02*
X166167526Y-77741904D01*
X166167526Y-77741904D02*
X166228002Y-77772142D01*
X166228002Y-77772142D02*
X166258241Y-77802380D01*
X166258241Y-77802380D02*
X166288479Y-77862856D01*
X166288479Y-77862856D02*
X166288479Y-78104761D01*
X166288479Y-78104761D02*
X165653479Y-78104761D01*
X165653479Y-78104761D02*
X165653479Y-77893094D01*
X165653479Y-77893094D02*
X165683717Y-77832618D01*
X165683717Y-77832618D02*
X165713955Y-77802380D01*
X165713955Y-77802380D02*
X165774431Y-77772142D01*
X165774431Y-77772142D02*
X165834907Y-77772142D01*
X165834907Y-77772142D02*
X165895383Y-77802380D01*
X165895383Y-77802380D02*
X165925621Y-77832618D01*
X165925621Y-77832618D02*
X165955860Y-77893094D01*
X165955860Y-77893094D02*
X165955860Y-78104761D01*
X166288479Y-77197618D02*
X165955860Y-77197618D01*
X165955860Y-77197618D02*
X165895383Y-77227856D01*
X165895383Y-77227856D02*
X165865145Y-77288332D01*
X165865145Y-77288332D02*
X165865145Y-77409285D01*
X165865145Y-77409285D02*
X165895383Y-77469761D01*
X166258241Y-77197618D02*
X166288479Y-77258094D01*
X166288479Y-77258094D02*
X166288479Y-77409285D01*
X166288479Y-77409285D02*
X166258241Y-77469761D01*
X166258241Y-77469761D02*
X166197764Y-77499999D01*
X166197764Y-77499999D02*
X166137288Y-77499999D01*
X166137288Y-77499999D02*
X166076812Y-77469761D01*
X166076812Y-77469761D02*
X166046574Y-77409285D01*
X166046574Y-77409285D02*
X166046574Y-77258094D01*
X166046574Y-77258094D02*
X166016336Y-77197618D01*
X165865145Y-76895237D02*
X166288479Y-76895237D01*
X165925621Y-76895237D02*
X165895383Y-76864999D01*
X165895383Y-76864999D02*
X165865145Y-76804523D01*
X165865145Y-76804523D02*
X165865145Y-76713808D01*
X165865145Y-76713808D02*
X165895383Y-76653332D01*
X165895383Y-76653332D02*
X165955860Y-76623094D01*
X165955860Y-76623094D02*
X166288479Y-76623094D01*
X166288479Y-76048570D02*
X165653479Y-76048570D01*
X166258241Y-76048570D02*
X166288479Y-76109046D01*
X166288479Y-76109046D02*
X166288479Y-76229999D01*
X166288479Y-76229999D02*
X166258241Y-76290475D01*
X166258241Y-76290475D02*
X166228002Y-76320713D01*
X166228002Y-76320713D02*
X166167526Y-76350951D01*
X166167526Y-76350951D02*
X165986098Y-76350951D01*
X165986098Y-76350951D02*
X165925621Y-76320713D01*
X165925621Y-76320713D02*
X165895383Y-76290475D01*
X165895383Y-76290475D02*
X165865145Y-76229999D01*
X165865145Y-76229999D02*
X165865145Y-76109046D01*
X165865145Y-76109046D02*
X165895383Y-76048570D01*
X165865145Y-75322855D02*
X166288479Y-75171665D01*
X166288479Y-75171665D02*
X165865145Y-75020474D01*
X166258241Y-74536664D02*
X166288479Y-74597140D01*
X166288479Y-74597140D02*
X166288479Y-74718093D01*
X166288479Y-74718093D02*
X166258241Y-74778569D01*
X166258241Y-74778569D02*
X166197764Y-74808807D01*
X166197764Y-74808807D02*
X165955860Y-74808807D01*
X165955860Y-74808807D02*
X165895383Y-74778569D01*
X165895383Y-74778569D02*
X165865145Y-74718093D01*
X165865145Y-74718093D02*
X165865145Y-74597140D01*
X165865145Y-74597140D02*
X165895383Y-74536664D01*
X165895383Y-74536664D02*
X165955860Y-74506426D01*
X165955860Y-74506426D02*
X166016336Y-74506426D01*
X166016336Y-74506426D02*
X166076812Y-74808807D01*
X166288479Y-74234283D02*
X165865145Y-74234283D01*
X165986098Y-74234283D02*
X165925621Y-74204045D01*
X165925621Y-74204045D02*
X165895383Y-74173807D01*
X165895383Y-74173807D02*
X165865145Y-74113331D01*
X165865145Y-74113331D02*
X165865145Y-74052854D01*
X166228002Y-73841188D02*
X166258241Y-73810950D01*
X166258241Y-73810950D02*
X166288479Y-73841188D01*
X166288479Y-73841188D02*
X166258241Y-73871426D01*
X166258241Y-73871426D02*
X166228002Y-73841188D01*
X166228002Y-73841188D02*
X166288479Y-73841188D01*
X166288479Y-73206188D02*
X166288479Y-73569045D01*
X166288479Y-73387617D02*
X165653479Y-73387617D01*
X165653479Y-73387617D02*
X165744193Y-73448093D01*
X165744193Y-73448093D02*
X165804669Y-73508569D01*
X165804669Y-73508569D02*
X165834907Y-73569045D01*
X155833479Y-71386785D02*
X156468479Y-70963452D01*
X155833479Y-70963452D02*
X156468479Y-71386785D01*
X156468479Y-70721547D02*
X155833479Y-70721547D01*
X156287050Y-70449404D02*
X156287050Y-70147023D01*
X156468479Y-70509880D02*
X155833479Y-70298214D01*
X155833479Y-70298214D02*
X156468479Y-70086547D01*
X155833479Y-69753928D02*
X155833479Y-69632975D01*
X155833479Y-69632975D02*
X155863717Y-69572499D01*
X155863717Y-69572499D02*
X155924193Y-69512023D01*
X155924193Y-69512023D02*
X156045145Y-69481785D01*
X156045145Y-69481785D02*
X156256812Y-69481785D01*
X156256812Y-69481785D02*
X156377764Y-69512023D01*
X156377764Y-69512023D02*
X156438241Y-69572499D01*
X156438241Y-69572499D02*
X156468479Y-69632975D01*
X156468479Y-69632975D02*
X156468479Y-69753928D01*
X156468479Y-69753928D02*
X156438241Y-69814404D01*
X156438241Y-69814404D02*
X156377764Y-69874880D01*
X156377764Y-69874880D02*
X156256812Y-69905118D01*
X156256812Y-69905118D02*
X156045145Y-69905118D01*
X156045145Y-69905118D02*
X155924193Y-69874880D01*
X155924193Y-69874880D02*
X155863717Y-69814404D01*
X155863717Y-69814404D02*
X155833479Y-69753928D01*
X156468479Y-68362975D02*
X156166098Y-68574642D01*
X156468479Y-68725832D02*
X155833479Y-68725832D01*
X155833479Y-68725832D02*
X155833479Y-68483927D01*
X155833479Y-68483927D02*
X155863717Y-68423451D01*
X155863717Y-68423451D02*
X155893955Y-68393213D01*
X155893955Y-68393213D02*
X155954431Y-68362975D01*
X155954431Y-68362975D02*
X156045145Y-68362975D01*
X156045145Y-68362975D02*
X156105621Y-68393213D01*
X156105621Y-68393213D02*
X156135860Y-68423451D01*
X156135860Y-68423451D02*
X156166098Y-68483927D01*
X156166098Y-68483927D02*
X156166098Y-68725832D01*
X156287050Y-68121070D02*
X156287050Y-67818689D01*
X156468479Y-68181546D02*
X155833479Y-67969880D01*
X155833479Y-67969880D02*
X156468479Y-67758213D01*
X156045145Y-67274403D02*
X156468479Y-67274403D01*
X155803241Y-67425594D02*
X156256812Y-67576784D01*
X156256812Y-67576784D02*
X156256812Y-67183689D01*
X156468479Y-66941784D02*
X155833479Y-66941784D01*
X155833479Y-66941784D02*
X156287050Y-66730117D01*
X156287050Y-66730117D02*
X155833479Y-66518451D01*
X155833479Y-66518451D02*
X156468479Y-66518451D01*
X156468479Y-65883451D02*
X156468479Y-66246308D01*
X156468479Y-66064880D02*
X155833479Y-66064880D01*
X155833479Y-66064880D02*
X155924193Y-66125356D01*
X155924193Y-66125356D02*
X155984669Y-66185832D01*
X155984669Y-66185832D02*
X156014907Y-66246308D01*
D10*
X121954819Y-74499999D02*
X120954819Y-74499999D01*
X120954819Y-74499999D02*
X120954819Y-74261904D01*
X120954819Y-74261904D02*
X121002438Y-74119047D01*
X121002438Y-74119047D02*
X121097676Y-74023809D01*
X121097676Y-74023809D02*
X121192914Y-73976190D01*
X121192914Y-73976190D02*
X121383390Y-73928571D01*
X121383390Y-73928571D02*
X121526247Y-73928571D01*
X121526247Y-73928571D02*
X121716723Y-73976190D01*
X121716723Y-73976190D02*
X121811961Y-74023809D01*
X121811961Y-74023809D02*
X121907200Y-74119047D01*
X121907200Y-74119047D02*
X121954819Y-74261904D01*
X121954819Y-74261904D02*
X121954819Y-74499999D01*
X121431009Y-73166666D02*
X121431009Y-73499999D01*
X121954819Y-73499999D02*
X120954819Y-73499999D01*
X120954819Y-73499999D02*
X120954819Y-73023809D01*
X121954819Y-72642856D02*
X120954819Y-72642856D01*
X120954819Y-72642856D02*
X120954819Y-72261904D01*
X120954819Y-72261904D02*
X121002438Y-72166666D01*
X121002438Y-72166666D02*
X121050057Y-72119047D01*
X121050057Y-72119047D02*
X121145295Y-72071428D01*
X121145295Y-72071428D02*
X121288152Y-72071428D01*
X121288152Y-72071428D02*
X121383390Y-72119047D01*
X121383390Y-72119047D02*
X121431009Y-72166666D01*
X121431009Y-72166666D02*
X121478628Y-72261904D01*
X121478628Y-72261904D02*
X121478628Y-72642856D01*
X121954819Y-71499999D02*
X121907200Y-71595237D01*
X121907200Y-71595237D02*
X121811961Y-71642856D01*
X121811961Y-71642856D02*
X120954819Y-71642856D01*
X121954819Y-70690475D02*
X121431009Y-70690475D01*
X121431009Y-70690475D02*
X121335771Y-70738094D01*
X121335771Y-70738094D02*
X121288152Y-70833332D01*
X121288152Y-70833332D02*
X121288152Y-71023808D01*
X121288152Y-71023808D02*
X121335771Y-71119046D01*
X121907200Y-70690475D02*
X121954819Y-70785713D01*
X121954819Y-70785713D02*
X121954819Y-71023808D01*
X121954819Y-71023808D02*
X121907200Y-71119046D01*
X121907200Y-71119046D02*
X121811961Y-71166665D01*
X121811961Y-71166665D02*
X121716723Y-71166665D01*
X121716723Y-71166665D02*
X121621485Y-71119046D01*
X121621485Y-71119046D02*
X121573866Y-71023808D01*
X121573866Y-71023808D02*
X121573866Y-70785713D01*
X121573866Y-70785713D02*
X121526247Y-70690475D01*
X121288152Y-70309522D02*
X121954819Y-70071427D01*
X121288152Y-69833332D02*
X121954819Y-70071427D01*
X121954819Y-70071427D02*
X122192914Y-70166665D01*
X122192914Y-70166665D02*
X122240533Y-70214284D01*
X122240533Y-70214284D02*
X122288152Y-70309522D01*
X121907200Y-69071427D02*
X121954819Y-69166665D01*
X121954819Y-69166665D02*
X121954819Y-69357141D01*
X121954819Y-69357141D02*
X121907200Y-69452379D01*
X121907200Y-69452379D02*
X121811961Y-69499998D01*
X121811961Y-69499998D02*
X121431009Y-69499998D01*
X121431009Y-69499998D02*
X121335771Y-69452379D01*
X121335771Y-69452379D02*
X121288152Y-69357141D01*
X121288152Y-69357141D02*
X121288152Y-69166665D01*
X121288152Y-69166665D02*
X121335771Y-69071427D01*
X121335771Y-69071427D02*
X121431009Y-69023808D01*
X121431009Y-69023808D02*
X121526247Y-69023808D01*
X121526247Y-69023808D02*
X121621485Y-69499998D01*
X121954819Y-68595236D02*
X121288152Y-68595236D01*
X121478628Y-68595236D02*
X121383390Y-68547617D01*
X121383390Y-68547617D02*
X121335771Y-68499998D01*
X121335771Y-68499998D02*
X121288152Y-68404760D01*
X121288152Y-68404760D02*
X121288152Y-68309522D01*
X121954819Y-67214283D02*
X121288152Y-67214283D01*
X121383390Y-67214283D02*
X121335771Y-67166664D01*
X121335771Y-67166664D02*
X121288152Y-67071426D01*
X121288152Y-67071426D02*
X121288152Y-66928569D01*
X121288152Y-66928569D02*
X121335771Y-66833331D01*
X121335771Y-66833331D02*
X121431009Y-66785712D01*
X121431009Y-66785712D02*
X121954819Y-66785712D01*
X121431009Y-66785712D02*
X121335771Y-66738093D01*
X121335771Y-66738093D02*
X121288152Y-66642855D01*
X121288152Y-66642855D02*
X121288152Y-66499998D01*
X121288152Y-66499998D02*
X121335771Y-66404759D01*
X121335771Y-66404759D02*
X121431009Y-66357140D01*
X121431009Y-66357140D02*
X121954819Y-66357140D01*
X121954819Y-65880950D02*
X121288152Y-65880950D01*
X120954819Y-65880950D02*
X121002438Y-65928569D01*
X121002438Y-65928569D02*
X121050057Y-65880950D01*
X121050057Y-65880950D02*
X121002438Y-65833331D01*
X121002438Y-65833331D02*
X120954819Y-65880950D01*
X120954819Y-65880950D02*
X121050057Y-65880950D01*
X121288152Y-65404760D02*
X121954819Y-65404760D01*
X121383390Y-65404760D02*
X121335771Y-65357141D01*
X121335771Y-65357141D02*
X121288152Y-65261903D01*
X121288152Y-65261903D02*
X121288152Y-65119046D01*
X121288152Y-65119046D02*
X121335771Y-65023808D01*
X121335771Y-65023808D02*
X121431009Y-64976189D01*
X121431009Y-64976189D02*
X121954819Y-64976189D01*
X121954819Y-64499998D02*
X121288152Y-64499998D01*
X120954819Y-64499998D02*
X121002438Y-64547617D01*
X121002438Y-64547617D02*
X121050057Y-64499998D01*
X121050057Y-64499998D02*
X121002438Y-64452379D01*
X121002438Y-64452379D02*
X120954819Y-64499998D01*
X120954819Y-64499998D02*
X121050057Y-64499998D01*
X134744761Y-82954819D02*
X134173333Y-82954819D01*
X134459047Y-82954819D02*
X134459047Y-81954819D01*
X134459047Y-81954819D02*
X134363809Y-82097676D01*
X134363809Y-82097676D02*
X134268571Y-82192914D01*
X134268571Y-82192914D02*
X134173333Y-82240533D01*
X135363809Y-81954819D02*
X135459047Y-81954819D01*
X135459047Y-81954819D02*
X135554285Y-82002438D01*
X135554285Y-82002438D02*
X135601904Y-82050057D01*
X135601904Y-82050057D02*
X135649523Y-82145295D01*
X135649523Y-82145295D02*
X135697142Y-82335771D01*
X135697142Y-82335771D02*
X135697142Y-82573866D01*
X135697142Y-82573866D02*
X135649523Y-82764342D01*
X135649523Y-82764342D02*
X135601904Y-82859580D01*
X135601904Y-82859580D02*
X135554285Y-82907200D01*
X135554285Y-82907200D02*
X135459047Y-82954819D01*
X135459047Y-82954819D02*
X135363809Y-82954819D01*
X135363809Y-82954819D02*
X135268571Y-82907200D01*
X135268571Y-82907200D02*
X135220952Y-82859580D01*
X135220952Y-82859580D02*
X135173333Y-82764342D01*
X135173333Y-82764342D02*
X135125714Y-82573866D01*
X135125714Y-82573866D02*
X135125714Y-82335771D01*
X135125714Y-82335771D02*
X135173333Y-82145295D01*
X135173333Y-82145295D02*
X135220952Y-82050057D01*
X135220952Y-82050057D02*
X135268571Y-82002438D01*
X135268571Y-82002438D02*
X135363809Y-81954819D01*
X136125714Y-82954819D02*
X136125714Y-81954819D01*
X136220952Y-82573866D02*
X136506666Y-82954819D01*
X136506666Y-82288152D02*
X136125714Y-82669104D01*
X108907200Y-65261904D02*
X108954819Y-65119047D01*
X108954819Y-65119047D02*
X108954819Y-64880952D01*
X108954819Y-64880952D02*
X108907200Y-64785714D01*
X108907200Y-64785714D02*
X108859580Y-64738095D01*
X108859580Y-64738095D02*
X108764342Y-64690476D01*
X108764342Y-64690476D02*
X108669104Y-64690476D01*
X108669104Y-64690476D02*
X108573866Y-64738095D01*
X108573866Y-64738095D02*
X108526247Y-64785714D01*
X108526247Y-64785714D02*
X108478628Y-64880952D01*
X108478628Y-64880952D02*
X108431009Y-65071428D01*
X108431009Y-65071428D02*
X108383390Y-65166666D01*
X108383390Y-65166666D02*
X108335771Y-65214285D01*
X108335771Y-65214285D02*
X108240533Y-65261904D01*
X108240533Y-65261904D02*
X108145295Y-65261904D01*
X108145295Y-65261904D02*
X108050057Y-65214285D01*
X108050057Y-65214285D02*
X108002438Y-65166666D01*
X108002438Y-65166666D02*
X107954819Y-65071428D01*
X107954819Y-65071428D02*
X107954819Y-64833333D01*
X107954819Y-64833333D02*
X108002438Y-64690476D01*
X108954819Y-64261904D02*
X107954819Y-64261904D01*
X107954819Y-64261904D02*
X107954819Y-63880952D01*
X107954819Y-63880952D02*
X108002438Y-63785714D01*
X108002438Y-63785714D02*
X108050057Y-63738095D01*
X108050057Y-63738095D02*
X108145295Y-63690476D01*
X108145295Y-63690476D02*
X108288152Y-63690476D01*
X108288152Y-63690476D02*
X108383390Y-63738095D01*
X108383390Y-63738095D02*
X108431009Y-63785714D01*
X108431009Y-63785714D02*
X108478628Y-63880952D01*
X108478628Y-63880952D02*
X108478628Y-64261904D01*
X108954819Y-63261904D02*
X107954819Y-63261904D01*
X108954819Y-62690476D02*
X108383390Y-63119047D01*
X107954819Y-62690476D02*
X108526247Y-63261904D01*
X108954819Y-61738095D02*
X108954819Y-62309523D01*
X108954819Y-62023809D02*
X107954819Y-62023809D01*
X107954819Y-62023809D02*
X108097676Y-62119047D01*
X108097676Y-62119047D02*
X108192914Y-62214285D01*
X108192914Y-62214285D02*
X108240533Y-62309523D01*
X121404761Y-82954819D02*
X120833333Y-82954819D01*
X121119047Y-82954819D02*
X121119047Y-81954819D01*
X121119047Y-81954819D02*
X121023809Y-82097676D01*
X121023809Y-82097676D02*
X120928571Y-82192914D01*
X120928571Y-82192914D02*
X120833333Y-82240533D01*
X122023809Y-81954819D02*
X122119047Y-81954819D01*
X122119047Y-81954819D02*
X122214285Y-82002438D01*
X122214285Y-82002438D02*
X122261904Y-82050057D01*
X122261904Y-82050057D02*
X122309523Y-82145295D01*
X122309523Y-82145295D02*
X122357142Y-82335771D01*
X122357142Y-82335771D02*
X122357142Y-82573866D01*
X122357142Y-82573866D02*
X122309523Y-82764342D01*
X122309523Y-82764342D02*
X122261904Y-82859580D01*
X122261904Y-82859580D02*
X122214285Y-82907200D01*
X122214285Y-82907200D02*
X122119047Y-82954819D01*
X122119047Y-82954819D02*
X122023809Y-82954819D01*
X122023809Y-82954819D02*
X121928571Y-82907200D01*
X121928571Y-82907200D02*
X121880952Y-82859580D01*
X121880952Y-82859580D02*
X121833333Y-82764342D01*
X121833333Y-82764342D02*
X121785714Y-82573866D01*
X121785714Y-82573866D02*
X121785714Y-82335771D01*
X121785714Y-82335771D02*
X121833333Y-82145295D01*
X121833333Y-82145295D02*
X121880952Y-82050057D01*
X121880952Y-82050057D02*
X121928571Y-82002438D01*
X121928571Y-82002438D02*
X122023809Y-81954819D01*
X122785714Y-82954819D02*
X122785714Y-81954819D01*
X122880952Y-82573866D02*
X123166666Y-82954819D01*
X123166666Y-82288152D02*
X122785714Y-82669104D01*
X108931009Y-78547619D02*
X108978628Y-78404762D01*
X108978628Y-78404762D02*
X109026247Y-78357143D01*
X109026247Y-78357143D02*
X109121485Y-78309524D01*
X109121485Y-78309524D02*
X109264342Y-78309524D01*
X109264342Y-78309524D02*
X109359580Y-78357143D01*
X109359580Y-78357143D02*
X109407200Y-78404762D01*
X109407200Y-78404762D02*
X109454819Y-78500000D01*
X109454819Y-78500000D02*
X109454819Y-78880952D01*
X109454819Y-78880952D02*
X108454819Y-78880952D01*
X108454819Y-78880952D02*
X108454819Y-78547619D01*
X108454819Y-78547619D02*
X108502438Y-78452381D01*
X108502438Y-78452381D02*
X108550057Y-78404762D01*
X108550057Y-78404762D02*
X108645295Y-78357143D01*
X108645295Y-78357143D02*
X108740533Y-78357143D01*
X108740533Y-78357143D02*
X108835771Y-78404762D01*
X108835771Y-78404762D02*
X108883390Y-78452381D01*
X108883390Y-78452381D02*
X108931009Y-78547619D01*
X108931009Y-78547619D02*
X108931009Y-78880952D01*
X109454819Y-77452381D02*
X108931009Y-77452381D01*
X108931009Y-77452381D02*
X108835771Y-77500000D01*
X108835771Y-77500000D02*
X108788152Y-77595238D01*
X108788152Y-77595238D02*
X108788152Y-77785714D01*
X108788152Y-77785714D02*
X108835771Y-77880952D01*
X109407200Y-77452381D02*
X109454819Y-77547619D01*
X109454819Y-77547619D02*
X109454819Y-77785714D01*
X109454819Y-77785714D02*
X109407200Y-77880952D01*
X109407200Y-77880952D02*
X109311961Y-77928571D01*
X109311961Y-77928571D02*
X109216723Y-77928571D01*
X109216723Y-77928571D02*
X109121485Y-77880952D01*
X109121485Y-77880952D02*
X109073866Y-77785714D01*
X109073866Y-77785714D02*
X109073866Y-77547619D01*
X109073866Y-77547619D02*
X109026247Y-77452381D01*
X108788152Y-77119047D02*
X108788152Y-76738095D01*
X108454819Y-76976190D02*
X109311961Y-76976190D01*
X109311961Y-76976190D02*
X109407200Y-76928571D01*
X109407200Y-76928571D02*
X109454819Y-76833333D01*
X109454819Y-76833333D02*
X109454819Y-76738095D01*
X108788152Y-76547618D02*
X108788152Y-76166666D01*
X108454819Y-76404761D02*
X109311961Y-76404761D01*
X109311961Y-76404761D02*
X109407200Y-76357142D01*
X109407200Y-76357142D02*
X109454819Y-76261904D01*
X109454819Y-76261904D02*
X109454819Y-76166666D01*
X109407200Y-75452380D02*
X109454819Y-75547618D01*
X109454819Y-75547618D02*
X109454819Y-75738094D01*
X109454819Y-75738094D02*
X109407200Y-75833332D01*
X109407200Y-75833332D02*
X109311961Y-75880951D01*
X109311961Y-75880951D02*
X108931009Y-75880951D01*
X108931009Y-75880951D02*
X108835771Y-75833332D01*
X108835771Y-75833332D02*
X108788152Y-75738094D01*
X108788152Y-75738094D02*
X108788152Y-75547618D01*
X108788152Y-75547618D02*
X108835771Y-75452380D01*
X108835771Y-75452380D02*
X108931009Y-75404761D01*
X108931009Y-75404761D02*
X109026247Y-75404761D01*
X109026247Y-75404761D02*
X109121485Y-75880951D01*
X109454819Y-74976189D02*
X108788152Y-74976189D01*
X108978628Y-74976189D02*
X108883390Y-74928570D01*
X108883390Y-74928570D02*
X108835771Y-74880951D01*
X108835771Y-74880951D02*
X108788152Y-74785713D01*
X108788152Y-74785713D02*
X108788152Y-74690475D01*
X108788152Y-74452379D02*
X109454819Y-74214284D01*
X108788152Y-73976189D02*
X109454819Y-74214284D01*
X109454819Y-74214284D02*
X109692914Y-74309522D01*
X109692914Y-74309522D02*
X109740533Y-74357141D01*
X109740533Y-74357141D02*
X109788152Y-74452379D01*
X109454819Y-73071427D02*
X109454819Y-73642855D01*
X109454819Y-73357141D02*
X108454819Y-73357141D01*
X108454819Y-73357141D02*
X108597676Y-73452379D01*
X108597676Y-73452379D02*
X108692914Y-73547617D01*
X108692914Y-73547617D02*
X108740533Y-73642855D01*
X157907200Y-81309523D02*
X157954819Y-81166666D01*
X157954819Y-81166666D02*
X157954819Y-80928571D01*
X157954819Y-80928571D02*
X157907200Y-80833333D01*
X157907200Y-80833333D02*
X157859580Y-80785714D01*
X157859580Y-80785714D02*
X157764342Y-80738095D01*
X157764342Y-80738095D02*
X157669104Y-80738095D01*
X157669104Y-80738095D02*
X157573866Y-80785714D01*
X157573866Y-80785714D02*
X157526247Y-80833333D01*
X157526247Y-80833333D02*
X157478628Y-80928571D01*
X157478628Y-80928571D02*
X157431009Y-81119047D01*
X157431009Y-81119047D02*
X157383390Y-81214285D01*
X157383390Y-81214285D02*
X157335771Y-81261904D01*
X157335771Y-81261904D02*
X157240533Y-81309523D01*
X157240533Y-81309523D02*
X157145295Y-81309523D01*
X157145295Y-81309523D02*
X157050057Y-81261904D01*
X157050057Y-81261904D02*
X157002438Y-81214285D01*
X157002438Y-81214285D02*
X156954819Y-81119047D01*
X156954819Y-81119047D02*
X156954819Y-80880952D01*
X156954819Y-80880952D02*
X157002438Y-80738095D01*
X157907200Y-79928571D02*
X157954819Y-80023809D01*
X157954819Y-80023809D02*
X157954819Y-80214285D01*
X157954819Y-80214285D02*
X157907200Y-80309523D01*
X157907200Y-80309523D02*
X157811961Y-80357142D01*
X157811961Y-80357142D02*
X157431009Y-80357142D01*
X157431009Y-80357142D02*
X157335771Y-80309523D01*
X157335771Y-80309523D02*
X157288152Y-80214285D01*
X157288152Y-80214285D02*
X157288152Y-80023809D01*
X157288152Y-80023809D02*
X157335771Y-79928571D01*
X157335771Y-79928571D02*
X157431009Y-79880952D01*
X157431009Y-79880952D02*
X157526247Y-79880952D01*
X157526247Y-79880952D02*
X157621485Y-80357142D01*
X157288152Y-79452380D02*
X157954819Y-79452380D01*
X157383390Y-79452380D02*
X157335771Y-79404761D01*
X157335771Y-79404761D02*
X157288152Y-79309523D01*
X157288152Y-79309523D02*
X157288152Y-79166666D01*
X157288152Y-79166666D02*
X157335771Y-79071428D01*
X157335771Y-79071428D02*
X157431009Y-79023809D01*
X157431009Y-79023809D02*
X157954819Y-79023809D01*
X157907200Y-78595237D02*
X157954819Y-78499999D01*
X157954819Y-78499999D02*
X157954819Y-78309523D01*
X157954819Y-78309523D02*
X157907200Y-78214285D01*
X157907200Y-78214285D02*
X157811961Y-78166666D01*
X157811961Y-78166666D02*
X157764342Y-78166666D01*
X157764342Y-78166666D02*
X157669104Y-78214285D01*
X157669104Y-78214285D02*
X157621485Y-78309523D01*
X157621485Y-78309523D02*
X157621485Y-78452380D01*
X157621485Y-78452380D02*
X157573866Y-78547618D01*
X157573866Y-78547618D02*
X157478628Y-78595237D01*
X157478628Y-78595237D02*
X157431009Y-78595237D01*
X157431009Y-78595237D02*
X157335771Y-78547618D01*
X157335771Y-78547618D02*
X157288152Y-78452380D01*
X157288152Y-78452380D02*
X157288152Y-78309523D01*
X157288152Y-78309523D02*
X157335771Y-78214285D01*
X157954819Y-77595237D02*
X157907200Y-77690475D01*
X157907200Y-77690475D02*
X157859580Y-77738094D01*
X157859580Y-77738094D02*
X157764342Y-77785713D01*
X157764342Y-77785713D02*
X157478628Y-77785713D01*
X157478628Y-77785713D02*
X157383390Y-77738094D01*
X157383390Y-77738094D02*
X157335771Y-77690475D01*
X157335771Y-77690475D02*
X157288152Y-77595237D01*
X157288152Y-77595237D02*
X157288152Y-77452380D01*
X157288152Y-77452380D02*
X157335771Y-77357142D01*
X157335771Y-77357142D02*
X157383390Y-77309523D01*
X157383390Y-77309523D02*
X157478628Y-77261904D01*
X157478628Y-77261904D02*
X157764342Y-77261904D01*
X157764342Y-77261904D02*
X157859580Y-77309523D01*
X157859580Y-77309523D02*
X157907200Y-77357142D01*
X157907200Y-77357142D02*
X157954819Y-77452380D01*
X157954819Y-77452380D02*
X157954819Y-77595237D01*
X157954819Y-76833332D02*
X157288152Y-76833332D01*
X157478628Y-76833332D02*
X157383390Y-76785713D01*
X157383390Y-76785713D02*
X157335771Y-76738094D01*
X157335771Y-76738094D02*
X157288152Y-76642856D01*
X157288152Y-76642856D02*
X157288152Y-76547618D01*
X157954819Y-75690475D02*
X157954819Y-76261903D01*
X157954819Y-75976189D02*
X156954819Y-75976189D01*
X156954819Y-75976189D02*
X157097676Y-76071427D01*
X157097676Y-76071427D02*
X157192914Y-76166665D01*
X157192914Y-76166665D02*
X157240533Y-76261903D01*
D12*
%TO.C,XIAO RA4M1*%
X134466000Y-61635000D02*
X134466000Y-75605000D01*
X136371000Y-59730000D02*
X153516000Y-59730000D01*
X136371000Y-77510000D02*
X153516000Y-77510000D01*
X155421000Y-75605000D02*
X155421000Y-61635000D01*
X155421000Y-75605000D02*
X155421000Y-61635000D01*
D13*
X155433000Y-64122000D02*
X156974284Y-64122716D01*
X156974012Y-73117988D02*
X155430000Y-73119000D01*
X157474012Y-64622716D02*
X157474012Y-72617988D01*
D12*
X134466000Y-61635000D02*
G75*
G02*
X136371000Y-59730000I1905001J-1D01*
G01*
X136371000Y-77510000D02*
G75*
G02*
X134466000Y-75605000I1J1905001D01*
G01*
X153516000Y-59730000D02*
G75*
G02*
X155421000Y-61635000I0J-1905000D01*
G01*
X155421000Y-75605000D02*
G75*
G02*
X153516000Y-77510000I-1905000J0D01*
G01*
D13*
X156974284Y-64122716D02*
G75*
G02*
X157474084Y-64622716I-384J-500184D01*
G01*
X157474012Y-72617988D02*
G75*
G02*
X156974012Y-73118012I-500012J-12D01*
G01*
D14*
%TO.C,DFPlayer mini*%
X132400000Y-78890000D02*
G75*
G02*
X132200000Y-78890000I-100000J0D01*
G01*
X132200000Y-78890000D02*
G75*
G02*
X132400000Y-78890000I100000J0D01*
G01*
D13*
X111340000Y-59840000D02*
X131660000Y-59840000D01*
X111340000Y-80160000D02*
X111340000Y-59840000D01*
X131660000Y-59840000D02*
X131660000Y-80160000D01*
X131660000Y-80160000D02*
X111340000Y-80160000D01*
%TO.C,10k*%
D15*
X138690000Y-83870000D02*
X132150000Y-83870000D01*
X132150000Y-81130000D01*
X138690000Y-81130000D01*
X138690000Y-83870000D01*
X131380000Y-82500000D02*
X132150000Y-82500000D01*
X139460000Y-82500000D02*
X138690000Y-82500000D01*
%TO.C,SW1*%
X110570000Y-84360000D02*
X100350000Y-84360000D01*
X100350000Y-81640000D01*
X110570000Y-81640000D01*
X110570000Y-84360000D01*
%TO.C,SPK1*%
X100250000Y-67850000D02*
X101500000Y-67850000D01*
X100540000Y-67560000D02*
X106510000Y-67560000D01*
X106510000Y-67560000D02*
X106510000Y-59940000D01*
X100550000Y-67550000D02*
X101300000Y-67550000D01*
X101300000Y-67550000D02*
X101300000Y-65750000D01*
X102800000Y-67550000D02*
X102800000Y-66800000D01*
X102800000Y-66800000D02*
X105750000Y-66800000D01*
X105750000Y-66800000D02*
X105750000Y-63750000D01*
X100250000Y-66600000D02*
X100250000Y-67850000D01*
X100550000Y-65750000D02*
X100550000Y-67550000D01*
X101300000Y-65750000D02*
X100550000Y-65750000D01*
X100550000Y-64250000D02*
X101300000Y-64250000D01*
X101300000Y-64250000D02*
X101300000Y-63250000D01*
X100550000Y-63250000D02*
X100550000Y-64250000D01*
X101300000Y-63250000D02*
X100550000Y-63250000D01*
X100550000Y-61750000D02*
X101300000Y-61750000D01*
X101300000Y-61750000D02*
X101300000Y-59950000D01*
X102800000Y-60700000D02*
X105750000Y-60700000D01*
X105750000Y-60700000D02*
X105750000Y-63750000D01*
X100550000Y-59950000D02*
X100550000Y-61750000D01*
X101300000Y-59950000D02*
X100550000Y-59950000D01*
X102800000Y-59950000D02*
X102800000Y-60700000D01*
X100540000Y-59940000D02*
X100540000Y-67560000D01*
X106510000Y-59940000D02*
X100540000Y-59940000D01*
%TO.C,R3*%
X153460000Y-82500000D02*
X152690000Y-82500000D01*
X145380000Y-82500000D02*
X146150000Y-82500000D01*
X152690000Y-83870000D02*
X146150000Y-83870000D01*
X146150000Y-81130000D01*
X152690000Y-81130000D01*
X152690000Y-83870000D01*
%TO.C,10k*%
X117960000Y-82500000D02*
X118730000Y-82500000D01*
X126040000Y-82500000D02*
X125270000Y-82500000D01*
X118730000Y-81130000D02*
X125270000Y-81130000D01*
X125270000Y-83870000D01*
X118730000Y-83870000D01*
X118730000Y-81130000D01*
%TO.C,Battery1*%
X100250000Y-80350000D02*
X101500000Y-80350000D01*
X100540000Y-80060000D02*
X106510000Y-80060000D01*
X106510000Y-80060000D02*
X106510000Y-72440000D01*
X100550000Y-80050000D02*
X101300000Y-80050000D01*
X101300000Y-80050000D02*
X101300000Y-78250000D01*
X102800000Y-80050000D02*
X102800000Y-79300000D01*
X102800000Y-79300000D02*
X105750000Y-79300000D01*
X105750000Y-79300000D02*
X105750000Y-76250000D01*
X100250000Y-79100000D02*
X100250000Y-80350000D01*
X100550000Y-78250000D02*
X100550000Y-80050000D01*
X101300000Y-78250000D02*
X100550000Y-78250000D01*
X100550000Y-76750000D02*
X101300000Y-76750000D01*
X101300000Y-76750000D02*
X101300000Y-75750000D01*
X100550000Y-75750000D02*
X100550000Y-76750000D01*
X101300000Y-75750000D02*
X100550000Y-75750000D01*
X100550000Y-74250000D02*
X101300000Y-74250000D01*
X101300000Y-74250000D02*
X101300000Y-72450000D01*
X102800000Y-73200000D02*
X105750000Y-73200000D01*
X105750000Y-73200000D02*
X105750000Y-76250000D01*
X100550000Y-72450000D02*
X100550000Y-74250000D01*
X101300000Y-72450000D02*
X100550000Y-72450000D01*
X102800000Y-72450000D02*
X102800000Y-73200000D01*
X100540000Y-72440000D02*
X100540000Y-80060000D01*
X106510000Y-72440000D02*
X100540000Y-72440000D01*
%TO.C,Sensor1*%
X165250000Y-74150000D02*
X164000000Y-74150000D01*
X164960000Y-74440000D02*
X158990000Y-74440000D01*
X158990000Y-74440000D02*
X158990000Y-82060000D01*
X164950000Y-74450000D02*
X164200000Y-74450000D01*
X164200000Y-74450000D02*
X164200000Y-76250000D01*
X162700000Y-74450000D02*
X162700000Y-75200000D01*
X162700000Y-75200000D02*
X159750000Y-75200000D01*
X159750000Y-75200000D02*
X159750000Y-78250000D01*
X165250000Y-75400000D02*
X165250000Y-74150000D01*
X164950000Y-76250000D02*
X164950000Y-74450000D01*
X164200000Y-76250000D02*
X164950000Y-76250000D01*
X164950000Y-77750000D02*
X164200000Y-77750000D01*
X164200000Y-77750000D02*
X164200000Y-78750000D01*
X164950000Y-78750000D02*
X164950000Y-77750000D01*
X164200000Y-78750000D02*
X164950000Y-78750000D01*
X164950000Y-80250000D02*
X164200000Y-80250000D01*
X164200000Y-80250000D02*
X164200000Y-82050000D01*
X162700000Y-81300000D02*
X159750000Y-81300000D01*
X159750000Y-81300000D02*
X159750000Y-78250000D01*
X164950000Y-82050000D02*
X164950000Y-80250000D01*
X164200000Y-82050000D02*
X164950000Y-82050000D01*
X162700000Y-82050000D02*
X162700000Y-81300000D01*
X164960000Y-82060000D02*
X164960000Y-74440000D01*
X158990000Y-82060000D02*
X164960000Y-82060000D01*
%TD*%
M02*
