%TF.GenerationSoftware,KiCad,Pcbnew,9.0.4*%
%TF.CreationDate,2026-02-11T20:10:40+09:00*%
%TF.ProjectId,kizuna_band,6b697a75-6e61-45f6-9261-6e642e6b6963,rev?*%
%TF.SameCoordinates,Original*%
%TF.FileFunction,Copper,L1,Top*%
%TF.FilePolarity,Positive*%
%FSLAX46Y46*%
G04 Gerber Fmt 4.6, Leading zero omitted, Abs format (unit mm)*
G04 Created by KiCad (PCBNEW 9.0.4) date 2026-02-11 20:10:40*
%MOMM*%
%LPD*%
G01*
G04 APERTURE LIST*
G04 Aperture macros list*
%AMRoundRect*
0 Rectangle with rounded corners*
0 $1 Rounding radius*
0 $2 $3 $4 $5 $6 $7 $8 $9 X,Y pos of 4 corners*
0 Add a 4 corners polygon primitive as box body*
4,1,4,$2,$3,$4,$5,$6,$7,$8,$9,$2,$3,0*
0 Add four circle primitives for the rounded corners*
1,1,$1+$1,$2,$3*
1,1,$1+$1,$4,$5*
1,1,$1+$1,$6,$7*
1,1,$1+$1,$8,$9*
0 Add four rect primitives between the rounded corners*
20,1,$1+$1,$2,$3,$4,$5,0*
20,1,$1+$1,$4,$5,$6,$7,0*
20,1,$1+$1,$6,$7,$8,$9,0*
20,1,$1+$1,$8,$9,$2,$3,0*%
G04 Aperture macros list end*
%TA.AperFunction,SMDPad,CuDef*%
%ADD10RoundRect,0.152400X0.609600X-1.013600X0.609600X1.013600X-0.609600X1.013600X-0.609600X-1.013600X0*%
%TD*%
%TA.AperFunction,ComponentPad*%
%ADD11C,1.524000*%
%TD*%
%TA.AperFunction,SMDPad,CuDef*%
%ADD12RoundRect,0.152400X-0.609600X1.013600X-0.609600X-1.013600X0.609600X-1.013600X0.609600X1.013600X0*%
%TD*%
%TA.AperFunction,ComponentPad*%
%ADD13C,1.308000*%
%TD*%
%TA.AperFunction,ComponentPad*%
%ADD14R,1.308000X1.308000*%
%TD*%
%TA.AperFunction,ComponentPad*%
%ADD15C,1.600000*%
%TD*%
%TA.AperFunction,ComponentPad*%
%ADD16R,1.500000X1.500000*%
%TD*%
%TA.AperFunction,ComponentPad*%
%ADD17RoundRect,0.250000X0.750000X-0.600000X0.750000X0.600000X-0.750000X0.600000X-0.750000X-0.600000X0*%
%TD*%
%TA.AperFunction,ComponentPad*%
%ADD18O,2.000000X1.700000*%
%TD*%
%TA.AperFunction,ComponentPad*%
%ADD19RoundRect,0.250000X-0.750000X0.600000X-0.750000X-0.600000X0.750000X-0.600000X0.750000X0.600000X0*%
%TD*%
%TA.AperFunction,Conductor*%
%ADD20C,0.200000*%
%TD*%
G04 APERTURE END LIST*
D10*
%TO.P,XIAO RA4M1,1,P014_A0_D0*%
%TO.N,A0*%
X152500000Y-60215000D03*
D11*
X152500000Y-61000000D03*
D10*
%TO.P,XIAO RA4M1,2,P000_A1_D1*%
%TO.N,unconnected-(U1-P000_A1_D1-Pad2)*%
X149960000Y-60215000D03*
D11*
X149960000Y-61000000D03*
D10*
%TO.P,XIAO RA4M1,3,P001_A2_D2*%
%TO.N,unconnected-(U1-P001_A2_D2-Pad3)*%
X147420000Y-60215000D03*
D11*
X147420000Y-61000000D03*
D10*
%TO.P,XIAO RA4M1,4,P002_A3_D3*%
%TO.N,unconnected-(U1-P002_A3_D3-Pad4)_1*%
X144880000Y-60215000D03*
D11*
X144880000Y-61000000D03*
D10*
%TO.P,XIAO RA4M1,5,P206_A4_D4_SDA1*%
%TO.N,unconnected-(U1-P206_A4_D4_SDA1-Pad5)_1*%
X142340000Y-60215000D03*
D11*
X142340000Y-61000000D03*
D10*
%TO.P,XIAO RA4M1,6,P100_A5_D5_SCL1*%
%TO.N,unconnected-(U1-P100_A5_D5_SCL1-Pad6)*%
X139800000Y-60215000D03*
D11*
X139800000Y-61000000D03*
D10*
%TO.P,XIAO RA4M1,7,P302_D6_SDA2_TXD2*%
%TO.N,Net-(U1-P302_D6_SDA2_TXD2)*%
X137260000Y-60215000D03*
D11*
X137260000Y-61000000D03*
%TO.P,XIAO RA4M1,8,P301_D7_SCL2_RXD2*%
%TO.N,Net-(U1-P301_D7_SCL2_RXD2)*%
X137260000Y-76240000D03*
D12*
X137260000Y-77025000D03*
D11*
%TO.P,XIAO RA4M1,9,P111_D8_SCK9*%
%TO.N,unconnected-(U1-P111_D8_SCK9-Pad9)_1*%
X139800000Y-76240000D03*
D12*
X139800000Y-77025000D03*
D11*
%TO.P,XIAO RA4M1,10,P110_D9_MISO9*%
%TO.N,unconnected-(U1-P110_D9_MISO9-Pad10)_1*%
X142340000Y-76240000D03*
D12*
X142340000Y-77025000D03*
D11*
%TO.P,XIAO RA4M1,11,P109_D10_MOSI9*%
%TO.N,unconnected-(U1-P109_D10_MOSI9-Pad11)_1*%
X144880000Y-76240000D03*
D12*
X144880000Y-77025000D03*
D11*
%TO.P,XIAO RA4M1,12,3V3*%
%TO.N,unconnected-(U1-3V3-Pad12)*%
X147420000Y-76240000D03*
D12*
X147420000Y-77025000D03*
D11*
%TO.P,XIAO RA4M1,13,GND*%
%TO.N,GND*%
X149960000Y-76240000D03*
D12*
X149960000Y-77025000D03*
D11*
%TO.P,XIAO RA4M1,14,VBUS*%
%TO.N,5V*%
X152500000Y-76240000D03*
D12*
X152500000Y-77025000D03*
%TD*%
D13*
%TO.P,DFPlayer mini,16,BUSY*%
%TO.N,unconnected-(U2-BUSY-Pad16)*%
X112483000Y-78890000D03*
%TO.P,DFPlayer mini,15,USB-*%
%TO.N,unconnected-(U2-USB--Pad15)*%
X112483000Y-76350000D03*
%TO.P,DFPlayer mini,14,USB+*%
%TO.N,unconnected-(U2-USB+-Pad14)*%
X112483000Y-73810000D03*
%TO.P,DFPlayer mini,13,ADKEY2*%
%TO.N,unconnected-(U2-ADKEY2-Pad13)*%
X112483000Y-71270000D03*
%TO.P,DFPlayer mini,12,ADKEY1*%
%TO.N,unconnected-(U2-ADKEY1-Pad12)*%
X112483000Y-68730000D03*
%TO.P,DFPlayer mini,11,IO2*%
%TO.N,unconnected-(U2-IO2-Pad11)*%
X112483000Y-66190000D03*
%TO.P,DFPlayer mini,10,GND*%
%TO.N,GND*%
X112483000Y-63650000D03*
%TO.P,DFPlayer mini,9,IO1*%
%TO.N,unconnected-(U2-IO1-Pad9)*%
X112483000Y-61110000D03*
%TO.P,DFPlayer mini,8,SPK2*%
%TO.N,SPK2 -*%
X130517000Y-61110000D03*
%TO.P,DFPlayer mini,7,GND*%
%TO.N,GND*%
X130517000Y-63650000D03*
%TO.P,DFPlayer mini,6,SPK1*%
%TO.N,SPK1 +*%
X130517000Y-66190000D03*
%TO.P,DFPlayer mini,5,DAC_L*%
%TO.N,unconnected-(U2-DAC_L-Pad5)*%
X130517000Y-68730000D03*
%TO.P,DFPlayer mini,4,DAC_R*%
%TO.N,unconnected-(U2-DAC_R-Pad4)*%
X130517000Y-71270000D03*
%TO.P,DFPlayer mini,3,TX*%
%TO.N,Net-(U2-TX)*%
X130517000Y-73810000D03*
%TO.P,DFPlayer mini,2,RX*%
%TO.N,Net-(U2-RX)*%
X130517000Y-76350000D03*
D14*
%TO.P,DFPlayer mini,1,VCC*%
%TO.N,5V*%
X130517000Y-78890000D03*
%TD*%
D15*
%TO.P,10k,2*%
%TO.N,Net-(U2-RX)*%
X130340000Y-82500000D03*
%TO.P,10k,1*%
%TO.N,Net-(U1-P301_D7_SCL2_RXD2)*%
X140500000Y-82500000D03*
%TD*%
D16*
%TO.P,SW1,1,B*%
%TO.N,5V*%
X105460000Y-83000000D03*
D15*
%TO.P,SW1,2,C*%
%TO.N,Net-(Battery1-Pin_1)*%
X108000000Y-83000000D03*
%TO.P,SW1,3,A*%
%TO.N,unconnected-(SW1-A-Pad3)*%
X102920000Y-83000000D03*
%TD*%
D17*
%TO.P,SPK1,1,Pin_1*%
%TO.N,SPK1 +*%
X103000000Y-65000000D03*
D18*
%TO.P,SPK1,2,Pin_2*%
%TO.N,SPK2 -*%
X103000000Y-62500000D03*
%TD*%
D15*
%TO.P,R3,1*%
%TO.N,A0*%
X154500000Y-82500000D03*
%TO.P,R3,2*%
%TO.N,GND*%
X144340000Y-82500000D03*
%TD*%
%TO.P,10k,1*%
%TO.N,Net-(U1-P302_D6_SDA2_TXD2)*%
X116920000Y-82500000D03*
%TO.P,10k,2*%
%TO.N,Net-(U2-TX)*%
X127080000Y-82500000D03*
%TD*%
D17*
%TO.P,Battery1,1,Pin_1*%
%TO.N,Net-(Battery1-Pin_1)*%
X103000000Y-77500000D03*
D18*
%TO.P,Battery1,2,Pin_2*%
%TO.N,GND*%
X103000000Y-75000000D03*
%TD*%
D19*
%TO.P,Sensor1,1,Pin_1*%
%TO.N,5V*%
X162500000Y-77000000D03*
D18*
%TO.P,Sensor1,2,Pin_2*%
%TO.N,A0*%
X162500000Y-79500000D03*
%TD*%
D20*
%TO.N,A0*%
X152500000Y-61000000D02*
X153577630Y-61000000D01*
X153577630Y-61000000D02*
X163801000Y-71223370D01*
X163801000Y-71223370D02*
X163801000Y-78199000D01*
X163801000Y-78199000D02*
X162500000Y-79500000D01*
%TO.N,5V*%
X162500000Y-77000000D02*
X161740000Y-76240000D01*
X161740000Y-76240000D02*
X152500000Y-76240000D01*
%TO.N,A0*%
X154500000Y-82500000D02*
X159500000Y-82500000D01*
X159500000Y-82500000D02*
X162500000Y-79500000D01*
%TO.N,GND*%
X144340000Y-82500000D02*
X149960000Y-76880000D01*
X149960000Y-76880000D02*
X149960000Y-76240000D01*
%TO.N,Net-(U1-P301_D7_SCL2_RXD2)*%
X137260000Y-76240000D02*
X137260000Y-79260000D01*
X137260000Y-79260000D02*
X140500000Y-82500000D01*
%TO.N,Net-(U2-RX)*%
X130517000Y-76350000D02*
X129540001Y-77326999D01*
X129540001Y-77326999D02*
X129540001Y-81700001D01*
X129540001Y-81700001D02*
X130340000Y-82500000D01*
%TO.N,Net-(U1-P302_D6_SDA2_TXD2)*%
X116920000Y-82500000D02*
X116920000Y-80346426D01*
X130121426Y-67145000D02*
X131115000Y-67145000D01*
X116920000Y-80346426D02*
X130121426Y-67145000D01*
X131115000Y-67145000D02*
X137260000Y-61000000D01*
%TO.N,Net-(U2-TX)*%
X127080000Y-82500000D02*
X127080000Y-77247000D01*
X127080000Y-77247000D02*
X130517000Y-73810000D01*
%TO.N,SPK2 -*%
X103000000Y-62500000D02*
X103206000Y-62294000D01*
X103206000Y-62294000D02*
X129333000Y-62294000D01*
X129333000Y-62294000D02*
X130517000Y-61110000D01*
%TO.N,SPK1 +*%
X103000000Y-65000000D02*
X105305000Y-62695000D01*
X105305000Y-62695000D02*
X127022000Y-62695000D01*
X127022000Y-62695000D02*
X130517000Y-66190000D01*
%TO.N,Net-(Battery1-Pin_1)*%
X103000000Y-77500000D02*
X103000000Y-78000000D01*
X103000000Y-78000000D02*
X108000000Y-83000000D01*
%TD*%
%TA.AperFunction,Conductor*%
%TO.N,GND*%
G36*
X161943039Y-58020185D02*
G01*
X161988794Y-58072989D01*
X162000000Y-58124500D01*
X162000000Y-63500000D01*
X168375500Y-63500000D01*
X168442539Y-63519685D01*
X168488294Y-63572489D01*
X168499500Y-63624000D01*
X168499500Y-84375500D01*
X168479815Y-84442539D01*
X168427011Y-84488294D01*
X168375500Y-84499500D01*
X108376425Y-84499500D01*
X108309386Y-84479815D01*
X108263631Y-84427011D01*
X108253687Y-84357853D01*
X108282712Y-84294297D01*
X108338106Y-84257569D01*
X108379586Y-84244091D01*
X108499219Y-84205220D01*
X108681610Y-84112287D01*
X108774590Y-84044732D01*
X108847213Y-83991971D01*
X108847215Y-83991968D01*
X108847219Y-83991966D01*
X108991966Y-83847219D01*
X108991968Y-83847215D01*
X108991971Y-83847213D01*
X109070144Y-83739615D01*
X109112287Y-83681610D01*
X109205220Y-83499219D01*
X109268477Y-83304534D01*
X109300500Y-83102352D01*
X109300500Y-82897648D01*
X109293516Y-82853553D01*
X109268477Y-82695465D01*
X109205218Y-82500776D01*
X109126154Y-82345606D01*
X109112287Y-82318390D01*
X109099095Y-82300233D01*
X108991971Y-82152786D01*
X108847213Y-82008028D01*
X108681613Y-81887715D01*
X108681612Y-81887714D01*
X108681610Y-81887713D01*
X108624653Y-81858691D01*
X108499223Y-81794781D01*
X108304534Y-81731522D01*
X108129995Y-81703878D01*
X108102352Y-81699500D01*
X107897648Y-81699500D01*
X107859599Y-81705526D01*
X107695468Y-81731522D01*
X107686717Y-81734365D01*
X107681154Y-81736173D01*
X107611313Y-81738167D01*
X107555157Y-81705922D01*
X104440721Y-78591486D01*
X104407236Y-78530163D01*
X104412220Y-78460471D01*
X104422861Y-78438711D01*
X104434814Y-78419334D01*
X104489999Y-78252797D01*
X104500500Y-78150009D01*
X104500499Y-76849992D01*
X104489999Y-76747203D01*
X104434814Y-76580666D01*
X104342712Y-76431344D01*
X104218656Y-76307288D01*
X104069334Y-76215186D01*
X104069332Y-76215185D01*
X104063440Y-76211551D01*
X104016716Y-76159603D01*
X104005493Y-76090641D01*
X104033337Y-76026558D01*
X104040856Y-76018330D01*
X104179728Y-75879458D01*
X104304620Y-75707557D01*
X104401095Y-75518217D01*
X104466757Y-75316129D01*
X104466757Y-75316126D01*
X104477231Y-75250000D01*
X103433012Y-75250000D01*
X103465925Y-75192993D01*
X103500000Y-75065826D01*
X103500000Y-74934174D01*
X103465925Y-74807007D01*
X103433012Y-74750000D01*
X104477231Y-74750000D01*
X104466757Y-74683873D01*
X104466757Y-74683870D01*
X104401095Y-74481782D01*
X104304620Y-74292442D01*
X104179727Y-74120540D01*
X104179723Y-74120535D01*
X104029464Y-73970276D01*
X104029459Y-73970272D01*
X103857557Y-73845379D01*
X103668217Y-73748904D01*
X103466129Y-73683242D01*
X103256246Y-73650000D01*
X103250000Y-73650000D01*
X103250000Y-74566988D01*
X103192993Y-74534075D01*
X103065826Y-74500000D01*
X102934174Y-74500000D01*
X102807007Y-74534075D01*
X102750000Y-74566988D01*
X102750000Y-73650000D01*
X102743754Y-73650000D01*
X102533872Y-73683242D01*
X102533869Y-73683242D01*
X102331782Y-73748904D01*
X102142442Y-73845379D01*
X101970540Y-73970272D01*
X101970535Y-73970276D01*
X101820276Y-74120535D01*
X101820272Y-74120540D01*
X101695379Y-74292442D01*
X101598904Y-74481782D01*
X101533242Y-74683870D01*
X101533242Y-74683873D01*
X101522769Y-74750000D01*
X102566988Y-74750000D01*
X102534075Y-74807007D01*
X102500000Y-74934174D01*
X102500000Y-75065826D01*
X102534075Y-75192993D01*
X102566988Y-75250000D01*
X101522769Y-75250000D01*
X101533242Y-75316126D01*
X101533242Y-75316129D01*
X101598904Y-75518217D01*
X101695379Y-75707557D01*
X101820272Y-75879459D01*
X101820276Y-75879464D01*
X101959143Y-76018331D01*
X101992628Y-76079654D01*
X101987644Y-76149346D01*
X101945772Y-76205279D01*
X101936559Y-76211551D01*
X101781342Y-76307289D01*
X101657289Y-76431342D01*
X101565187Y-76580663D01*
X101565185Y-76580668D01*
X101546041Y-76638442D01*
X101510001Y-76747203D01*
X101510001Y-76747204D01*
X101510000Y-76747204D01*
X101499500Y-76849983D01*
X101499500Y-78150001D01*
X101499501Y-78150018D01*
X101510000Y-78252796D01*
X101510001Y-78252799D01*
X101538897Y-78339999D01*
X101565186Y-78419334D01*
X101657288Y-78568656D01*
X101781344Y-78692712D01*
X101930666Y-78784814D01*
X102097203Y-78839999D01*
X102199991Y-78850500D01*
X102949902Y-78850499D01*
X103016941Y-78870183D01*
X103037583Y-78886818D01*
X105688584Y-81537819D01*
X105722069Y-81599142D01*
X105717085Y-81668834D01*
X105675213Y-81724767D01*
X105609749Y-81749184D01*
X105600903Y-81749500D01*
X104662129Y-81749500D01*
X104662123Y-81749501D01*
X104602516Y-81755908D01*
X104467671Y-81806202D01*
X104467664Y-81806206D01*
X104352455Y-81892452D01*
X104352452Y-81892455D01*
X104266206Y-82007664D01*
X104266202Y-82007671D01*
X104215908Y-82142516D01*
X104210176Y-82195834D01*
X104183438Y-82260385D01*
X104126045Y-82300233D01*
X104056220Y-82302726D01*
X103996131Y-82267073D01*
X103986569Y-82255463D01*
X103911971Y-82152786D01*
X103767213Y-82008028D01*
X103601613Y-81887715D01*
X103601612Y-81887714D01*
X103601610Y-81887713D01*
X103544653Y-81858691D01*
X103419223Y-81794781D01*
X103224534Y-81731522D01*
X103049995Y-81703878D01*
X103022352Y-81699500D01*
X102817648Y-81699500D01*
X102793329Y-81703351D01*
X102615465Y-81731522D01*
X102420776Y-81794781D01*
X102238386Y-81887715D01*
X102072786Y-82008028D01*
X101928028Y-82152786D01*
X101807715Y-82318386D01*
X101714781Y-82500776D01*
X101651522Y-82695465D01*
X101619500Y-82897648D01*
X101619500Y-83102351D01*
X101651522Y-83304534D01*
X101714781Y-83499223D01*
X101807715Y-83681613D01*
X101928028Y-83847213D01*
X102072786Y-83991971D01*
X102227749Y-84104556D01*
X102238390Y-84112287D01*
X102354607Y-84171503D01*
X102420776Y-84205218D01*
X102420778Y-84205218D01*
X102420781Y-84205220D01*
X102524881Y-84239044D01*
X102581894Y-84257569D01*
X102639569Y-84297007D01*
X102666767Y-84361366D01*
X102654852Y-84430212D01*
X102607608Y-84481688D01*
X102543575Y-84499500D01*
X97624500Y-84499500D01*
X97557461Y-84479815D01*
X97511706Y-84427011D01*
X97500500Y-84375500D01*
X97500500Y-62393713D01*
X101499500Y-62393713D01*
X101499500Y-62606286D01*
X101526145Y-62774520D01*
X101532754Y-62816243D01*
X101584391Y-62975166D01*
X101598444Y-63018414D01*
X101694951Y-63207820D01*
X101819890Y-63379786D01*
X101958705Y-63518601D01*
X101992190Y-63579924D01*
X101987206Y-63649616D01*
X101945334Y-63705549D01*
X101936121Y-63711821D01*
X101781342Y-63807289D01*
X101657289Y-63931342D01*
X101565187Y-64080663D01*
X101565186Y-64080666D01*
X101510001Y-64247203D01*
X101510001Y-64247204D01*
X101510000Y-64247204D01*
X101499500Y-64349983D01*
X101499500Y-65650001D01*
X101499501Y-65650018D01*
X101510000Y-65752796D01*
X101510001Y-65752799D01*
X101565185Y-65919331D01*
X101565187Y-65919336D01*
X101565380Y-65919649D01*
X101657288Y-66068656D01*
X101781344Y-66192712D01*
X101930666Y-66284814D01*
X102097203Y-66339999D01*
X102199991Y-66350500D01*
X103800008Y-66350499D01*
X103902797Y-66339999D01*
X104069334Y-66284814D01*
X104218656Y-66192712D01*
X104342712Y-66068656D01*
X104350549Y-66055948D01*
X104367068Y-66029170D01*
X104427805Y-65930697D01*
X104434814Y-65919334D01*
X104489999Y-65752797D01*
X104500500Y-65650009D01*
X104500499Y-64400095D01*
X104520184Y-64333057D01*
X104536813Y-64312420D01*
X105517416Y-63331819D01*
X105578739Y-63298334D01*
X105605097Y-63295500D01*
X111225578Y-63295500D01*
X111292617Y-63315185D01*
X111338372Y-63367989D01*
X111348316Y-63437147D01*
X111348051Y-63438898D01*
X111329000Y-63559179D01*
X111329000Y-63740821D01*
X111357415Y-63920225D01*
X111413548Y-64092984D01*
X111496012Y-64254830D01*
X111496014Y-64254834D01*
X111508048Y-64271395D01*
X111508048Y-64271396D01*
X112083000Y-63696444D01*
X112083000Y-63702661D01*
X112110259Y-63804394D01*
X112162920Y-63895606D01*
X112237394Y-63970080D01*
X112328606Y-64022741D01*
X112430339Y-64050000D01*
X112436554Y-64050000D01*
X111861602Y-64624949D01*
X111861603Y-64624950D01*
X111878165Y-64636985D01*
X111878179Y-64636993D01*
X112040012Y-64719450D01*
X112212774Y-64775584D01*
X112212775Y-64775585D01*
X112349711Y-64797273D01*
X112412846Y-64827202D01*
X112449778Y-64886513D01*
X112448780Y-64956376D01*
X112410171Y-65014609D01*
X112349713Y-65042219D01*
X112212650Y-65063928D01*
X112212649Y-65063928D01*
X112039828Y-65120081D01*
X112039825Y-65120083D01*
X111877909Y-65202583D01*
X111794030Y-65263525D01*
X111730894Y-65309397D01*
X111730892Y-65309399D01*
X111730891Y-65309399D01*
X111602399Y-65437891D01*
X111602399Y-65437892D01*
X111602397Y-65437894D01*
X111556525Y-65501030D01*
X111495583Y-65584909D01*
X111413083Y-65746825D01*
X111413081Y-65746828D01*
X111356928Y-65919649D01*
X111356928Y-65919652D01*
X111328500Y-66099139D01*
X111328500Y-66280860D01*
X111356928Y-66460347D01*
X111356928Y-66460350D01*
X111413081Y-66633171D01*
X111413083Y-66633174D01*
X111495583Y-66795090D01*
X111602397Y-66942106D01*
X111730894Y-67070603D01*
X111877910Y-67177417D01*
X112039826Y-67259917D01*
X112039828Y-67259918D01*
X112201029Y-67312294D01*
X112212654Y-67316072D01*
X112348114Y-67337527D01*
X112411249Y-67367456D01*
X112448180Y-67426768D01*
X112447182Y-67496630D01*
X112408572Y-67554863D01*
X112348114Y-67582473D01*
X112212652Y-67603928D01*
X112212649Y-67603928D01*
X112039828Y-67660081D01*
X112039825Y-67660083D01*
X111877909Y-67742583D01*
X111794030Y-67803525D01*
X111730894Y-67849397D01*
X111730892Y-67849399D01*
X111730891Y-67849399D01*
X111602399Y-67977891D01*
X111602399Y-67977892D01*
X111602397Y-67977894D01*
X111556525Y-68041030D01*
X111495583Y-68124909D01*
X111413083Y-68286825D01*
X111413081Y-68286828D01*
X111356928Y-68459649D01*
X111356928Y-68459652D01*
X111328500Y-68639139D01*
X111328500Y-68820860D01*
X111356928Y-69000347D01*
X111356928Y-69000350D01*
X111413081Y-69173171D01*
X111413083Y-69173174D01*
X111495583Y-69335090D01*
X111602397Y-69482106D01*
X111730894Y-69610603D01*
X111877910Y-69717417D01*
X112039826Y-69799917D01*
X112039828Y-69799918D01*
X112201029Y-69852294D01*
X112212654Y-69856072D01*
X112348114Y-69877527D01*
X112411249Y-69907456D01*
X112448180Y-69966768D01*
X112447182Y-70036630D01*
X112408572Y-70094863D01*
X112348114Y-70122473D01*
X112212652Y-70143928D01*
X112212649Y-70143928D01*
X112039828Y-70200081D01*
X112039825Y-70200083D01*
X111877909Y-70282583D01*
X111794030Y-70343525D01*
X111730894Y-70389397D01*
X111730892Y-70389399D01*
X111730891Y-70389399D01*
X111602399Y-70517891D01*
X111602399Y-70517892D01*
X111602397Y-70517894D01*
X111556525Y-70581030D01*
X111495583Y-70664909D01*
X111413083Y-70826825D01*
X111413081Y-70826828D01*
X111356928Y-70999649D01*
X111356928Y-70999652D01*
X111328500Y-71179139D01*
X111328500Y-71360860D01*
X111356928Y-71540347D01*
X111356928Y-71540350D01*
X111413081Y-71713171D01*
X111413083Y-71713174D01*
X111495583Y-71875090D01*
X111602397Y-72022106D01*
X111730894Y-72150603D01*
X111877910Y-72257417D01*
X112039826Y-72339917D01*
X112039828Y-72339918D01*
X112201029Y-72392294D01*
X112212654Y-72396072D01*
X112348114Y-72417527D01*
X112411249Y-72447456D01*
X112448180Y-72506768D01*
X112447182Y-72576630D01*
X112408572Y-72634863D01*
X112348114Y-72662473D01*
X112212652Y-72683928D01*
X112212649Y-72683928D01*
X112039828Y-72740081D01*
X112039825Y-72740083D01*
X111877909Y-72822583D01*
X111794030Y-72883525D01*
X111730894Y-72929397D01*
X111730892Y-72929399D01*
X111730891Y-72929399D01*
X111602399Y-73057891D01*
X111602399Y-73057892D01*
X111602397Y-73057894D01*
X111556525Y-73121030D01*
X111495583Y-73204909D01*
X111413083Y-73366825D01*
X111413081Y-73366828D01*
X111356928Y-73539649D01*
X111356928Y-73539652D01*
X111328500Y-73719139D01*
X111328500Y-73900860D01*
X111356928Y-74080347D01*
X111356928Y-74080350D01*
X111413081Y-74253171D01*
X111413083Y-74253174D01*
X111495583Y-74415090D01*
X111602397Y-74562106D01*
X111730894Y-74690603D01*
X111877910Y-74797417D01*
X112039826Y-74879917D01*
X112039828Y-74879918D01*
X112189014Y-74928391D01*
X112212654Y-74936072D01*
X112348114Y-74957527D01*
X112411249Y-74987456D01*
X112448180Y-75046768D01*
X112447182Y-75116630D01*
X112408572Y-75174863D01*
X112348114Y-75202473D01*
X112212652Y-75223928D01*
X112212649Y-75223928D01*
X112039828Y-75280081D01*
X112039825Y-75280083D01*
X111877909Y-75362583D01*
X111826274Y-75400099D01*
X111730894Y-75469397D01*
X111730892Y-75469399D01*
X111730891Y-75469399D01*
X111602399Y-75597891D01*
X111602399Y-75597892D01*
X111602397Y-75597894D01*
X111573045Y-75638294D01*
X111495583Y-75744909D01*
X111413083Y-75906825D01*
X111413081Y-75906828D01*
X111356928Y-76079649D01*
X111356928Y-76079652D01*
X111328500Y-76259139D01*
X111328500Y-76440860D01*
X111356928Y-76620347D01*
X111356928Y-76620350D01*
X111413081Y-76793171D01*
X111413083Y-76793174D01*
X111495583Y-76955090D01*
X111602397Y-77102106D01*
X111730894Y-77230603D01*
X111877910Y-77337417D01*
X112039826Y-77419917D01*
X112039828Y-77419918D01*
X112161389Y-77459415D01*
X112212654Y-77476072D01*
X112336800Y-77495735D01*
X112348114Y-77497527D01*
X112411249Y-77527456D01*
X112448180Y-77586768D01*
X112447182Y-77656630D01*
X112408572Y-77714863D01*
X112348114Y-77742473D01*
X112212652Y-77763928D01*
X112212649Y-77763928D01*
X112039828Y-77820081D01*
X112039825Y-77820083D01*
X111877909Y-77902583D01*
X111835673Y-77933270D01*
X111730894Y-78009397D01*
X111730892Y-78009399D01*
X111730891Y-78009399D01*
X111602399Y-78137891D01*
X111602399Y-78137892D01*
X111602397Y-78137894D01*
X111565903Y-78188123D01*
X111495583Y-78284909D01*
X111413083Y-78446825D01*
X111413081Y-78446828D01*
X111356928Y-78619649D01*
X111356928Y-78619652D01*
X111328500Y-78799139D01*
X111328500Y-78980860D01*
X111356928Y-79160347D01*
X111356928Y-79160350D01*
X111413081Y-79333171D01*
X111413083Y-79333174D01*
X111495583Y-79495090D01*
X111602397Y-79642106D01*
X111730894Y-79770603D01*
X111877910Y-79877417D01*
X112039826Y-79959917D01*
X112039828Y-79959918D01*
X112125629Y-79987796D01*
X112212654Y-80016072D01*
X112392139Y-80044500D01*
X112392140Y-80044500D01*
X112573860Y-80044500D01*
X112573861Y-80044500D01*
X112753346Y-80016072D01*
X112753349Y-80016071D01*
X112753350Y-80016071D01*
X112926171Y-79959918D01*
X112926171Y-79959917D01*
X112926174Y-79959917D01*
X113088090Y-79877417D01*
X113235106Y-79770603D01*
X113363603Y-79642106D01*
X113470417Y-79495090D01*
X113552917Y-79333174D01*
X113552918Y-79333171D01*
X113609071Y-79160350D01*
X113609071Y-79160349D01*
X113609072Y-79160346D01*
X113637500Y-78980861D01*
X113637500Y-78799139D01*
X113609072Y-78619654D01*
X113609071Y-78619650D01*
X113609071Y-78619649D01*
X113552918Y-78446828D01*
X113552916Y-78446825D01*
X113550434Y-78441952D01*
X113470417Y-78284910D01*
X113363603Y-78137894D01*
X113235106Y-78009397D01*
X113088090Y-77902583D01*
X112926174Y-77820083D01*
X112926171Y-77820081D01*
X112753349Y-77763928D01*
X112657008Y-77748669D01*
X112617884Y-77742472D01*
X112554750Y-77712544D01*
X112517819Y-77653232D01*
X112518817Y-77583370D01*
X112557427Y-77525137D01*
X112617884Y-77497527D01*
X112753346Y-77476072D01*
X112753349Y-77476071D01*
X112753350Y-77476071D01*
X112926171Y-77419918D01*
X112926171Y-77419917D01*
X112926174Y-77419917D01*
X113088090Y-77337417D01*
X113235106Y-77230603D01*
X113363603Y-77102106D01*
X113470417Y-76955090D01*
X113552917Y-76793174D01*
X113561591Y-76766478D01*
X113609071Y-76620350D01*
X113609071Y-76620349D01*
X113609072Y-76620346D01*
X113637500Y-76440861D01*
X113637500Y-76259139D01*
X113609072Y-76079654D01*
X113609071Y-76079650D01*
X113609071Y-76079649D01*
X113552918Y-75906828D01*
X113552916Y-75906825D01*
X113542533Y-75886446D01*
X113470417Y-75744910D01*
X113363603Y-75597894D01*
X113235106Y-75469397D01*
X113088090Y-75362583D01*
X112926174Y-75280083D01*
X112926171Y-75280081D01*
X112753349Y-75223928D01*
X112657008Y-75208669D01*
X112617884Y-75202472D01*
X112554750Y-75172544D01*
X112517819Y-75113232D01*
X112518817Y-75043370D01*
X112557427Y-74985137D01*
X112617884Y-74957527D01*
X112753346Y-74936072D01*
X112753349Y-74936071D01*
X112753350Y-74936071D01*
X112926171Y-74879918D01*
X112926171Y-74879917D01*
X112926174Y-74879917D01*
X113088090Y-74797417D01*
X113235106Y-74690603D01*
X113363603Y-74562106D01*
X113470417Y-74415090D01*
X113552917Y-74253174D01*
X113605013Y-74092839D01*
X113609071Y-74080350D01*
X113609071Y-74080349D01*
X113609072Y-74080346D01*
X113637500Y-73900861D01*
X113637500Y-73719139D01*
X113609072Y-73539654D01*
X113609071Y-73539650D01*
X113609071Y-73539649D01*
X113552918Y-73366828D01*
X113552916Y-73366825D01*
X113470416Y-73204909D01*
X113363603Y-73057894D01*
X113235106Y-72929397D01*
X113088090Y-72822583D01*
X112926174Y-72740083D01*
X112926171Y-72740081D01*
X112753349Y-72683928D01*
X112657008Y-72668669D01*
X112617884Y-72662472D01*
X112554750Y-72632544D01*
X112517819Y-72573232D01*
X112518817Y-72503370D01*
X112557427Y-72445137D01*
X112617884Y-72417527D01*
X112753346Y-72396072D01*
X112753349Y-72396071D01*
X112753350Y-72396071D01*
X112926171Y-72339918D01*
X112926171Y-72339917D01*
X112926174Y-72339917D01*
X113088090Y-72257417D01*
X113235106Y-72150603D01*
X113363603Y-72022106D01*
X113470417Y-71875090D01*
X113552917Y-71713174D01*
X113609072Y-71540346D01*
X113637500Y-71360861D01*
X113637500Y-71179139D01*
X113609072Y-70999654D01*
X113609071Y-70999650D01*
X113609071Y-70999649D01*
X113552918Y-70826828D01*
X113552916Y-70826825D01*
X113470416Y-70664909D01*
X113363603Y-70517894D01*
X113235106Y-70389397D01*
X113088090Y-70282583D01*
X112926174Y-70200083D01*
X112926171Y-70200081D01*
X112753349Y-70143928D01*
X112657008Y-70128669D01*
X112617884Y-70122472D01*
X112554750Y-70092544D01*
X112517819Y-70033232D01*
X112518817Y-69963370D01*
X112557427Y-69905137D01*
X112617884Y-69877527D01*
X112753346Y-69856072D01*
X112753349Y-69856071D01*
X112753350Y-69856071D01*
X112926171Y-69799918D01*
X112926171Y-69799917D01*
X112926174Y-69799917D01*
X113088090Y-69717417D01*
X113235106Y-69610603D01*
X113363603Y-69482106D01*
X113470417Y-69335090D01*
X113552917Y-69173174D01*
X113609072Y-69000346D01*
X113637500Y-68820861D01*
X113637500Y-68639139D01*
X113609072Y-68459654D01*
X113609071Y-68459650D01*
X113609071Y-68459649D01*
X113552918Y-68286828D01*
X113552916Y-68286825D01*
X113470416Y-68124909D01*
X113363603Y-67977894D01*
X113235106Y-67849397D01*
X113088090Y-67742583D01*
X112926174Y-67660083D01*
X112926171Y-67660081D01*
X112753349Y-67603928D01*
X112657008Y-67588669D01*
X112617884Y-67582472D01*
X112554750Y-67552544D01*
X112517819Y-67493232D01*
X112518817Y-67423370D01*
X112557427Y-67365137D01*
X112617884Y-67337527D01*
X112753346Y-67316072D01*
X112753349Y-67316071D01*
X112753350Y-67316071D01*
X112926171Y-67259918D01*
X112926171Y-67259917D01*
X112926174Y-67259917D01*
X113088090Y-67177417D01*
X113235106Y-67070603D01*
X113363603Y-66942106D01*
X113470417Y-66795090D01*
X113552917Y-66633174D01*
X113609072Y-66460346D01*
X113637500Y-66280861D01*
X113637500Y-66099139D01*
X113609072Y-65919654D01*
X113609071Y-65919650D01*
X113609071Y-65919649D01*
X113552918Y-65746828D01*
X113552916Y-65746825D01*
X113534485Y-65710651D01*
X113470417Y-65584910D01*
X113363603Y-65437894D01*
X113235106Y-65309397D01*
X113088090Y-65202583D01*
X112926174Y-65120083D01*
X112926171Y-65120081D01*
X112753349Y-65063928D01*
X112616286Y-65042219D01*
X112553152Y-65012289D01*
X112516221Y-64952978D01*
X112517219Y-64883115D01*
X112555829Y-64824883D01*
X112616288Y-64797273D01*
X112753224Y-64775585D01*
X112753225Y-64775584D01*
X112925984Y-64719451D01*
X113087831Y-64636986D01*
X113104396Y-64624949D01*
X112529447Y-64050000D01*
X112535661Y-64050000D01*
X112637394Y-64022741D01*
X112728606Y-63970080D01*
X112803080Y-63895606D01*
X112855741Y-63804394D01*
X112883000Y-63702661D01*
X112883000Y-63696446D01*
X113457949Y-64271395D01*
X113469986Y-64254831D01*
X113552451Y-64092984D01*
X113608584Y-63920225D01*
X113637000Y-63740821D01*
X113637000Y-63559179D01*
X113617949Y-63438898D01*
X113626903Y-63369605D01*
X113671900Y-63316153D01*
X113738651Y-63295513D01*
X113740422Y-63295500D01*
X126721903Y-63295500D01*
X126788942Y-63315185D01*
X126809584Y-63331819D01*
X129347139Y-65869374D01*
X129380624Y-65930697D01*
X129381931Y-65976452D01*
X129362500Y-66099138D01*
X129362500Y-66280860D01*
X129390928Y-66460347D01*
X129390928Y-66460350D01*
X129447081Y-66633171D01*
X129447085Y-66633179D01*
X129519910Y-66776108D01*
X129532806Y-66844777D01*
X129506529Y-66909517D01*
X129497106Y-66920083D01*
X116551286Y-79865904D01*
X116439481Y-79977708D01*
X116439475Y-79977716D01*
X116400920Y-80044497D01*
X116400920Y-80044499D01*
X116360423Y-80114640D01*
X116360423Y-80114641D01*
X116319499Y-80267369D01*
X116319499Y-80267371D01*
X116319499Y-80435472D01*
X116319500Y-80435485D01*
X116319500Y-81270397D01*
X116299815Y-81337436D01*
X116251800Y-81380879D01*
X116238389Y-81387712D01*
X116072786Y-81508028D01*
X115928028Y-81652786D01*
X115807715Y-81818386D01*
X115714781Y-82000776D01*
X115651522Y-82195465D01*
X115619500Y-82397648D01*
X115619500Y-82602351D01*
X115651522Y-82804534D01*
X115714781Y-82999223D01*
X115766385Y-83100500D01*
X115807585Y-83181359D01*
X115807715Y-83181613D01*
X115928028Y-83347213D01*
X116072786Y-83491971D01*
X116193226Y-83579474D01*
X116238390Y-83612287D01*
X116354607Y-83671503D01*
X116420776Y-83705218D01*
X116420778Y-83705218D01*
X116420781Y-83705220D01*
X116506048Y-83732925D01*
X116615465Y-83768477D01*
X116716557Y-83784488D01*
X116817648Y-83800500D01*
X116817649Y-83800500D01*
X117022351Y-83800500D01*
X117022352Y-83800500D01*
X117224534Y-83768477D01*
X117419219Y-83705220D01*
X117601610Y-83612287D01*
X117757231Y-83499223D01*
X117767213Y-83491971D01*
X117767215Y-83491968D01*
X117767219Y-83491966D01*
X117911966Y-83347219D01*
X117911968Y-83347215D01*
X117911971Y-83347213D01*
X117964732Y-83274590D01*
X118032287Y-83181610D01*
X118125220Y-82999219D01*
X118188477Y-82804534D01*
X118220500Y-82602352D01*
X118220500Y-82397648D01*
X118197980Y-82255463D01*
X118188477Y-82195465D01*
X118142888Y-82055157D01*
X118125220Y-82000781D01*
X118125218Y-82000778D01*
X118125218Y-82000776D01*
X118090065Y-81931785D01*
X118032287Y-81818390D01*
X118015134Y-81794781D01*
X117911971Y-81652786D01*
X117767213Y-81508028D01*
X117601610Y-81387712D01*
X117588200Y-81380879D01*
X117537406Y-81332903D01*
X117520500Y-81270397D01*
X117520500Y-80646523D01*
X117540185Y-80579484D01*
X117556819Y-80558842D01*
X123365661Y-74750000D01*
X129181161Y-68934499D01*
X129242482Y-68901016D01*
X129312174Y-68906000D01*
X129368107Y-68947872D01*
X129388433Y-68995944D01*
X129389793Y-68995618D01*
X129390928Y-69000350D01*
X129447081Y-69173171D01*
X129447083Y-69173174D01*
X129529583Y-69335090D01*
X129636397Y-69482106D01*
X129764894Y-69610603D01*
X129911910Y-69717417D01*
X130073826Y-69799917D01*
X130073828Y-69799918D01*
X130235029Y-69852294D01*
X130246654Y-69856072D01*
X130382114Y-69877527D01*
X130445249Y-69907456D01*
X130482180Y-69966768D01*
X130481182Y-70036630D01*
X130442572Y-70094863D01*
X130382114Y-70122473D01*
X130246652Y-70143928D01*
X130246649Y-70143928D01*
X130073828Y-70200081D01*
X130073825Y-70200083D01*
X129911909Y-70282583D01*
X129828030Y-70343525D01*
X129764894Y-70389397D01*
X129764892Y-70389399D01*
X129764891Y-70389399D01*
X129636399Y-70517891D01*
X129636399Y-70517892D01*
X129636397Y-70517894D01*
X129590525Y-70581030D01*
X129529583Y-70664909D01*
X129447083Y-70826825D01*
X129447081Y-70826828D01*
X129390928Y-70999649D01*
X129390928Y-70999652D01*
X129362500Y-71179139D01*
X129362500Y-71360860D01*
X129390928Y-71540347D01*
X129390928Y-71540350D01*
X129447081Y-71713171D01*
X129447083Y-71713174D01*
X129529583Y-71875090D01*
X129636397Y-72022106D01*
X129764894Y-72150603D01*
X129911910Y-72257417D01*
X130073826Y-72339917D01*
X130073828Y-72339918D01*
X130235029Y-72392294D01*
X130246654Y-72396072D01*
X130382114Y-72417527D01*
X130445249Y-72447456D01*
X130482180Y-72506768D01*
X130481182Y-72576630D01*
X130442572Y-72634863D01*
X130382114Y-72662473D01*
X130246652Y-72683928D01*
X130246649Y-72683928D01*
X130073828Y-72740081D01*
X130073825Y-72740083D01*
X129911909Y-72822583D01*
X129828030Y-72883525D01*
X129764894Y-72929397D01*
X129764892Y-72929399D01*
X129764891Y-72929399D01*
X129636399Y-73057891D01*
X129636399Y-73057892D01*
X129636397Y-73057894D01*
X129590525Y-73121030D01*
X129529583Y-73204909D01*
X129447083Y-73366825D01*
X129447081Y-73366828D01*
X129390928Y-73539649D01*
X129390928Y-73539652D01*
X129362500Y-73719139D01*
X129362500Y-73900860D01*
X129381931Y-74023545D01*
X129372976Y-74092839D01*
X129347139Y-74130624D01*
X126711286Y-76766478D01*
X126599481Y-76878282D01*
X126599480Y-76878284D01*
X126553295Y-76958281D01*
X126553294Y-76958282D01*
X126553292Y-76958284D01*
X126520425Y-77015209D01*
X126520424Y-77015210D01*
X126520423Y-77015215D01*
X126479499Y-77167943D01*
X126479499Y-77167945D01*
X126479499Y-77336046D01*
X126479500Y-77336059D01*
X126479500Y-81270397D01*
X126459815Y-81337436D01*
X126411800Y-81380879D01*
X126398389Y-81387712D01*
X126232786Y-81508028D01*
X126088028Y-81652786D01*
X125967715Y-81818386D01*
X125874781Y-82000776D01*
X125811522Y-82195465D01*
X125779500Y-82397648D01*
X125779500Y-82602351D01*
X125811522Y-82804534D01*
X125874781Y-82999223D01*
X125926385Y-83100500D01*
X125967585Y-83181359D01*
X125967715Y-83181613D01*
X126088028Y-83347213D01*
X126232786Y-83491971D01*
X126353226Y-83579474D01*
X126398390Y-83612287D01*
X126514607Y-83671503D01*
X126580776Y-83705218D01*
X126580778Y-83705218D01*
X126580781Y-83705220D01*
X126666048Y-83732925D01*
X126775465Y-83768477D01*
X126876557Y-83784488D01*
X126977648Y-83800500D01*
X126977649Y-83800500D01*
X127182351Y-83800500D01*
X127182352Y-83800500D01*
X127384534Y-83768477D01*
X127579219Y-83705220D01*
X127761610Y-83612287D01*
X127917231Y-83499223D01*
X127927213Y-83491971D01*
X127927215Y-83491968D01*
X127927219Y-83491966D01*
X128071966Y-83347219D01*
X128071968Y-83347215D01*
X128071971Y-83347213D01*
X128124732Y-83274590D01*
X128192287Y-83181610D01*
X128285220Y-82999219D01*
X128348477Y-82804534D01*
X128380500Y-82602352D01*
X128380500Y-82397648D01*
X128357980Y-82255463D01*
X128348477Y-82195465D01*
X128302888Y-82055157D01*
X128285220Y-82000781D01*
X128285218Y-82000778D01*
X128285218Y-82000776D01*
X128250065Y-81931785D01*
X128192287Y-81818390D01*
X128175134Y-81794781D01*
X128071971Y-81652786D01*
X127927213Y-81508028D01*
X127761610Y-81387712D01*
X127748200Y-81380879D01*
X127697406Y-81332903D01*
X127680500Y-81270397D01*
X127680500Y-77547096D01*
X127700185Y-77480057D01*
X127716814Y-77459420D01*
X129176469Y-75999765D01*
X129237789Y-75966282D01*
X129307481Y-75971266D01*
X129363414Y-76013138D01*
X129387831Y-76078602D01*
X129386620Y-76106845D01*
X129362500Y-76259138D01*
X129362500Y-76440860D01*
X129381931Y-76563545D01*
X129381229Y-76568970D01*
X129383142Y-76574097D01*
X129376799Y-76603252D01*
X129372976Y-76632839D01*
X129369144Y-76638442D01*
X129368290Y-76642370D01*
X129347139Y-76670624D01*
X129171287Y-76846477D01*
X129059482Y-76958281D01*
X129059476Y-76958289D01*
X129020335Y-77026085D01*
X129020335Y-77026086D01*
X128980424Y-77095214D01*
X128939500Y-77247942D01*
X128939500Y-77247944D01*
X128939500Y-77416045D01*
X128939501Y-77416058D01*
X128939501Y-81613331D01*
X128939500Y-81613349D01*
X128939500Y-81779055D01*
X128939499Y-81779055D01*
X128939500Y-81779058D01*
X128980424Y-81931786D01*
X128985411Y-81940423D01*
X129059481Y-82068717D01*
X129060917Y-82070153D01*
X129065950Y-82078800D01*
X129072489Y-82105349D01*
X129082352Y-82130864D01*
X129081206Y-82140741D01*
X129082660Y-82146642D01*
X129079426Y-82156092D01*
X129076713Y-82179490D01*
X129071523Y-82195464D01*
X129039500Y-82397648D01*
X129039500Y-82602351D01*
X129071522Y-82804534D01*
X129134781Y-82999223D01*
X129186385Y-83100500D01*
X129227585Y-83181359D01*
X129227715Y-83181613D01*
X129348028Y-83347213D01*
X129492786Y-83491971D01*
X129613226Y-83579474D01*
X129658390Y-83612287D01*
X129774607Y-83671503D01*
X129840776Y-83705218D01*
X129840778Y-83705218D01*
X129840781Y-83705220D01*
X129926048Y-83732925D01*
X130035465Y-83768477D01*
X130136557Y-83784488D01*
X130237648Y-83800500D01*
X130237649Y-83800500D01*
X130442351Y-83800500D01*
X130442352Y-83800500D01*
X130644534Y-83768477D01*
X130839219Y-83705220D01*
X131021610Y-83612287D01*
X131177231Y-83499223D01*
X131187213Y-83491971D01*
X131187215Y-83491968D01*
X131187219Y-83491966D01*
X131331966Y-83347219D01*
X131331968Y-83347215D01*
X131331971Y-83347213D01*
X131384732Y-83274590D01*
X131452287Y-83181610D01*
X131545220Y-82999219D01*
X131608477Y-82804534D01*
X131640500Y-82602352D01*
X131640500Y-82397648D01*
X131617980Y-82255463D01*
X131608477Y-82195465D01*
X131562888Y-82055157D01*
X131545220Y-82000781D01*
X131545218Y-82000778D01*
X131545218Y-82000776D01*
X131510065Y-81931785D01*
X131452287Y-81818390D01*
X131435134Y-81794781D01*
X131331971Y-81652786D01*
X131187213Y-81508028D01*
X131021613Y-81387715D01*
X131021612Y-81387714D01*
X131021610Y-81387713D01*
X130964653Y-81358691D01*
X130839223Y-81294781D01*
X130644534Y-81231522D01*
X130469995Y-81203878D01*
X130442352Y-81199500D01*
X130264501Y-81199500D01*
X130197462Y-81179815D01*
X130151707Y-81127011D01*
X130140501Y-81075500D01*
X130140501Y-80168499D01*
X130160186Y-80101460D01*
X130212990Y-80055705D01*
X130264501Y-80044499D01*
X131218871Y-80044499D01*
X131218872Y-80044499D01*
X131278483Y-80038091D01*
X131413331Y-79987796D01*
X131528546Y-79901546D01*
X131614796Y-79786331D01*
X131665091Y-79651483D01*
X131671500Y-79591873D01*
X131671499Y-78188128D01*
X131665091Y-78128517D01*
X131659060Y-78112348D01*
X131614797Y-77993671D01*
X131614793Y-77993664D01*
X131528547Y-77878455D01*
X131528544Y-77878452D01*
X131413335Y-77792206D01*
X131413328Y-77792202D01*
X131278482Y-77741908D01*
X131278483Y-77741908D01*
X131218883Y-77735501D01*
X131218881Y-77735500D01*
X131218873Y-77735500D01*
X131218865Y-77735500D01*
X130724950Y-77735500D01*
X130657911Y-77715815D01*
X130612156Y-77663011D01*
X130602212Y-77593853D01*
X130631237Y-77530297D01*
X130690015Y-77492523D01*
X130705552Y-77489027D01*
X130787346Y-77476072D01*
X130787349Y-77476071D01*
X130787350Y-77476071D01*
X130960171Y-77419918D01*
X130960171Y-77419917D01*
X130960174Y-77419917D01*
X131122090Y-77337417D01*
X131269106Y-77230603D01*
X131397603Y-77102106D01*
X131504417Y-76955090D01*
X131586917Y-76793174D01*
X131595591Y-76766478D01*
X131643071Y-76620350D01*
X131643071Y-76620349D01*
X131643072Y-76620346D01*
X131671500Y-76440861D01*
X131671500Y-76259139D01*
X131643072Y-76079654D01*
X131643071Y-76079650D01*
X131643071Y-76079649D01*
X131586918Y-75906828D01*
X131586916Y-75906825D01*
X131576533Y-75886446D01*
X131504417Y-75744910D01*
X131397603Y-75597894D01*
X131269106Y-75469397D01*
X131122090Y-75362583D01*
X130960174Y-75280083D01*
X130960171Y-75280081D01*
X130787349Y-75223928D01*
X130691008Y-75208669D01*
X130651884Y-75202472D01*
X130588750Y-75172544D01*
X130551819Y-75113232D01*
X130552817Y-75043370D01*
X130591427Y-74985137D01*
X130651884Y-74957527D01*
X130787346Y-74936072D01*
X130787349Y-74936071D01*
X130787350Y-74936071D01*
X130960171Y-74879918D01*
X130960171Y-74879917D01*
X130960174Y-74879917D01*
X131122090Y-74797417D01*
X131269106Y-74690603D01*
X131397603Y-74562106D01*
X131504417Y-74415090D01*
X131586917Y-74253174D01*
X131639013Y-74092839D01*
X131643071Y-74080350D01*
X131643071Y-74080349D01*
X131643072Y-74080346D01*
X131671500Y-73900861D01*
X131671500Y-73719139D01*
X131643072Y-73539654D01*
X131643071Y-73539650D01*
X131643071Y-73539649D01*
X131586918Y-73366828D01*
X131586916Y-73366825D01*
X131504416Y-73204909D01*
X131397603Y-73057894D01*
X131269106Y-72929397D01*
X131122090Y-72822583D01*
X130960174Y-72740083D01*
X130960171Y-72740081D01*
X130787349Y-72683928D01*
X130691008Y-72668669D01*
X130651884Y-72662472D01*
X130588750Y-72632544D01*
X130551819Y-72573232D01*
X130552817Y-72503370D01*
X130591427Y-72445137D01*
X130651884Y-72417527D01*
X130787346Y-72396072D01*
X130787349Y-72396071D01*
X130787350Y-72396071D01*
X130960171Y-72339918D01*
X130960171Y-72339917D01*
X130960174Y-72339917D01*
X131122090Y-72257417D01*
X131269106Y-72150603D01*
X131397603Y-72022106D01*
X131504417Y-71875090D01*
X131586917Y-71713174D01*
X131643072Y-71540346D01*
X131671500Y-71360861D01*
X131671500Y-71179139D01*
X131643072Y-70999654D01*
X131643071Y-70999650D01*
X131643071Y-70999649D01*
X131586918Y-70826828D01*
X131586916Y-70826825D01*
X131504416Y-70664909D01*
X131397603Y-70517894D01*
X131269106Y-70389397D01*
X131122090Y-70282583D01*
X130960174Y-70200083D01*
X130960171Y-70200081D01*
X130787349Y-70143928D01*
X130691008Y-70128669D01*
X130651884Y-70122472D01*
X130588750Y-70092544D01*
X130551819Y-70033232D01*
X130552817Y-69963370D01*
X130591427Y-69905137D01*
X130651884Y-69877527D01*
X130787346Y-69856072D01*
X130787349Y-69856071D01*
X130787350Y-69856071D01*
X130960171Y-69799918D01*
X130960171Y-69799917D01*
X130960174Y-69799917D01*
X131122090Y-69717417D01*
X131269106Y-69610603D01*
X131397603Y-69482106D01*
X131504417Y-69335090D01*
X131586917Y-69173174D01*
X131643072Y-69000346D01*
X131671500Y-68820861D01*
X131671500Y-68639139D01*
X131643072Y-68459654D01*
X131643071Y-68459650D01*
X131643071Y-68459649D01*
X131586918Y-68286828D01*
X131586916Y-68286825D01*
X131504416Y-68124909D01*
X131397603Y-67977894D01*
X131319994Y-67900285D01*
X131308013Y-67878344D01*
X131292558Y-67858692D01*
X131291556Y-67848205D01*
X131286509Y-67838962D01*
X131288292Y-67814028D01*
X131285915Y-67789139D01*
X131290741Y-67779776D01*
X131291493Y-67769270D01*
X131306476Y-67749255D01*
X131317931Y-67727036D01*
X131330523Y-67717132D01*
X131333365Y-67713337D01*
X131345673Y-67705218D01*
X131346781Y-67704577D01*
X131346785Y-67704577D01*
X131396904Y-67675639D01*
X131483716Y-67625520D01*
X131595520Y-67513716D01*
X131595520Y-67513714D01*
X131605728Y-67503507D01*
X131605730Y-67503504D01*
X136845473Y-62263760D01*
X136906794Y-62230277D01*
X136959521Y-62230841D01*
X136959552Y-62230651D01*
X136960843Y-62230855D01*
X136962099Y-62230869D01*
X136964352Y-62231409D01*
X136964364Y-62231413D01*
X137160639Y-62262500D01*
X137160640Y-62262500D01*
X137345193Y-62262500D01*
X137412232Y-62282185D01*
X137457987Y-62334989D01*
X137467931Y-62404147D01*
X137452581Y-62448497D01*
X137438552Y-62472797D01*
X137403208Y-62534013D01*
X137369100Y-62661308D01*
X137369100Y-74527891D01*
X137403208Y-74655187D01*
X137419770Y-74683873D01*
X137469100Y-74769314D01*
X137469102Y-74769316D01*
X137474047Y-74775760D01*
X137472453Y-74776982D01*
X137500747Y-74828799D01*
X137495763Y-74898491D01*
X137453891Y-74954424D01*
X137388427Y-74978841D01*
X137364218Y-74977803D01*
X137364212Y-74977882D01*
X137362021Y-74977709D01*
X137360190Y-74977631D01*
X137359363Y-74977500D01*
X137359361Y-74977500D01*
X137160639Y-74977500D01*
X137095214Y-74987862D01*
X136964362Y-75008587D01*
X136775370Y-75069993D01*
X136775367Y-75069994D01*
X136598305Y-75160213D01*
X136437533Y-75277021D01*
X136297018Y-75417536D01*
X136239239Y-75497061D01*
X136226604Y-75511854D01*
X136130413Y-75608046D01*
X136130405Y-75608056D01*
X136046435Y-75750042D01*
X136046434Y-75750045D01*
X136000413Y-75908447D01*
X136000412Y-75908453D01*
X135997500Y-75945458D01*
X135997500Y-78104541D01*
X136000412Y-78141546D01*
X136000413Y-78141552D01*
X136046434Y-78299954D01*
X136046435Y-78299957D01*
X136130405Y-78441943D01*
X136130412Y-78441952D01*
X136247047Y-78558587D01*
X136247051Y-78558590D01*
X136247053Y-78558592D01*
X136389041Y-78642564D01*
X136430816Y-78654701D01*
X136547447Y-78688586D01*
X136553688Y-78689726D01*
X136553361Y-78691512D01*
X136610514Y-78713294D01*
X136651987Y-78769524D01*
X136659500Y-78812030D01*
X136659500Y-79173330D01*
X136659499Y-79173348D01*
X136659499Y-79339054D01*
X136659498Y-79339054D01*
X136700423Y-79491785D01*
X136729358Y-79541900D01*
X136729359Y-79541904D01*
X136729360Y-79541904D01*
X136779479Y-79628714D01*
X136779481Y-79628717D01*
X136898349Y-79747585D01*
X136898355Y-79747590D01*
X139205922Y-82055157D01*
X139239407Y-82116480D01*
X139236173Y-82181155D01*
X139231522Y-82195468D01*
X139199500Y-82397648D01*
X139199500Y-82602351D01*
X139231522Y-82804534D01*
X139294781Y-82999223D01*
X139346385Y-83100500D01*
X139387585Y-83181359D01*
X139387715Y-83181613D01*
X139508028Y-83347213D01*
X139652786Y-83491971D01*
X139773226Y-83579474D01*
X139818390Y-83612287D01*
X139934607Y-83671503D01*
X140000776Y-83705218D01*
X140000778Y-83705218D01*
X140000781Y-83705220D01*
X140086048Y-83732925D01*
X140195465Y-83768477D01*
X140296557Y-83784488D01*
X140397648Y-83800500D01*
X140397649Y-83800500D01*
X140602351Y-83800500D01*
X140602352Y-83800500D01*
X140804534Y-83768477D01*
X140999219Y-83705220D01*
X141181610Y-83612287D01*
X141337231Y-83499223D01*
X141347213Y-83491971D01*
X141347215Y-83491968D01*
X141347219Y-83491966D01*
X141491966Y-83347219D01*
X141491968Y-83347215D01*
X141491971Y-83347213D01*
X141544732Y-83274590D01*
X141612287Y-83181610D01*
X141705220Y-82999219D01*
X141768477Y-82804534D01*
X141800500Y-82602352D01*
X141800500Y-82397682D01*
X143040000Y-82397682D01*
X143040000Y-82602317D01*
X143072009Y-82804417D01*
X143135244Y-82999031D01*
X143228141Y-83181350D01*
X143228147Y-83181359D01*
X143260523Y-83225921D01*
X143260524Y-83225922D01*
X143940000Y-82546446D01*
X143940000Y-82552661D01*
X143967259Y-82654394D01*
X144019920Y-82745606D01*
X144094394Y-82820080D01*
X144185606Y-82872741D01*
X144287339Y-82900000D01*
X144293553Y-82900000D01*
X143614076Y-83579474D01*
X143658650Y-83611859D01*
X143840968Y-83704755D01*
X144035582Y-83767990D01*
X144237683Y-83800000D01*
X144442317Y-83800000D01*
X144644417Y-83767990D01*
X144839031Y-83704755D01*
X145021349Y-83611859D01*
X145065921Y-83579474D01*
X144386447Y-82900000D01*
X144392661Y-82900000D01*
X144494394Y-82872741D01*
X144585606Y-82820080D01*
X144660080Y-82745606D01*
X144712741Y-82654394D01*
X144740000Y-82552661D01*
X144740000Y-82546447D01*
X145419474Y-83225921D01*
X145451859Y-83181349D01*
X145544755Y-82999031D01*
X145607990Y-82804417D01*
X145640000Y-82602317D01*
X145640000Y-82397682D01*
X145607990Y-82195582D01*
X145544755Y-82000968D01*
X145451859Y-81818650D01*
X145419474Y-81774077D01*
X145419474Y-81774076D01*
X144740000Y-82453551D01*
X144740000Y-82447339D01*
X144712741Y-82345606D01*
X144660080Y-82254394D01*
X144585606Y-82179920D01*
X144494394Y-82127259D01*
X144392661Y-82100000D01*
X144386446Y-82100000D01*
X145065922Y-81420524D01*
X145065921Y-81420523D01*
X145021359Y-81388147D01*
X145021350Y-81388141D01*
X144839031Y-81295244D01*
X144644417Y-81232009D01*
X144442317Y-81200000D01*
X144237683Y-81200000D01*
X144035582Y-81232009D01*
X143840968Y-81295244D01*
X143658644Y-81388143D01*
X143614077Y-81420523D01*
X143614077Y-81420524D01*
X144293554Y-82100000D01*
X144287339Y-82100000D01*
X144185606Y-82127259D01*
X144094394Y-82179920D01*
X144019920Y-82254394D01*
X143967259Y-82345606D01*
X143940000Y-82447339D01*
X143940000Y-82453553D01*
X143260524Y-81774077D01*
X143260523Y-81774077D01*
X143228143Y-81818644D01*
X143135244Y-82000968D01*
X143072009Y-82195582D01*
X143040000Y-82397682D01*
X141800500Y-82397682D01*
X141800500Y-82397648D01*
X141777980Y-82255463D01*
X141768477Y-82195465D01*
X141722888Y-82055157D01*
X141705220Y-82000781D01*
X141705218Y-82000778D01*
X141705218Y-82000776D01*
X141670065Y-81931785D01*
X141612287Y-81818390D01*
X141595134Y-81794781D01*
X141491971Y-81652786D01*
X141347213Y-81508028D01*
X141181613Y-81387715D01*
X141181612Y-81387714D01*
X141181610Y-81387713D01*
X141124653Y-81358691D01*
X140999223Y-81294781D01*
X140804534Y-81231522D01*
X140629995Y-81203878D01*
X140602352Y-81199500D01*
X140397648Y-81199500D01*
X140359599Y-81205526D01*
X140195468Y-81231522D01*
X140186717Y-81234365D01*
X140181154Y-81236173D01*
X140111313Y-81238167D01*
X140055157Y-81205922D01*
X137896819Y-79047584D01*
X137882115Y-79020656D01*
X137865523Y-78994838D01*
X137864631Y-78988637D01*
X137863334Y-78986261D01*
X137860500Y-78959903D01*
X137860500Y-78812030D01*
X137880185Y-78744991D01*
X137932989Y-78699236D01*
X137966465Y-78690564D01*
X137966312Y-78689726D01*
X137972545Y-78688587D01*
X137972548Y-78688587D01*
X137972550Y-78688586D01*
X137972552Y-78688586D01*
X138014323Y-78676449D01*
X138130959Y-78642564D01*
X138272947Y-78558592D01*
X138389592Y-78441947D01*
X138423268Y-78385003D01*
X138474337Y-78337321D01*
X138543079Y-78324817D01*
X138607668Y-78351462D01*
X138636732Y-78385004D01*
X138670406Y-78441944D01*
X138670412Y-78441952D01*
X138787047Y-78558587D01*
X138787051Y-78558590D01*
X138787053Y-78558592D01*
X138929041Y-78642564D01*
X138970816Y-78654701D01*
X139087447Y-78688586D01*
X139087450Y-78688586D01*
X139087452Y-78688587D01*
X139124466Y-78691500D01*
X139124474Y-78691500D01*
X140475526Y-78691500D01*
X140475534Y-78691500D01*
X140512548Y-78688587D01*
X140512550Y-78688586D01*
X140512552Y-78688586D01*
X140554323Y-78676449D01*
X140670959Y-78642564D01*
X140812947Y-78558592D01*
X140929592Y-78441947D01*
X140963268Y-78385003D01*
X141014337Y-78337321D01*
X141083079Y-78324817D01*
X141147668Y-78351462D01*
X141176732Y-78385004D01*
X141210406Y-78441944D01*
X141210412Y-78441952D01*
X141327047Y-78558587D01*
X141327051Y-78558590D01*
X141327053Y-78558592D01*
X141469041Y-78642564D01*
X141510816Y-78654701D01*
X141627447Y-78688586D01*
X141627450Y-78688586D01*
X141627452Y-78688587D01*
X141664466Y-78691500D01*
X141664474Y-78691500D01*
X143015526Y-78691500D01*
X143015534Y-78691500D01*
X143052548Y-78688587D01*
X143052550Y-78688586D01*
X143052552Y-78688586D01*
X143094323Y-78676449D01*
X143210959Y-78642564D01*
X143352947Y-78558592D01*
X143469592Y-78441947D01*
X143503268Y-78385003D01*
X143554337Y-78337321D01*
X143623079Y-78324817D01*
X143687668Y-78351462D01*
X143716732Y-78385004D01*
X143750406Y-78441944D01*
X143750412Y-78441952D01*
X143867047Y-78558587D01*
X143867051Y-78558590D01*
X143867053Y-78558592D01*
X144009041Y-78642564D01*
X144050816Y-78654701D01*
X144167447Y-78688586D01*
X144167450Y-78688586D01*
X144167452Y-78688587D01*
X144204466Y-78691500D01*
X144204474Y-78691500D01*
X145555526Y-78691500D01*
X145555534Y-78691500D01*
X145592548Y-78688587D01*
X145592550Y-78688586D01*
X145592552Y-78688586D01*
X145634323Y-78676449D01*
X145750959Y-78642564D01*
X145892947Y-78558592D01*
X146009592Y-78441947D01*
X146043268Y-78385003D01*
X146094337Y-78337321D01*
X146163079Y-78324817D01*
X146227668Y-78351462D01*
X146256732Y-78385004D01*
X146290406Y-78441944D01*
X146290412Y-78441952D01*
X146407047Y-78558587D01*
X146407051Y-78558590D01*
X146407053Y-78558592D01*
X146549041Y-78642564D01*
X146590816Y-78654701D01*
X146707447Y-78688586D01*
X146707450Y-78688586D01*
X146707452Y-78688587D01*
X146744466Y-78691500D01*
X146744474Y-78691500D01*
X148095526Y-78691500D01*
X148095534Y-78691500D01*
X148132548Y-78688587D01*
X148132550Y-78688586D01*
X148132552Y-78688586D01*
X148174323Y-78676449D01*
X148290959Y-78642564D01*
X148432947Y-78558592D01*
X148516848Y-78474691D01*
X148863860Y-78474691D01*
X148947360Y-78558192D01*
X148947365Y-78558196D01*
X149089243Y-78642102D01*
X149089246Y-78642103D01*
X149247526Y-78688088D01*
X149247532Y-78688089D01*
X149284518Y-78690999D01*
X150635469Y-78690999D01*
X150635491Y-78690998D01*
X150672466Y-78688089D01*
X150830757Y-78642102D01*
X150972634Y-78558196D01*
X150972639Y-78558192D01*
X151056139Y-78474691D01*
X149960000Y-77378552D01*
X148863860Y-78474691D01*
X148516848Y-78474691D01*
X148549592Y-78441947D01*
X148633564Y-78299959D01*
X148679587Y-78141548D01*
X148682500Y-78104534D01*
X148682500Y-78000309D01*
X148702185Y-77933270D01*
X148718819Y-77912628D01*
X149606448Y-77025000D01*
X149606448Y-77024999D01*
X148718819Y-76137370D01*
X148685334Y-76076047D01*
X148682500Y-76049689D01*
X148682500Y-75945473D01*
X148682499Y-75945458D01*
X148679587Y-75908453D01*
X148679586Y-75908447D01*
X148633565Y-75750045D01*
X148633564Y-75750042D01*
X148633564Y-75750041D01*
X148549592Y-75608053D01*
X148453390Y-75511851D01*
X148440758Y-75497060D01*
X148382984Y-75417539D01*
X148242466Y-75277021D01*
X148242460Y-75277016D01*
X148118313Y-75186818D01*
X148075647Y-75131488D01*
X148069668Y-75061875D01*
X148102274Y-75000080D01*
X148163112Y-74965723D01*
X148191198Y-74962500D01*
X149189652Y-74962500D01*
X149256691Y-74982185D01*
X149302446Y-75034989D01*
X149312390Y-75104147D01*
X149283365Y-75167703D01*
X149262537Y-75186818D01*
X149261283Y-75187729D01*
X149261282Y-75187730D01*
X149875906Y-75802352D01*
X149788429Y-75825792D01*
X149687070Y-75884311D01*
X149604311Y-75967070D01*
X149545792Y-76068429D01*
X149522352Y-76155905D01*
X148902808Y-75536360D01*
X148863859Y-75575307D01*
X149515500Y-76226948D01*
X149515500Y-76298520D01*
X149545792Y-76411571D01*
X149604311Y-76512930D01*
X149687070Y-76595689D01*
X149788429Y-76654208D01*
X149901480Y-76684500D01*
X150018520Y-76684500D01*
X150131571Y-76654208D01*
X150232930Y-76595689D01*
X150315689Y-76512930D01*
X150374208Y-76411571D01*
X150404500Y-76298520D01*
X150404500Y-76226948D01*
X151056140Y-75575308D01*
X151017192Y-75536360D01*
X151017191Y-75536360D01*
X150397647Y-76155904D01*
X150374208Y-76068429D01*
X150315689Y-75967070D01*
X150232930Y-75884311D01*
X150131571Y-75825792D01*
X150044094Y-75802352D01*
X150658716Y-75187731D01*
X150658715Y-75187730D01*
X150657459Y-75186817D01*
X150614794Y-75131486D01*
X150608816Y-75061873D01*
X150641423Y-75000078D01*
X150702262Y-74965722D01*
X150730346Y-74962500D01*
X151728802Y-74962500D01*
X151795841Y-74982185D01*
X151841596Y-75034989D01*
X151851540Y-75104147D01*
X151822515Y-75167703D01*
X151801687Y-75186818D01*
X151677539Y-75277016D01*
X151677533Y-75277021D01*
X151537018Y-75417536D01*
X151479239Y-75497061D01*
X151466604Y-75511854D01*
X151370413Y-75608046D01*
X151370405Y-75608056D01*
X151286435Y-75750042D01*
X151286434Y-75750045D01*
X151240413Y-75908447D01*
X151240412Y-75908453D01*
X151237500Y-75945458D01*
X151237500Y-76049689D01*
X151217815Y-76116728D01*
X151201181Y-76137370D01*
X150313552Y-77024999D01*
X150313552Y-77025000D01*
X151201181Y-77912629D01*
X151234666Y-77973952D01*
X151237500Y-78000310D01*
X151237500Y-78104541D01*
X151240412Y-78141546D01*
X151240413Y-78141552D01*
X151286434Y-78299954D01*
X151286435Y-78299957D01*
X151370405Y-78441943D01*
X151370412Y-78441952D01*
X151487047Y-78558587D01*
X151487051Y-78558590D01*
X151487053Y-78558592D01*
X151629041Y-78642564D01*
X151670816Y-78654701D01*
X151787447Y-78688586D01*
X151787450Y-78688586D01*
X151787452Y-78688587D01*
X151824466Y-78691500D01*
X151824474Y-78691500D01*
X153175526Y-78691500D01*
X153175534Y-78691500D01*
X153212548Y-78688587D01*
X153212550Y-78688586D01*
X153212552Y-78688586D01*
X153254323Y-78676449D01*
X153370959Y-78642564D01*
X153512947Y-78558592D01*
X153629592Y-78441947D01*
X153713564Y-78299959D01*
X153759587Y-78141548D01*
X153762500Y-78104534D01*
X153762500Y-76964500D01*
X153782185Y-76897461D01*
X153834989Y-76851706D01*
X153886500Y-76840500D01*
X160875500Y-76840500D01*
X160942539Y-76860185D01*
X160988294Y-76912989D01*
X160999500Y-76964500D01*
X160999500Y-77650001D01*
X160999501Y-77650019D01*
X161010000Y-77752796D01*
X161010001Y-77752799D01*
X161032297Y-77820083D01*
X161065186Y-77919334D01*
X161115131Y-78000309D01*
X161157289Y-78068657D01*
X161281344Y-78192712D01*
X161436120Y-78288178D01*
X161482845Y-78340126D01*
X161494068Y-78409088D01*
X161466224Y-78473171D01*
X161458706Y-78481398D01*
X161319889Y-78620215D01*
X161194951Y-78792179D01*
X161098444Y-78981585D01*
X161098443Y-78981587D01*
X161098443Y-78981588D01*
X161065598Y-79082672D01*
X161032753Y-79183760D01*
X161008157Y-79339054D01*
X160999500Y-79393713D01*
X160999500Y-79606287D01*
X161003053Y-79628717D01*
X161032753Y-79816240D01*
X161083277Y-79971736D01*
X161085272Y-80041577D01*
X161053027Y-80097735D01*
X159287584Y-81863181D01*
X159226261Y-81896666D01*
X159199903Y-81899500D01*
X155729602Y-81899500D01*
X155662563Y-81879815D01*
X155619117Y-81831795D01*
X155612284Y-81818385D01*
X155491971Y-81652786D01*
X155347213Y-81508028D01*
X155181613Y-81387715D01*
X155181612Y-81387714D01*
X155181610Y-81387713D01*
X155124653Y-81358691D01*
X154999223Y-81294781D01*
X154804534Y-81231522D01*
X154629995Y-81203878D01*
X154602352Y-81199500D01*
X154397648Y-81199500D01*
X154373329Y-81203351D01*
X154195465Y-81231522D01*
X154000776Y-81294781D01*
X153818386Y-81387715D01*
X153652786Y-81508028D01*
X153508028Y-81652786D01*
X153387715Y-81818386D01*
X153294781Y-82000776D01*
X153231522Y-82195465D01*
X153199500Y-82397648D01*
X153199500Y-82602351D01*
X153231522Y-82804534D01*
X153294781Y-82999223D01*
X153346385Y-83100500D01*
X153387585Y-83181359D01*
X153387715Y-83181613D01*
X153508028Y-83347213D01*
X153652786Y-83491971D01*
X153773226Y-83579474D01*
X153818390Y-83612287D01*
X153934607Y-83671503D01*
X154000776Y-83705218D01*
X154000778Y-83705218D01*
X154000781Y-83705220D01*
X154086048Y-83732925D01*
X154195465Y-83768477D01*
X154296557Y-83784488D01*
X154397648Y-83800500D01*
X154397649Y-83800500D01*
X154602351Y-83800500D01*
X154602352Y-83800500D01*
X154804534Y-83768477D01*
X154999219Y-83705220D01*
X155181610Y-83612287D01*
X155337231Y-83499223D01*
X155347213Y-83491971D01*
X155347215Y-83491968D01*
X155347219Y-83491966D01*
X155491966Y-83347219D01*
X155491968Y-83347215D01*
X155491971Y-83347213D01*
X155612284Y-83181614D01*
X155612285Y-83181613D01*
X155612287Y-83181610D01*
X155619117Y-83168204D01*
X155667091Y-83117409D01*
X155729602Y-83100500D01*
X159413331Y-83100500D01*
X159413347Y-83100501D01*
X159420943Y-83100501D01*
X159579054Y-83100501D01*
X159579057Y-83100501D01*
X159731785Y-83059577D01*
X159781904Y-83030639D01*
X159868716Y-82980520D01*
X159980520Y-82868716D01*
X159980520Y-82868714D01*
X159990728Y-82858507D01*
X159990729Y-82858504D01*
X161987556Y-80861678D01*
X162048877Y-80828195D01*
X162094633Y-80826888D01*
X162158972Y-80837078D01*
X162243713Y-80850500D01*
X162243714Y-80850500D01*
X162756286Y-80850500D01*
X162756287Y-80850500D01*
X162966243Y-80817246D01*
X163168412Y-80751557D01*
X163357816Y-80655051D01*
X163461826Y-80579484D01*
X163529786Y-80530109D01*
X163529788Y-80530106D01*
X163529792Y-80530104D01*
X163680104Y-80379792D01*
X163680106Y-80379788D01*
X163680109Y-80379786D01*
X163805048Y-80207820D01*
X163805047Y-80207820D01*
X163805051Y-80207816D01*
X163901557Y-80018412D01*
X163967246Y-79816243D01*
X164000500Y-79606287D01*
X164000500Y-79393713D01*
X163967246Y-79183757D01*
X163916722Y-79028260D01*
X163914727Y-78958419D01*
X163946970Y-78902263D01*
X164159506Y-78689728D01*
X164159511Y-78689724D01*
X164169714Y-78679520D01*
X164169716Y-78679520D01*
X164281520Y-78567716D01*
X164342525Y-78462051D01*
X164360577Y-78430785D01*
X164401501Y-78278057D01*
X164401501Y-78119943D01*
X164401501Y-78112348D01*
X164401500Y-78112330D01*
X164401500Y-71312430D01*
X164401501Y-71312417D01*
X164401501Y-71144314D01*
X164401501Y-71144313D01*
X164360577Y-70991586D01*
X164360573Y-70991579D01*
X164281524Y-70854660D01*
X164281518Y-70854652D01*
X154065220Y-60638355D01*
X154065218Y-60638352D01*
X153946347Y-60519481D01*
X153946346Y-60519480D01*
X153859534Y-60469360D01*
X153859534Y-60469359D01*
X153859529Y-60469357D01*
X153824497Y-60449130D01*
X153776283Y-60398562D01*
X153762500Y-60341745D01*
X153762500Y-59135473D01*
X153762499Y-59135458D01*
X153759587Y-59098453D01*
X153759586Y-59098447D01*
X153713565Y-58940045D01*
X153713564Y-58940042D01*
X153713564Y-58940041D01*
X153629592Y-58798053D01*
X153629590Y-58798051D01*
X153629587Y-58798047D01*
X153512952Y-58681412D01*
X153512943Y-58681405D01*
X153370957Y-58597435D01*
X153370954Y-58597434D01*
X153212552Y-58551413D01*
X153212546Y-58551412D01*
X153175541Y-58548500D01*
X153175534Y-58548500D01*
X151824466Y-58548500D01*
X151824458Y-58548500D01*
X151787453Y-58551412D01*
X151787447Y-58551413D01*
X151629045Y-58597434D01*
X151629042Y-58597435D01*
X151487056Y-58681405D01*
X151487047Y-58681412D01*
X151370412Y-58798047D01*
X151370408Y-58798053D01*
X151336732Y-58854996D01*
X151285662Y-58902679D01*
X151216921Y-58915182D01*
X151152331Y-58888536D01*
X151123268Y-58854996D01*
X151089592Y-58798053D01*
X151089589Y-58798050D01*
X151089587Y-58798047D01*
X150972952Y-58681412D01*
X150972943Y-58681405D01*
X150830957Y-58597435D01*
X150830954Y-58597434D01*
X150672552Y-58551413D01*
X150672546Y-58551412D01*
X150635541Y-58548500D01*
X150635534Y-58548500D01*
X149284466Y-58548500D01*
X149284458Y-58548500D01*
X149247453Y-58551412D01*
X149247447Y-58551413D01*
X149089045Y-58597434D01*
X149089042Y-58597435D01*
X148947056Y-58681405D01*
X148947047Y-58681412D01*
X148830412Y-58798047D01*
X148830408Y-58798053D01*
X148796732Y-58854996D01*
X148745662Y-58902679D01*
X148676921Y-58915182D01*
X148612331Y-58888536D01*
X148583268Y-58854996D01*
X148549592Y-58798053D01*
X148549589Y-58798050D01*
X148549587Y-58798047D01*
X148432952Y-58681412D01*
X148432943Y-58681405D01*
X148290957Y-58597435D01*
X148290954Y-58597434D01*
X148132552Y-58551413D01*
X148132546Y-58551412D01*
X148095541Y-58548500D01*
X148095534Y-58548500D01*
X146744466Y-58548500D01*
X146744458Y-58548500D01*
X146707453Y-58551412D01*
X146707447Y-58551413D01*
X146549045Y-58597434D01*
X146549042Y-58597435D01*
X146407056Y-58681405D01*
X146407047Y-58681412D01*
X146290412Y-58798047D01*
X146290408Y-58798053D01*
X146256732Y-58854996D01*
X146205662Y-58902679D01*
X146136921Y-58915182D01*
X146072331Y-58888536D01*
X146043268Y-58854996D01*
X146009592Y-58798053D01*
X146009589Y-58798050D01*
X146009587Y-58798047D01*
X145892952Y-58681412D01*
X145892943Y-58681405D01*
X145750957Y-58597435D01*
X145750954Y-58597434D01*
X145592552Y-58551413D01*
X145592546Y-58551412D01*
X145555541Y-58548500D01*
X145555534Y-58548500D01*
X144204466Y-58548500D01*
X144204458Y-58548500D01*
X144167453Y-58551412D01*
X144167447Y-58551413D01*
X144009045Y-58597434D01*
X144009042Y-58597435D01*
X143867056Y-58681405D01*
X143867047Y-58681412D01*
X143750412Y-58798047D01*
X143750408Y-58798053D01*
X143716732Y-58854996D01*
X143665662Y-58902679D01*
X143596921Y-58915182D01*
X143532331Y-58888536D01*
X143503268Y-58854996D01*
X143469592Y-58798053D01*
X143469589Y-58798050D01*
X143469587Y-58798047D01*
X143352952Y-58681412D01*
X143352943Y-58681405D01*
X143210957Y-58597435D01*
X143210954Y-58597434D01*
X143052552Y-58551413D01*
X143052546Y-58551412D01*
X143015541Y-58548500D01*
X143015534Y-58548500D01*
X141664466Y-58548500D01*
X141664458Y-58548500D01*
X141627453Y-58551412D01*
X141627447Y-58551413D01*
X141469045Y-58597434D01*
X141469042Y-58597435D01*
X141327056Y-58681405D01*
X141327047Y-58681412D01*
X141210412Y-58798047D01*
X141210408Y-58798053D01*
X141176732Y-58854996D01*
X141125662Y-58902679D01*
X141056921Y-58915182D01*
X140992331Y-58888536D01*
X140963268Y-58854996D01*
X140929592Y-58798053D01*
X140929589Y-58798050D01*
X140929587Y-58798047D01*
X140812952Y-58681412D01*
X140812943Y-58681405D01*
X140670957Y-58597435D01*
X140670954Y-58597434D01*
X140512552Y-58551413D01*
X140512546Y-58551412D01*
X140475541Y-58548500D01*
X140475534Y-58548500D01*
X139124466Y-58548500D01*
X139124458Y-58548500D01*
X139087453Y-58551412D01*
X139087447Y-58551413D01*
X138929045Y-58597434D01*
X138929042Y-58597435D01*
X138787056Y-58681405D01*
X138787047Y-58681412D01*
X138670412Y-58798047D01*
X138670408Y-58798053D01*
X138636732Y-58854996D01*
X138585662Y-58902679D01*
X138516921Y-58915182D01*
X138452331Y-58888536D01*
X138423268Y-58854996D01*
X138389592Y-58798053D01*
X138389589Y-58798050D01*
X138389587Y-58798047D01*
X138272952Y-58681412D01*
X138272943Y-58681405D01*
X138130957Y-58597435D01*
X138130954Y-58597434D01*
X137972552Y-58551413D01*
X137972546Y-58551412D01*
X137935541Y-58548500D01*
X137935534Y-58548500D01*
X136584466Y-58548500D01*
X136584458Y-58548500D01*
X136547453Y-58551412D01*
X136547447Y-58551413D01*
X136389045Y-58597434D01*
X136389042Y-58597435D01*
X136247056Y-58681405D01*
X136247047Y-58681412D01*
X136130412Y-58798047D01*
X136130405Y-58798056D01*
X136046435Y-58940042D01*
X136046434Y-58940045D01*
X136000413Y-59098447D01*
X136000412Y-59098453D01*
X135997500Y-59135458D01*
X135997500Y-61294541D01*
X136000413Y-61331552D01*
X136000898Y-61334207D01*
X136000740Y-61335706D01*
X136000910Y-61337865D01*
X136000509Y-61337896D01*
X135993579Y-61403692D01*
X135966597Y-61444166D01*
X131733597Y-65677166D01*
X131672274Y-65710651D01*
X131602582Y-65705667D01*
X131546649Y-65663795D01*
X131535431Y-65645779D01*
X131504418Y-65584911D01*
X131488371Y-65562825D01*
X131397603Y-65437894D01*
X131269106Y-65309397D01*
X131122090Y-65202583D01*
X130960174Y-65120083D01*
X130960171Y-65120081D01*
X130787349Y-65063928D01*
X130650286Y-65042219D01*
X130587152Y-65012289D01*
X130550221Y-64952978D01*
X130551219Y-64883115D01*
X130589829Y-64824883D01*
X130650288Y-64797273D01*
X130787224Y-64775585D01*
X130787225Y-64775584D01*
X130959984Y-64719451D01*
X131121831Y-64636986D01*
X131138395Y-64624949D01*
X130563446Y-64050000D01*
X130569661Y-64050000D01*
X130671394Y-64022741D01*
X130762606Y-63970080D01*
X130837080Y-63895606D01*
X130889741Y-63804394D01*
X130917000Y-63702661D01*
X130917000Y-63696446D01*
X131491949Y-64271395D01*
X131503986Y-64254831D01*
X131586451Y-64092984D01*
X131642584Y-63920225D01*
X131671000Y-63740821D01*
X131671000Y-63559178D01*
X131642584Y-63379774D01*
X131586450Y-63207012D01*
X131503993Y-63045179D01*
X131503985Y-63045165D01*
X131491950Y-63028603D01*
X131491949Y-63028602D01*
X130917000Y-63603552D01*
X130917000Y-63597339D01*
X130889741Y-63495606D01*
X130837080Y-63404394D01*
X130762606Y-63329920D01*
X130671394Y-63277259D01*
X130569661Y-63250000D01*
X130563444Y-63250000D01*
X131138396Y-62675048D01*
X131121834Y-62663014D01*
X131121830Y-62663012D01*
X130959984Y-62580548D01*
X130787225Y-62524415D01*
X130650287Y-62502726D01*
X130587152Y-62472797D01*
X130550221Y-62413485D01*
X130551219Y-62343622D01*
X130589829Y-62285390D01*
X130650286Y-62257780D01*
X130787346Y-62236072D01*
X130787349Y-62236071D01*
X130787350Y-62236071D01*
X130960171Y-62179918D01*
X130960171Y-62179917D01*
X130960174Y-62179917D01*
X131122090Y-62097417D01*
X131269106Y-61990603D01*
X131397603Y-61862106D01*
X131504417Y-61715090D01*
X131586917Y-61553174D01*
X131591126Y-61540219D01*
X131643071Y-61380350D01*
X131643071Y-61380349D01*
X131643072Y-61380346D01*
X131671500Y-61200861D01*
X131671500Y-61019139D01*
X131643072Y-60839654D01*
X131643071Y-60839650D01*
X131643071Y-60839649D01*
X131586918Y-60666828D01*
X131586916Y-60666825D01*
X131572409Y-60638352D01*
X131504417Y-60504910D01*
X131397603Y-60357894D01*
X131269106Y-60229397D01*
X131122090Y-60122583D01*
X130960174Y-60040083D01*
X130960171Y-60040081D01*
X130787348Y-59983928D01*
X130667689Y-59964976D01*
X130607861Y-59955500D01*
X130426139Y-59955500D01*
X130366310Y-59964976D01*
X130246652Y-59983928D01*
X130246649Y-59983928D01*
X130073828Y-60040081D01*
X130073825Y-60040083D01*
X129911909Y-60122583D01*
X129828030Y-60183525D01*
X129764894Y-60229397D01*
X129764892Y-60229399D01*
X129764891Y-60229399D01*
X129636399Y-60357891D01*
X129636399Y-60357892D01*
X129636397Y-60357894D01*
X129606850Y-60398562D01*
X129529583Y-60504909D01*
X129447083Y-60666825D01*
X129447081Y-60666828D01*
X129390928Y-60839649D01*
X129390928Y-60839652D01*
X129362500Y-61019139D01*
X129362500Y-61200860D01*
X129381931Y-61323545D01*
X129372976Y-61392839D01*
X129347139Y-61430624D01*
X129120582Y-61657182D01*
X129059262Y-61690666D01*
X129032903Y-61693500D01*
X113677994Y-61693500D01*
X113610955Y-61673815D01*
X113565200Y-61621011D01*
X113555256Y-61551853D01*
X113560063Y-61531182D01*
X113609071Y-61380350D01*
X113609071Y-61380349D01*
X113609072Y-61380346D01*
X113637500Y-61200861D01*
X113637500Y-61019139D01*
X113609072Y-60839654D01*
X113609071Y-60839650D01*
X113609071Y-60839649D01*
X113552918Y-60666828D01*
X113552916Y-60666825D01*
X113538409Y-60638352D01*
X113470417Y-60504910D01*
X113363603Y-60357894D01*
X113235106Y-60229397D01*
X113088090Y-60122583D01*
X112926174Y-60040083D01*
X112926171Y-60040081D01*
X112753348Y-59983928D01*
X112633689Y-59964976D01*
X112573861Y-59955500D01*
X112392139Y-59955500D01*
X112332310Y-59964976D01*
X112212652Y-59983928D01*
X112212649Y-59983928D01*
X112039828Y-60040081D01*
X112039825Y-60040083D01*
X111877909Y-60122583D01*
X111794030Y-60183525D01*
X111730894Y-60229397D01*
X111730892Y-60229399D01*
X111730891Y-60229399D01*
X111602399Y-60357891D01*
X111602399Y-60357892D01*
X111602397Y-60357894D01*
X111572850Y-60398562D01*
X111495583Y-60504909D01*
X111413083Y-60666825D01*
X111413081Y-60666828D01*
X111356928Y-60839649D01*
X111356928Y-60839652D01*
X111328500Y-61019139D01*
X111328500Y-61200860D01*
X111356928Y-61380347D01*
X111356928Y-61380350D01*
X111405937Y-61531182D01*
X111407932Y-61601023D01*
X111371852Y-61660856D01*
X111309151Y-61691684D01*
X111288006Y-61693500D01*
X104296535Y-61693500D01*
X104229496Y-61673815D01*
X104196217Y-61642386D01*
X104180104Y-61620208D01*
X104029792Y-61469896D01*
X104029786Y-61469890D01*
X103857820Y-61344951D01*
X103668414Y-61248444D01*
X103668413Y-61248443D01*
X103668412Y-61248443D01*
X103466243Y-61182754D01*
X103466241Y-61182753D01*
X103466240Y-61182753D01*
X103304957Y-61157208D01*
X103256287Y-61149500D01*
X102743713Y-61149500D01*
X102695042Y-61157208D01*
X102533760Y-61182753D01*
X102331585Y-61248444D01*
X102142179Y-61344951D01*
X101970213Y-61469890D01*
X101819890Y-61620213D01*
X101694951Y-61792179D01*
X101598444Y-61981585D01*
X101532753Y-62183760D01*
X101499500Y-62393713D01*
X97500500Y-62393713D01*
X97500500Y-58124500D01*
X97520185Y-58057461D01*
X97572989Y-58011706D01*
X97624500Y-58000500D01*
X161876000Y-58000500D01*
X161943039Y-58020185D01*
G37*
%TD.AperFunction*%
%TD*%
M02*
