%TF.GenerationSoftware,KiCad,Pcbnew,9.0.4*%
%TF.CreationDate,2026-02-11T20:09:01+09:00*%
%TF.ProjectId,kizuna_band,6b697a75-6e61-45f6-9261-6e642e6b6963,rev?*%
%TF.SameCoordinates,Original*%
%TF.FileFunction,Copper,L2,Bot*%
%TF.FilePolarity,Positive*%
%FSLAX46Y46*%
G04 Gerber Fmt 4.6, Leading zero omitted, Abs format (unit mm)*
G04 Created by KiCad (PCBNEW 9.0.4) date 2026-02-11 20:09:01*
%MOMM*%
%LPD*%
G01*
G04 APERTURE LIST*
G04 Aperture macros list*
%AMRoundRect*
0 Rectangle with rounded corners*
0 $1 Rounding radius*
0 $2 $3 $4 $5 $6 $7 $8 $9 X,Y pos of 4 corners*
0 Add a 4 corners polygon primitive as box body*
4,1,4,$2,$3,$4,$5,$6,$7,$8,$9,$2,$3,0*
0 Add four circle primitives for the rounded corners*
1,1,$1+$1,$2,$3*
1,1,$1+$1,$4,$5*
1,1,$1+$1,$6,$7*
1,1,$1+$1,$8,$9*
0 Add four rect primitives between the rounded corners*
20,1,$1+$1,$2,$3,$4,$5,0*
20,1,$1+$1,$4,$5,$6,$7,0*
20,1,$1+$1,$6,$7,$8,$9,0*
20,1,$1+$1,$8,$9,$2,$3,0*%
G04 Aperture macros list end*
%TA.AperFunction,ComponentPad*%
%ADD10C,1.524000*%
%TD*%
%TA.AperFunction,ComponentPad*%
%ADD11C,1.308000*%
%TD*%
%TA.AperFunction,ComponentPad*%
%ADD12R,1.308000X1.308000*%
%TD*%
%TA.AperFunction,ComponentPad*%
%ADD13C,1.600000*%
%TD*%
%TA.AperFunction,ComponentPad*%
%ADD14R,1.500000X1.500000*%
%TD*%
%TA.AperFunction,ComponentPad*%
%ADD15RoundRect,0.250000X0.750000X-0.600000X0.750000X0.600000X-0.750000X0.600000X-0.750000X-0.600000X0*%
%TD*%
%TA.AperFunction,ComponentPad*%
%ADD16O,2.000000X1.700000*%
%TD*%
%TA.AperFunction,ComponentPad*%
%ADD17RoundRect,0.250000X-0.750000X0.600000X-0.750000X-0.600000X0.750000X-0.600000X0.750000X0.600000X0*%
%TD*%
%TA.AperFunction,Conductor*%
%ADD18C,0.200000*%
%TD*%
G04 APERTURE END LIST*
D10*
%TO.P,XIAO RA4M1,1,P014_A0_D0*%
%TO.N,A0*%
X152500000Y-61000000D03*
%TO.P,XIAO RA4M1,2,P000_A1_D1*%
%TO.N,unconnected-(U1-P000_A1_D1-Pad2)*%
X149960000Y-61000000D03*
%TO.P,XIAO RA4M1,3,P001_A2_D2*%
%TO.N,unconnected-(U1-P001_A2_D2-Pad3)*%
X147420000Y-61000000D03*
%TO.P,XIAO RA4M1,4,P002_A3_D3*%
%TO.N,unconnected-(U1-P002_A3_D3-Pad4)_1*%
X144880000Y-61000000D03*
%TO.P,XIAO RA4M1,5,P206_A4_D4_SDA1*%
%TO.N,unconnected-(U1-P206_A4_D4_SDA1-Pad5)_1*%
X142340000Y-61000000D03*
%TO.P,XIAO RA4M1,6,P100_A5_D5_SCL1*%
%TO.N,unconnected-(U1-P100_A5_D5_SCL1-Pad6)*%
X139800000Y-61000000D03*
%TO.P,XIAO RA4M1,7,P302_D6_SDA2_TXD2*%
%TO.N,Net-(U1-P302_D6_SDA2_TXD2)*%
X137260000Y-61000000D03*
%TO.P,XIAO RA4M1,8,P301_D7_SCL2_RXD2*%
%TO.N,Net-(U1-P301_D7_SCL2_RXD2)*%
X137260000Y-76240000D03*
%TO.P,XIAO RA4M1,9,P111_D8_SCK9*%
%TO.N,unconnected-(U1-P111_D8_SCK9-Pad9)_1*%
X139800000Y-76240000D03*
%TO.P,XIAO RA4M1,10,P110_D9_MISO9*%
%TO.N,unconnected-(U1-P110_D9_MISO9-Pad10)_1*%
X142340000Y-76240000D03*
%TO.P,XIAO RA4M1,11,P109_D10_MOSI9*%
%TO.N,unconnected-(U1-P109_D10_MOSI9-Pad11)_1*%
X144880000Y-76240000D03*
%TO.P,XIAO RA4M1,12,3V3*%
%TO.N,unconnected-(U1-3V3-Pad12)*%
X147420000Y-76240000D03*
%TO.P,XIAO RA4M1,13,GND*%
%TO.N,GND*%
X149960000Y-76240000D03*
%TO.P,XIAO RA4M1,14,VBUS*%
%TO.N,5V*%
X152500000Y-76240000D03*
%TD*%
D11*
%TO.P,DFPlayer mini,16,BUSY*%
%TO.N,unconnected-(U2-BUSY-Pad16)*%
X112483000Y-78890000D03*
%TO.P,DFPlayer mini,15,USB-*%
%TO.N,unconnected-(U2-USB--Pad15)*%
X112483000Y-76350000D03*
%TO.P,DFPlayer mini,14,USB+*%
%TO.N,unconnected-(U2-USB+-Pad14)*%
X112483000Y-73810000D03*
%TO.P,DFPlayer mini,13,ADKEY2*%
%TO.N,unconnected-(U2-ADKEY2-Pad13)*%
X112483000Y-71270000D03*
%TO.P,DFPlayer mini,12,ADKEY1*%
%TO.N,unconnected-(U2-ADKEY1-Pad12)*%
X112483000Y-68730000D03*
%TO.P,DFPlayer mini,11,IO2*%
%TO.N,unconnected-(U2-IO2-Pad11)*%
X112483000Y-66190000D03*
%TO.P,DFPlayer mini,10,GND*%
%TO.N,GND*%
X112483000Y-63650000D03*
%TO.P,DFPlayer mini,9,IO1*%
%TO.N,unconnected-(U2-IO1-Pad9)*%
X112483000Y-61110000D03*
%TO.P,DFPlayer mini,8,SPK2*%
%TO.N,SPK2 -*%
X130517000Y-61110000D03*
%TO.P,DFPlayer mini,7,GND*%
%TO.N,GND*%
X130517000Y-63650000D03*
%TO.P,DFPlayer mini,6,SPK1*%
%TO.N,SPK1 +*%
X130517000Y-66190000D03*
%TO.P,DFPlayer mini,5,DAC_L*%
%TO.N,unconnected-(U2-DAC_L-Pad5)*%
X130517000Y-68730000D03*
%TO.P,DFPlayer mini,4,DAC_R*%
%TO.N,unconnected-(U2-DAC_R-Pad4)*%
X130517000Y-71270000D03*
%TO.P,DFPlayer mini,3,TX*%
%TO.N,Net-(U2-TX)*%
X130517000Y-73810000D03*
%TO.P,DFPlayer mini,2,RX*%
%TO.N,Net-(U2-RX)*%
X130517000Y-76350000D03*
D12*
%TO.P,DFPlayer mini,1,VCC*%
%TO.N,5V*%
X130517000Y-78890000D03*
%TD*%
D13*
%TO.P,10k,2*%
%TO.N,Net-(U2-RX)*%
X130340000Y-82500000D03*
%TO.P,10k,1*%
%TO.N,Net-(U1-P301_D7_SCL2_RXD2)*%
X140500000Y-82500000D03*
%TD*%
D14*
%TO.P,SW1,1,B*%
%TO.N,5V*%
X105460000Y-83000000D03*
D13*
%TO.P,SW1,2,C*%
%TO.N,Net-(Battery1-Pin_1)*%
X108000000Y-83000000D03*
%TO.P,SW1,3,A*%
%TO.N,unconnected-(SW1-A-Pad3)*%
X102920000Y-83000000D03*
%TD*%
D15*
%TO.P,SPK1,1,Pin_1*%
%TO.N,SPK1 +*%
X103000000Y-65000000D03*
D16*
%TO.P,SPK1,2,Pin_2*%
%TO.N,SPK2 -*%
X103000000Y-62500000D03*
%TD*%
D13*
%TO.P,R3,1*%
%TO.N,A0*%
X154500000Y-82500000D03*
%TO.P,R3,2*%
%TO.N,GND*%
X144340000Y-82500000D03*
%TD*%
%TO.P,10k,1*%
%TO.N,Net-(U1-P302_D6_SDA2_TXD2)*%
X116920000Y-82500000D03*
%TO.P,10k,2*%
%TO.N,Net-(U2-TX)*%
X127080000Y-82500000D03*
%TD*%
D15*
%TO.P,Battery1,1,Pin_1*%
%TO.N,Net-(Battery1-Pin_1)*%
X103000000Y-77500000D03*
D16*
%TO.P,Battery1,2,Pin_2*%
%TO.N,GND*%
X103000000Y-75000000D03*
%TD*%
D17*
%TO.P,Sensor1,1,Pin_1*%
%TO.N,5V*%
X162500000Y-77000000D03*
D16*
%TO.P,Sensor1,2,Pin_2*%
%TO.N,A0*%
X162500000Y-79500000D03*
%TD*%
D18*
%TO.N,GND*%
X130517000Y-63650000D02*
X137268600Y-70401600D01*
X137268600Y-70401600D02*
X137268600Y-74710942D01*
X137268600Y-74710942D02*
X138737000Y-76179342D01*
X138737000Y-76179342D02*
X138737000Y-76680310D01*
X138737000Y-76680310D02*
X139359690Y-77303000D01*
X139359690Y-77303000D02*
X148897000Y-77303000D01*
X148897000Y-77303000D02*
X149960000Y-76240000D01*
%TO.N,5V*%
X105460000Y-83000000D02*
X106561000Y-84101000D01*
X144639000Y-84101000D02*
X152500000Y-76240000D01*
X106561000Y-84101000D02*
X144639000Y-84101000D01*
%TO.N,GND*%
X103000000Y-75000000D02*
X119167000Y-75000000D01*
X119167000Y-75000000D02*
X130517000Y-63650000D01*
%TO.N,5V*%
X105460000Y-83000000D02*
X110960000Y-77500000D01*
X110960000Y-77500000D02*
X129127000Y-77500000D01*
X129127000Y-77500000D02*
X130517000Y-78890000D01*
%TD*%
%TA.AperFunction,Conductor*%
%TO.N,GND*%
G36*
X161943039Y-58020185D02*
G01*
X161988794Y-58072989D01*
X162000000Y-58124500D01*
X162000000Y-63500000D01*
X168375500Y-63500000D01*
X168442539Y-63519685D01*
X168488294Y-63572489D01*
X168499500Y-63624000D01*
X168499500Y-84375500D01*
X168479815Y-84442539D01*
X168427011Y-84488294D01*
X168375500Y-84499500D01*
X145389096Y-84499500D01*
X145322057Y-84479815D01*
X145276302Y-84427011D01*
X145266358Y-84357853D01*
X145295383Y-84294297D01*
X145301415Y-84287819D01*
X147191586Y-82397648D01*
X153199500Y-82397648D01*
X153199500Y-82602352D01*
X153202704Y-82622580D01*
X153231522Y-82804534D01*
X153294781Y-82999223D01*
X153347328Y-83102351D01*
X153387712Y-83181609D01*
X153387715Y-83181613D01*
X153508028Y-83347213D01*
X153652786Y-83491971D01*
X153807749Y-83604556D01*
X153818390Y-83612287D01*
X153934607Y-83671503D01*
X154000776Y-83705218D01*
X154000778Y-83705218D01*
X154000781Y-83705220D01*
X154105137Y-83739127D01*
X154195465Y-83768477D01*
X154296557Y-83784488D01*
X154397648Y-83800500D01*
X154397649Y-83800500D01*
X154602351Y-83800500D01*
X154602352Y-83800500D01*
X154804534Y-83768477D01*
X154999219Y-83705220D01*
X155181610Y-83612287D01*
X155274590Y-83544732D01*
X155347213Y-83491971D01*
X155347215Y-83491968D01*
X155347219Y-83491966D01*
X155491966Y-83347219D01*
X155491968Y-83347215D01*
X155491971Y-83347213D01*
X155544732Y-83274590D01*
X155612287Y-83181610D01*
X155705220Y-82999219D01*
X155768477Y-82804534D01*
X155800500Y-82602352D01*
X155800500Y-82397648D01*
X155777980Y-82255463D01*
X155768477Y-82195465D01*
X155727368Y-82068945D01*
X155705220Y-82000781D01*
X155705218Y-82000778D01*
X155705218Y-82000776D01*
X155650025Y-81892455D01*
X155612287Y-81818390D01*
X155595134Y-81794781D01*
X155491971Y-81652786D01*
X155347213Y-81508028D01*
X155181613Y-81387715D01*
X155181612Y-81387714D01*
X155181610Y-81387713D01*
X155124653Y-81358691D01*
X154999223Y-81294781D01*
X154804534Y-81231522D01*
X154629995Y-81203878D01*
X154602352Y-81199500D01*
X154397648Y-81199500D01*
X154373329Y-81203351D01*
X154195465Y-81231522D01*
X154000776Y-81294781D01*
X153818386Y-81387715D01*
X153652786Y-81508028D01*
X153508028Y-81652786D01*
X153387715Y-81818386D01*
X153294781Y-82000776D01*
X153231522Y-82195465D01*
X153199500Y-82397648D01*
X147191586Y-82397648D01*
X147284139Y-82305095D01*
X149629318Y-79959916D01*
X152085473Y-77503760D01*
X152146794Y-77470277D01*
X152199521Y-77470841D01*
X152199552Y-77470651D01*
X152200843Y-77470855D01*
X152202099Y-77470869D01*
X152204352Y-77471409D01*
X152204364Y-77471413D01*
X152400639Y-77502500D01*
X152400640Y-77502500D01*
X152599360Y-77502500D01*
X152599361Y-77502500D01*
X152795636Y-77471413D01*
X152984632Y-77410005D01*
X153161694Y-77319787D01*
X153322464Y-77202981D01*
X153462981Y-77062464D01*
X153579787Y-76901694D01*
X153670005Y-76724632D01*
X153731413Y-76535636D01*
X153760818Y-76349983D01*
X160999500Y-76349983D01*
X160999500Y-77650001D01*
X160999501Y-77650018D01*
X161010000Y-77752796D01*
X161010001Y-77752799D01*
X161065185Y-77919331D01*
X161065187Y-77919336D01*
X161157289Y-78068657D01*
X161281344Y-78192712D01*
X161436120Y-78288178D01*
X161482845Y-78340126D01*
X161494068Y-78409088D01*
X161466224Y-78473171D01*
X161458706Y-78481398D01*
X161319889Y-78620215D01*
X161194951Y-78792179D01*
X161098444Y-78981585D01*
X161032753Y-79183760D01*
X160999500Y-79393713D01*
X160999500Y-79606287D01*
X161032754Y-79816243D01*
X161097682Y-80016071D01*
X161098444Y-80018414D01*
X161194951Y-80207820D01*
X161319890Y-80379786D01*
X161470213Y-80530109D01*
X161642179Y-80655048D01*
X161642181Y-80655049D01*
X161642184Y-80655051D01*
X161831588Y-80751557D01*
X162033757Y-80817246D01*
X162243713Y-80850500D01*
X162243714Y-80850500D01*
X162756286Y-80850500D01*
X162756287Y-80850500D01*
X162966243Y-80817246D01*
X163168412Y-80751557D01*
X163357816Y-80655051D01*
X163379789Y-80639086D01*
X163529786Y-80530109D01*
X163529788Y-80530106D01*
X163529792Y-80530104D01*
X163680104Y-80379792D01*
X163680106Y-80379788D01*
X163680109Y-80379786D01*
X163805048Y-80207820D01*
X163805047Y-80207820D01*
X163805051Y-80207816D01*
X163901557Y-80018412D01*
X163967246Y-79816243D01*
X164000500Y-79606287D01*
X164000500Y-79393713D01*
X163967246Y-79183757D01*
X163901557Y-78981588D01*
X163805051Y-78792184D01*
X163805049Y-78792181D01*
X163805048Y-78792179D01*
X163680109Y-78620213D01*
X163541294Y-78481398D01*
X163507809Y-78420075D01*
X163512793Y-78350383D01*
X163554665Y-78294450D01*
X163563879Y-78288178D01*
X163569331Y-78284814D01*
X163569334Y-78284814D01*
X163718656Y-78192712D01*
X163842712Y-78068656D01*
X163934814Y-77919334D01*
X163989999Y-77752797D01*
X164000500Y-77650009D01*
X164000499Y-76349992D01*
X163989999Y-76247203D01*
X163934814Y-76080666D01*
X163842712Y-75931344D01*
X163718656Y-75807288D01*
X163601996Y-75735332D01*
X163569336Y-75715187D01*
X163569331Y-75715185D01*
X163546311Y-75707557D01*
X163402797Y-75660001D01*
X163402795Y-75660000D01*
X163300010Y-75649500D01*
X161699998Y-75649500D01*
X161699981Y-75649501D01*
X161597203Y-75660000D01*
X161597200Y-75660001D01*
X161430668Y-75715185D01*
X161430663Y-75715187D01*
X161281342Y-75807289D01*
X161157289Y-75931342D01*
X161065187Y-76080663D01*
X161065185Y-76080668D01*
X161045313Y-76140639D01*
X161010001Y-76247203D01*
X161010001Y-76247204D01*
X161010000Y-76247204D01*
X160999500Y-76349983D01*
X153760818Y-76349983D01*
X153762500Y-76339361D01*
X153762500Y-76140639D01*
X153731413Y-75944364D01*
X153670005Y-75755368D01*
X153670005Y-75755367D01*
X153616062Y-75649500D01*
X153579787Y-75578306D01*
X153462981Y-75417536D01*
X153322464Y-75277019D01*
X153322460Y-75277016D01*
X153198313Y-75186818D01*
X153155647Y-75131488D01*
X153149668Y-75061875D01*
X153182274Y-75000080D01*
X153243112Y-74965723D01*
X153271198Y-74962500D01*
X153988290Y-74962500D01*
X153988292Y-74962500D01*
X154115586Y-74928392D01*
X154229714Y-74862500D01*
X154322900Y-74769314D01*
X154388792Y-74655186D01*
X154422900Y-74527892D01*
X154422900Y-62661308D01*
X154388792Y-62534014D01*
X154322900Y-62419886D01*
X154229714Y-62326700D01*
X154152612Y-62282185D01*
X154115587Y-62260808D01*
X154005881Y-62231413D01*
X153988292Y-62226700D01*
X153988291Y-62226700D01*
X153341118Y-62226700D01*
X153274079Y-62207015D01*
X153228324Y-62154211D01*
X153218380Y-62085053D01*
X153247405Y-62021497D01*
X153268233Y-62002382D01*
X153284445Y-61990603D01*
X153322464Y-61962981D01*
X153462981Y-61822464D01*
X153579787Y-61661694D01*
X153670005Y-61484632D01*
X153731413Y-61295636D01*
X153762500Y-61099361D01*
X153762500Y-60900639D01*
X153731413Y-60704364D01*
X153670005Y-60515368D01*
X153670005Y-60515367D01*
X153624035Y-60425149D01*
X153579787Y-60338306D01*
X153462981Y-60177536D01*
X153322464Y-60037019D01*
X153161694Y-59920213D01*
X152984632Y-59829994D01*
X152984629Y-59829993D01*
X152795637Y-59768587D01*
X152697498Y-59753043D01*
X152599361Y-59737500D01*
X152400639Y-59737500D01*
X152335214Y-59747862D01*
X152204362Y-59768587D01*
X152015370Y-59829993D01*
X152015367Y-59829994D01*
X151838305Y-59920213D01*
X151677533Y-60037021D01*
X151537021Y-60177533D01*
X151420213Y-60338305D01*
X151340485Y-60494780D01*
X151292510Y-60545576D01*
X151224689Y-60562371D01*
X151158554Y-60539833D01*
X151119515Y-60494780D01*
X151100179Y-60456832D01*
X151039787Y-60338306D01*
X150922981Y-60177536D01*
X150782464Y-60037019D01*
X150621694Y-59920213D01*
X150444632Y-59829994D01*
X150444629Y-59829993D01*
X150255637Y-59768587D01*
X150157498Y-59753043D01*
X150059361Y-59737500D01*
X149860639Y-59737500D01*
X149795214Y-59747862D01*
X149664362Y-59768587D01*
X149475370Y-59829993D01*
X149475367Y-59829994D01*
X149298305Y-59920213D01*
X149137533Y-60037021D01*
X148997021Y-60177533D01*
X148880213Y-60338305D01*
X148800485Y-60494780D01*
X148752510Y-60545576D01*
X148684689Y-60562371D01*
X148618554Y-60539833D01*
X148579515Y-60494780D01*
X148560179Y-60456832D01*
X148499787Y-60338306D01*
X148382981Y-60177536D01*
X148242464Y-60037019D01*
X148081694Y-59920213D01*
X147904632Y-59829994D01*
X147904629Y-59829993D01*
X147715637Y-59768587D01*
X147617498Y-59753043D01*
X147519361Y-59737500D01*
X147320639Y-59737500D01*
X147255214Y-59747862D01*
X147124362Y-59768587D01*
X146935370Y-59829993D01*
X146935367Y-59829994D01*
X146758305Y-59920213D01*
X146597533Y-60037021D01*
X146457021Y-60177533D01*
X146340213Y-60338305D01*
X146260485Y-60494780D01*
X146212510Y-60545576D01*
X146144689Y-60562371D01*
X146078554Y-60539833D01*
X146039515Y-60494780D01*
X146020179Y-60456832D01*
X145959787Y-60338306D01*
X145842981Y-60177536D01*
X145702464Y-60037019D01*
X145541694Y-59920213D01*
X145364632Y-59829994D01*
X145364629Y-59829993D01*
X145175637Y-59768587D01*
X145077498Y-59753043D01*
X144979361Y-59737500D01*
X144780639Y-59737500D01*
X144715214Y-59747862D01*
X144584362Y-59768587D01*
X144395370Y-59829993D01*
X144395367Y-59829994D01*
X144218305Y-59920213D01*
X144057533Y-60037021D01*
X143917021Y-60177533D01*
X143800213Y-60338305D01*
X143720485Y-60494780D01*
X143672510Y-60545576D01*
X143604689Y-60562371D01*
X143538554Y-60539833D01*
X143499515Y-60494780D01*
X143480179Y-60456832D01*
X143419787Y-60338306D01*
X143302981Y-60177536D01*
X143162464Y-60037019D01*
X143001694Y-59920213D01*
X142824632Y-59829994D01*
X142824629Y-59829993D01*
X142635637Y-59768587D01*
X142537498Y-59753043D01*
X142439361Y-59737500D01*
X142240639Y-59737500D01*
X142175214Y-59747862D01*
X142044362Y-59768587D01*
X141855370Y-59829993D01*
X141855367Y-59829994D01*
X141678305Y-59920213D01*
X141517533Y-60037021D01*
X141377021Y-60177533D01*
X141260213Y-60338305D01*
X141180485Y-60494780D01*
X141132510Y-60545576D01*
X141064689Y-60562371D01*
X140998554Y-60539833D01*
X140959515Y-60494780D01*
X140940179Y-60456832D01*
X140879787Y-60338306D01*
X140762981Y-60177536D01*
X140622464Y-60037019D01*
X140461694Y-59920213D01*
X140284632Y-59829994D01*
X140284629Y-59829993D01*
X140095637Y-59768587D01*
X139997498Y-59753043D01*
X139899361Y-59737500D01*
X139700639Y-59737500D01*
X139635214Y-59747862D01*
X139504362Y-59768587D01*
X139315370Y-59829993D01*
X139315367Y-59829994D01*
X139138305Y-59920213D01*
X138977533Y-60037021D01*
X138837021Y-60177533D01*
X138720213Y-60338305D01*
X138640485Y-60494780D01*
X138592510Y-60545576D01*
X138524689Y-60562371D01*
X138458554Y-60539833D01*
X138419515Y-60494780D01*
X138400179Y-60456832D01*
X138339787Y-60338306D01*
X138222981Y-60177536D01*
X138082464Y-60037019D01*
X137921694Y-59920213D01*
X137744632Y-59829994D01*
X137744629Y-59829993D01*
X137555637Y-59768587D01*
X137457498Y-59753043D01*
X137359361Y-59737500D01*
X137160639Y-59737500D01*
X137095214Y-59747862D01*
X136964362Y-59768587D01*
X136775370Y-59829993D01*
X136775367Y-59829994D01*
X136598305Y-59920213D01*
X136437533Y-60037021D01*
X136297021Y-60177533D01*
X136180213Y-60338305D01*
X136089994Y-60515367D01*
X136089993Y-60515370D01*
X136028587Y-60704362D01*
X135997500Y-60900639D01*
X135997500Y-61099360D01*
X136028587Y-61295637D01*
X136089993Y-61484629D01*
X136089994Y-61484632D01*
X136159077Y-61620213D01*
X136180213Y-61661694D01*
X136297019Y-61822464D01*
X136437536Y-61962981D01*
X136598306Y-62079787D01*
X136632905Y-62097416D01*
X136775367Y-62170005D01*
X136775370Y-62170006D01*
X136834198Y-62189120D01*
X136964364Y-62231413D01*
X137160639Y-62262500D01*
X137160640Y-62262500D01*
X137345193Y-62262500D01*
X137412232Y-62282185D01*
X137457987Y-62334989D01*
X137467931Y-62404147D01*
X137452581Y-62448497D01*
X137438552Y-62472797D01*
X137403208Y-62534013D01*
X137369100Y-62661308D01*
X137369100Y-74527891D01*
X137403208Y-74655187D01*
X137419770Y-74683873D01*
X137469100Y-74769314D01*
X137469102Y-74769316D01*
X137474047Y-74775760D01*
X137472453Y-74776982D01*
X137500747Y-74828799D01*
X137495763Y-74898491D01*
X137453891Y-74954424D01*
X137388427Y-74978841D01*
X137364218Y-74977803D01*
X137364212Y-74977882D01*
X137362021Y-74977709D01*
X137360190Y-74977631D01*
X137359363Y-74977500D01*
X137359361Y-74977500D01*
X137160639Y-74977500D01*
X137095214Y-74987862D01*
X136964362Y-75008587D01*
X136775370Y-75069993D01*
X136775367Y-75069994D01*
X136598305Y-75160213D01*
X136437533Y-75277021D01*
X136297021Y-75417533D01*
X136180213Y-75578305D01*
X136089994Y-75755367D01*
X136089993Y-75755370D01*
X136028587Y-75944362D01*
X136005419Y-76090641D01*
X135997500Y-76140639D01*
X135997500Y-76339361D01*
X135999184Y-76349991D01*
X136028587Y-76535637D01*
X136089993Y-76724629D01*
X136089994Y-76724632D01*
X136145221Y-76833019D01*
X136180213Y-76901694D01*
X136297019Y-77062464D01*
X136437536Y-77202981D01*
X136598306Y-77319787D01*
X136632905Y-77337416D01*
X136775367Y-77410005D01*
X136775370Y-77410006D01*
X136805874Y-77419917D01*
X136964364Y-77471413D01*
X137160639Y-77502500D01*
X137160640Y-77502500D01*
X137359360Y-77502500D01*
X137359361Y-77502500D01*
X137555636Y-77471413D01*
X137744632Y-77410005D01*
X137921694Y-77319787D01*
X138082464Y-77202981D01*
X138222981Y-77062464D01*
X138339787Y-76901694D01*
X138419515Y-76745218D01*
X138467490Y-76694423D01*
X138535311Y-76677628D01*
X138601446Y-76700165D01*
X138640484Y-76745218D01*
X138720213Y-76901694D01*
X138837019Y-77062464D01*
X138977536Y-77202981D01*
X139138306Y-77319787D01*
X139172905Y-77337416D01*
X139315367Y-77410005D01*
X139315370Y-77410006D01*
X139345874Y-77419917D01*
X139504364Y-77471413D01*
X139700639Y-77502500D01*
X139700640Y-77502500D01*
X139899360Y-77502500D01*
X139899361Y-77502500D01*
X140095636Y-77471413D01*
X140284632Y-77410005D01*
X140461694Y-77319787D01*
X140622464Y-77202981D01*
X140762981Y-77062464D01*
X140879787Y-76901694D01*
X140959515Y-76745218D01*
X141007490Y-76694423D01*
X141075311Y-76677628D01*
X141141446Y-76700165D01*
X141180484Y-76745218D01*
X141260213Y-76901694D01*
X141377019Y-77062464D01*
X141517536Y-77202981D01*
X141678306Y-77319787D01*
X141712905Y-77337416D01*
X141855367Y-77410005D01*
X141855370Y-77410006D01*
X141885874Y-77419917D01*
X142044364Y-77471413D01*
X142240639Y-77502500D01*
X142240640Y-77502500D01*
X142439360Y-77502500D01*
X142439361Y-77502500D01*
X142635636Y-77471413D01*
X142824632Y-77410005D01*
X143001694Y-77319787D01*
X143162464Y-77202981D01*
X143302981Y-77062464D01*
X143419787Y-76901694D01*
X143499515Y-76745218D01*
X143547490Y-76694423D01*
X143615311Y-76677628D01*
X143681446Y-76700165D01*
X143720484Y-76745218D01*
X143800213Y-76901694D01*
X143917019Y-77062464D01*
X144057536Y-77202981D01*
X144218306Y-77319787D01*
X144252905Y-77337416D01*
X144395367Y-77410005D01*
X144395370Y-77410006D01*
X144425874Y-77419917D01*
X144584364Y-77471413D01*
X144780639Y-77502500D01*
X144780640Y-77502500D01*
X144979360Y-77502500D01*
X144979361Y-77502500D01*
X145175636Y-77471413D01*
X145364632Y-77410005D01*
X145541694Y-77319787D01*
X145702464Y-77202981D01*
X145842981Y-77062464D01*
X145959787Y-76901694D01*
X146039515Y-76745218D01*
X146087490Y-76694423D01*
X146155311Y-76677628D01*
X146221446Y-76700165D01*
X146260484Y-76745218D01*
X146340213Y-76901694D01*
X146457019Y-77062464D01*
X146597536Y-77202981D01*
X146758306Y-77319787D01*
X146792905Y-77337416D01*
X146935367Y-77410005D01*
X146935370Y-77410006D01*
X146965874Y-77419917D01*
X147124364Y-77471413D01*
X147320639Y-77502500D01*
X147320640Y-77502500D01*
X147519360Y-77502500D01*
X147519361Y-77502500D01*
X147715636Y-77471413D01*
X147904632Y-77410005D01*
X148081694Y-77319787D01*
X148242464Y-77202981D01*
X148382981Y-77062464D01*
X148499787Y-76901694D01*
X148579796Y-76744667D01*
X148627769Y-76693872D01*
X148695590Y-76677077D01*
X148761725Y-76699614D01*
X148800765Y-76744668D01*
X148880641Y-76901432D01*
X148907730Y-76938715D01*
X148907731Y-76938716D01*
X149522352Y-76324094D01*
X149545792Y-76411571D01*
X149604311Y-76512930D01*
X149687070Y-76595689D01*
X149788429Y-76654208D01*
X149875905Y-76677647D01*
X149261283Y-77292268D01*
X149261283Y-77292269D01*
X149298567Y-77319358D01*
X149475562Y-77409542D01*
X149664477Y-77470924D01*
X149860679Y-77502000D01*
X150059319Y-77502000D01*
X150073826Y-77499702D01*
X150143120Y-77508656D01*
X150196572Y-77553651D01*
X150217213Y-77620402D01*
X150198489Y-77687716D01*
X150180907Y-77709856D01*
X145772454Y-82118309D01*
X145711131Y-82151794D01*
X145641439Y-82146810D01*
X145585506Y-82104938D01*
X145566842Y-82068945D01*
X145544756Y-82000971D01*
X145451859Y-81818650D01*
X145419474Y-81774077D01*
X145419474Y-81774076D01*
X144740000Y-82453551D01*
X144740000Y-82447339D01*
X144712741Y-82345606D01*
X144660080Y-82254394D01*
X144585606Y-82179920D01*
X144494394Y-82127259D01*
X144392661Y-82100000D01*
X144386446Y-82100000D01*
X145065922Y-81420524D01*
X145065921Y-81420523D01*
X145021359Y-81388147D01*
X145021350Y-81388141D01*
X144839031Y-81295244D01*
X144644417Y-81232009D01*
X144442317Y-81200000D01*
X144237683Y-81200000D01*
X144035582Y-81232009D01*
X143840968Y-81295244D01*
X143658644Y-81388143D01*
X143614077Y-81420523D01*
X143614077Y-81420524D01*
X144293554Y-82100000D01*
X144287339Y-82100000D01*
X144185606Y-82127259D01*
X144094394Y-82179920D01*
X144019920Y-82254394D01*
X143967259Y-82345606D01*
X143940000Y-82447339D01*
X143940000Y-82453553D01*
X143260524Y-81774077D01*
X143260523Y-81774077D01*
X143228143Y-81818644D01*
X143135244Y-82000968D01*
X143072009Y-82195582D01*
X143040000Y-82397682D01*
X143040000Y-82602317D01*
X143072009Y-82804417D01*
X143135244Y-82999031D01*
X143228142Y-83181352D01*
X143316971Y-83303615D01*
X143340451Y-83369421D01*
X143324626Y-83437475D01*
X143274520Y-83486170D01*
X143216653Y-83500500D01*
X141623965Y-83500500D01*
X141556926Y-83480815D01*
X141511171Y-83428011D01*
X141501227Y-83358853D01*
X141523646Y-83303615D01*
X141534185Y-83289109D01*
X141612287Y-83181610D01*
X141705220Y-82999219D01*
X141768477Y-82804534D01*
X141800500Y-82602352D01*
X141800500Y-82397648D01*
X141777980Y-82255463D01*
X141768477Y-82195465D01*
X141727368Y-82068945D01*
X141705220Y-82000781D01*
X141705218Y-82000778D01*
X141705218Y-82000776D01*
X141650025Y-81892455D01*
X141612287Y-81818390D01*
X141595134Y-81794781D01*
X141491971Y-81652786D01*
X141347213Y-81508028D01*
X141181613Y-81387715D01*
X141181612Y-81387714D01*
X141181610Y-81387713D01*
X141124653Y-81358691D01*
X140999223Y-81294781D01*
X140804534Y-81231522D01*
X140629995Y-81203878D01*
X140602352Y-81199500D01*
X140397648Y-81199500D01*
X140373329Y-81203351D01*
X140195465Y-81231522D01*
X140000776Y-81294781D01*
X139818386Y-81387715D01*
X139652786Y-81508028D01*
X139508028Y-81652786D01*
X139387715Y-81818386D01*
X139294781Y-82000776D01*
X139231522Y-82195465D01*
X139199500Y-82397648D01*
X139199500Y-82602352D01*
X139202704Y-82622580D01*
X139231522Y-82804534D01*
X139294781Y-82999223D01*
X139387712Y-83181609D01*
X139476354Y-83303615D01*
X139499833Y-83369422D01*
X139484007Y-83437476D01*
X139433901Y-83486170D01*
X139376035Y-83500500D01*
X131463965Y-83500500D01*
X131396926Y-83480815D01*
X131351171Y-83428011D01*
X131341227Y-83358853D01*
X131363646Y-83303615D01*
X131374185Y-83289109D01*
X131452287Y-83181610D01*
X131545220Y-82999219D01*
X131608477Y-82804534D01*
X131640500Y-82602352D01*
X131640500Y-82397648D01*
X131617980Y-82255463D01*
X131608477Y-82195465D01*
X131567368Y-82068945D01*
X131545220Y-82000781D01*
X131545218Y-82000778D01*
X131545218Y-82000776D01*
X131490025Y-81892455D01*
X131452287Y-81818390D01*
X131435134Y-81794781D01*
X131331971Y-81652786D01*
X131187213Y-81508028D01*
X131021613Y-81387715D01*
X131021612Y-81387714D01*
X131021610Y-81387713D01*
X130964653Y-81358691D01*
X130839223Y-81294781D01*
X130644534Y-81231522D01*
X130469995Y-81203878D01*
X130442352Y-81199500D01*
X130237648Y-81199500D01*
X130213329Y-81203351D01*
X130035465Y-81231522D01*
X129840776Y-81294781D01*
X129658386Y-81387715D01*
X129492786Y-81508028D01*
X129348028Y-81652786D01*
X129227715Y-81818386D01*
X129134781Y-82000776D01*
X129071522Y-82195465D01*
X129039500Y-82397648D01*
X129039500Y-82602352D01*
X129042704Y-82622580D01*
X129071522Y-82804534D01*
X129134781Y-82999223D01*
X129227712Y-83181609D01*
X129316354Y-83303615D01*
X129339833Y-83369422D01*
X129324007Y-83437476D01*
X129273901Y-83486170D01*
X129216035Y-83500500D01*
X128203965Y-83500500D01*
X128136926Y-83480815D01*
X128091171Y-83428011D01*
X128081227Y-83358853D01*
X128103646Y-83303615D01*
X128114185Y-83289109D01*
X128192287Y-83181610D01*
X128285220Y-82999219D01*
X128348477Y-82804534D01*
X128380500Y-82602352D01*
X128380500Y-82397648D01*
X128357980Y-82255463D01*
X128348477Y-82195465D01*
X128307368Y-82068945D01*
X128285220Y-82000781D01*
X128285218Y-82000778D01*
X128285218Y-82000776D01*
X128230025Y-81892455D01*
X128192287Y-81818390D01*
X128175134Y-81794781D01*
X128071971Y-81652786D01*
X127927213Y-81508028D01*
X127761613Y-81387715D01*
X127761612Y-81387714D01*
X127761610Y-81387713D01*
X127704653Y-81358691D01*
X127579223Y-81294781D01*
X127384534Y-81231522D01*
X127209995Y-81203878D01*
X127182352Y-81199500D01*
X126977648Y-81199500D01*
X126953329Y-81203351D01*
X126775465Y-81231522D01*
X126580776Y-81294781D01*
X126398386Y-81387715D01*
X126232786Y-81508028D01*
X126088028Y-81652786D01*
X125967715Y-81818386D01*
X125874781Y-82000776D01*
X125811522Y-82195465D01*
X125779500Y-82397648D01*
X125779500Y-82602352D01*
X125782704Y-82622580D01*
X125811522Y-82804534D01*
X125874781Y-82999223D01*
X125967712Y-83181609D01*
X126056354Y-83303615D01*
X126079833Y-83369422D01*
X126064007Y-83437476D01*
X126013901Y-83486170D01*
X125956035Y-83500500D01*
X118043965Y-83500500D01*
X117976926Y-83480815D01*
X117931171Y-83428011D01*
X117921227Y-83358853D01*
X117943646Y-83303615D01*
X117954185Y-83289109D01*
X118032287Y-83181610D01*
X118125220Y-82999219D01*
X118188477Y-82804534D01*
X118220500Y-82602352D01*
X118220500Y-82397648D01*
X118197980Y-82255463D01*
X118188477Y-82195465D01*
X118147368Y-82068945D01*
X118125220Y-82000781D01*
X118125218Y-82000778D01*
X118125218Y-82000776D01*
X118070025Y-81892455D01*
X118032287Y-81818390D01*
X118015134Y-81794781D01*
X117911971Y-81652786D01*
X117767213Y-81508028D01*
X117601613Y-81387715D01*
X117601612Y-81387714D01*
X117601610Y-81387713D01*
X117544653Y-81358691D01*
X117419223Y-81294781D01*
X117224534Y-81231522D01*
X117049995Y-81203878D01*
X117022352Y-81199500D01*
X116817648Y-81199500D01*
X116793329Y-81203351D01*
X116615465Y-81231522D01*
X116420776Y-81294781D01*
X116238386Y-81387715D01*
X116072786Y-81508028D01*
X115928028Y-81652786D01*
X115807715Y-81818386D01*
X115714781Y-82000776D01*
X115651522Y-82195465D01*
X115619500Y-82397648D01*
X115619500Y-82602352D01*
X115622704Y-82622580D01*
X115651522Y-82804534D01*
X115714781Y-82999223D01*
X115807712Y-83181609D01*
X115896354Y-83303615D01*
X115919833Y-83369422D01*
X115904007Y-83437476D01*
X115853901Y-83486170D01*
X115796035Y-83500500D01*
X109375476Y-83500500D01*
X109308437Y-83480815D01*
X109262682Y-83428011D01*
X109252738Y-83358853D01*
X109257545Y-83338183D01*
X109268475Y-83304542D01*
X109268475Y-83304538D01*
X109268477Y-83304534D01*
X109300500Y-83102352D01*
X109300500Y-82897648D01*
X109296555Y-82872741D01*
X109268477Y-82695465D01*
X109205218Y-82500776D01*
X109126154Y-82345606D01*
X109112287Y-82318390D01*
X109099095Y-82300233D01*
X108991971Y-82152786D01*
X108847213Y-82008028D01*
X108681613Y-81887715D01*
X108681612Y-81887714D01*
X108681610Y-81887713D01*
X108624653Y-81858691D01*
X108499223Y-81794781D01*
X108304534Y-81731522D01*
X108129995Y-81703878D01*
X108102352Y-81699500D01*
X107909096Y-81699500D01*
X107842057Y-81679815D01*
X107796302Y-81627011D01*
X107786358Y-81557853D01*
X107815383Y-81494297D01*
X107821415Y-81487819D01*
X108458735Y-80850500D01*
X111172417Y-78136819D01*
X111199344Y-78122115D01*
X111225163Y-78105523D01*
X111231363Y-78104631D01*
X111233740Y-78103334D01*
X111260098Y-78100500D01*
X111387195Y-78100500D01*
X111454234Y-78120185D01*
X111499989Y-78172989D01*
X111509933Y-78242147D01*
X111497680Y-78280795D01*
X111413082Y-78446825D01*
X111413081Y-78446828D01*
X111356928Y-78619649D01*
X111356928Y-78619652D01*
X111328500Y-78799139D01*
X111328500Y-78980860D01*
X111356928Y-79160347D01*
X111356928Y-79160350D01*
X111413081Y-79333171D01*
X111413083Y-79333174D01*
X111495583Y-79495090D01*
X111602397Y-79642106D01*
X111730894Y-79770603D01*
X111877910Y-79877417D01*
X112039826Y-79959917D01*
X112039828Y-79959918D01*
X112125629Y-79987796D01*
X112212654Y-80016072D01*
X112392139Y-80044500D01*
X112392140Y-80044500D01*
X112573860Y-80044500D01*
X112573861Y-80044500D01*
X112753346Y-80016072D01*
X112753349Y-80016071D01*
X112753350Y-80016071D01*
X112926171Y-79959918D01*
X112926171Y-79959917D01*
X112926174Y-79959917D01*
X113088090Y-79877417D01*
X113235106Y-79770603D01*
X113363603Y-79642106D01*
X113470417Y-79495090D01*
X113552917Y-79333174D01*
X113552918Y-79333171D01*
X113609071Y-79160350D01*
X113609071Y-79160349D01*
X113609072Y-79160346D01*
X113637500Y-78980861D01*
X113637500Y-78799139D01*
X113609072Y-78619654D01*
X113609071Y-78619650D01*
X113609071Y-78619649D01*
X113552918Y-78446828D01*
X113552917Y-78446825D01*
X113468320Y-78280795D01*
X113455424Y-78212126D01*
X113481700Y-78147385D01*
X113538807Y-78107128D01*
X113578805Y-78100500D01*
X128826903Y-78100500D01*
X128893942Y-78120185D01*
X128914584Y-78136819D01*
X129326181Y-78548416D01*
X129359666Y-78609739D01*
X129362500Y-78636097D01*
X129362500Y-79591870D01*
X129362501Y-79591876D01*
X129368908Y-79651483D01*
X129419202Y-79786328D01*
X129419206Y-79786335D01*
X129505452Y-79901544D01*
X129505455Y-79901547D01*
X129620664Y-79987793D01*
X129620671Y-79987797D01*
X129755517Y-80038091D01*
X129755516Y-80038091D01*
X129762444Y-80038835D01*
X129815127Y-80044500D01*
X131218872Y-80044499D01*
X131278483Y-80038091D01*
X131413331Y-79987796D01*
X131528546Y-79901546D01*
X131614796Y-79786331D01*
X131665091Y-79651483D01*
X131671500Y-79591873D01*
X131671499Y-78188128D01*
X131665091Y-78128517D01*
X131662703Y-78122115D01*
X131614797Y-77993671D01*
X131614793Y-77993664D01*
X131528547Y-77878455D01*
X131528544Y-77878452D01*
X131413335Y-77792206D01*
X131413328Y-77792202D01*
X131278482Y-77741908D01*
X131278483Y-77741908D01*
X131218883Y-77735501D01*
X131218881Y-77735500D01*
X131218873Y-77735500D01*
X131218865Y-77735500D01*
X130724950Y-77735500D01*
X130657911Y-77715815D01*
X130612156Y-77663011D01*
X130602212Y-77593853D01*
X130631237Y-77530297D01*
X130690015Y-77492523D01*
X130705552Y-77489027D01*
X130787346Y-77476072D01*
X130787349Y-77476071D01*
X130787350Y-77476071D01*
X130960171Y-77419918D01*
X130960171Y-77419917D01*
X130960174Y-77419917D01*
X131122090Y-77337417D01*
X131269106Y-77230603D01*
X131397603Y-77102106D01*
X131504417Y-76955090D01*
X131586917Y-76793174D01*
X131586926Y-76793147D01*
X131643071Y-76620350D01*
X131643071Y-76620349D01*
X131643072Y-76620346D01*
X131671500Y-76440861D01*
X131671500Y-76259139D01*
X131643072Y-76079654D01*
X131643071Y-76079650D01*
X131643071Y-76079649D01*
X131586918Y-75906828D01*
X131586916Y-75906825D01*
X131576533Y-75886446D01*
X131504417Y-75744910D01*
X131397603Y-75597894D01*
X131269106Y-75469397D01*
X131122090Y-75362583D01*
X130960174Y-75280083D01*
X130960171Y-75280081D01*
X130787349Y-75223928D01*
X130691008Y-75208669D01*
X130651884Y-75202472D01*
X130588750Y-75172544D01*
X130551819Y-75113232D01*
X130552817Y-75043370D01*
X130591427Y-74985137D01*
X130651884Y-74957527D01*
X130787346Y-74936072D01*
X130787349Y-74936071D01*
X130787350Y-74936071D01*
X130960171Y-74879918D01*
X130960171Y-74879917D01*
X130960174Y-74879917D01*
X131122090Y-74797417D01*
X131269106Y-74690603D01*
X131397603Y-74562106D01*
X131504417Y-74415090D01*
X131586917Y-74253174D01*
X131643072Y-74080346D01*
X131671500Y-73900861D01*
X131671500Y-73719139D01*
X131643072Y-73539654D01*
X131643071Y-73539650D01*
X131643071Y-73539649D01*
X131586918Y-73366828D01*
X131586916Y-73366825D01*
X131504416Y-73204909D01*
X131397603Y-73057894D01*
X131269106Y-72929397D01*
X131122090Y-72822583D01*
X130960174Y-72740083D01*
X130960171Y-72740081D01*
X130787349Y-72683928D01*
X130691008Y-72668669D01*
X130651884Y-72662472D01*
X130588750Y-72632544D01*
X130551819Y-72573232D01*
X130552817Y-72503370D01*
X130591427Y-72445137D01*
X130651884Y-72417527D01*
X130787346Y-72396072D01*
X130787349Y-72396071D01*
X130787350Y-72396071D01*
X130960171Y-72339918D01*
X130960171Y-72339917D01*
X130960174Y-72339917D01*
X131122090Y-72257417D01*
X131269106Y-72150603D01*
X131397603Y-72022106D01*
X131504417Y-71875090D01*
X131586917Y-71713174D01*
X131643072Y-71540346D01*
X131671500Y-71360861D01*
X131671500Y-71179139D01*
X131643072Y-70999654D01*
X131643071Y-70999650D01*
X131643071Y-70999649D01*
X131586918Y-70826828D01*
X131586916Y-70826825D01*
X131504416Y-70664909D01*
X131397603Y-70517894D01*
X131269106Y-70389397D01*
X131122090Y-70282583D01*
X130960174Y-70200083D01*
X130960171Y-70200081D01*
X130787349Y-70143928D01*
X130691008Y-70128669D01*
X130651884Y-70122472D01*
X130588750Y-70092544D01*
X130551819Y-70033232D01*
X130552817Y-69963370D01*
X130591427Y-69905137D01*
X130651884Y-69877527D01*
X130787346Y-69856072D01*
X130787349Y-69856071D01*
X130787350Y-69856071D01*
X130960171Y-69799918D01*
X130960171Y-69799917D01*
X130960174Y-69799917D01*
X131122090Y-69717417D01*
X131269106Y-69610603D01*
X131397603Y-69482106D01*
X131504417Y-69335090D01*
X131586917Y-69173174D01*
X131643072Y-69000346D01*
X131671500Y-68820861D01*
X131671500Y-68639139D01*
X131643072Y-68459654D01*
X131643071Y-68459650D01*
X131643071Y-68459649D01*
X131586918Y-68286828D01*
X131586916Y-68286825D01*
X131504416Y-68124909D01*
X131397603Y-67977894D01*
X131269106Y-67849397D01*
X131122090Y-67742583D01*
X130960174Y-67660083D01*
X130960171Y-67660081D01*
X130787349Y-67603928D01*
X130691008Y-67588669D01*
X130651884Y-67582472D01*
X130588750Y-67552544D01*
X130551819Y-67493232D01*
X130552817Y-67423370D01*
X130591427Y-67365137D01*
X130651884Y-67337527D01*
X130787346Y-67316072D01*
X130787349Y-67316071D01*
X130787350Y-67316071D01*
X130960171Y-67259918D01*
X130960171Y-67259917D01*
X130960174Y-67259917D01*
X131122090Y-67177417D01*
X131269106Y-67070603D01*
X131397603Y-66942106D01*
X131504417Y-66795090D01*
X131586917Y-66633174D01*
X131643072Y-66460346D01*
X131671500Y-66280861D01*
X131671500Y-66099139D01*
X131643072Y-65919654D01*
X131643071Y-65919650D01*
X131643071Y-65919649D01*
X131586918Y-65746828D01*
X131586916Y-65746825D01*
X131537586Y-65650008D01*
X131504417Y-65584910D01*
X131397603Y-65437894D01*
X131269106Y-65309397D01*
X131122090Y-65202583D01*
X130960174Y-65120083D01*
X130960171Y-65120081D01*
X130787349Y-65063928D01*
X130650286Y-65042219D01*
X130587152Y-65012289D01*
X130550221Y-64952978D01*
X130551219Y-64883115D01*
X130589829Y-64824883D01*
X130650288Y-64797273D01*
X130787224Y-64775585D01*
X130787225Y-64775584D01*
X130959984Y-64719451D01*
X131121831Y-64636986D01*
X131138396Y-64624949D01*
X130563447Y-64050000D01*
X130569661Y-64050000D01*
X130671394Y-64022741D01*
X130762606Y-63970080D01*
X130837080Y-63895606D01*
X130889741Y-63804394D01*
X130917000Y-63702661D01*
X130917000Y-63696446D01*
X131491949Y-64271395D01*
X131503986Y-64254831D01*
X131586451Y-64092984D01*
X131642584Y-63920225D01*
X131671000Y-63740821D01*
X131671000Y-63559178D01*
X131642584Y-63379774D01*
X131586450Y-63207012D01*
X131503993Y-63045179D01*
X131503985Y-63045165D01*
X131491950Y-63028603D01*
X131491949Y-63028602D01*
X130917000Y-63603552D01*
X130917000Y-63597339D01*
X130889741Y-63495606D01*
X130837080Y-63404394D01*
X130762606Y-63329920D01*
X130671394Y-63277259D01*
X130569661Y-63250000D01*
X130563447Y-63250000D01*
X131138396Y-62675049D01*
X131138395Y-62675048D01*
X131121834Y-62663014D01*
X131121830Y-62663012D01*
X130959984Y-62580548D01*
X130787225Y-62524415D01*
X130650287Y-62502726D01*
X130587152Y-62472797D01*
X130550221Y-62413485D01*
X130551219Y-62343622D01*
X130589829Y-62285390D01*
X130650286Y-62257780D01*
X130787346Y-62236072D01*
X130787349Y-62236071D01*
X130787350Y-62236071D01*
X130960171Y-62179918D01*
X130960171Y-62179917D01*
X130960174Y-62179917D01*
X131122090Y-62097417D01*
X131269106Y-61990603D01*
X131397603Y-61862106D01*
X131504417Y-61715090D01*
X131586917Y-61553174D01*
X131586918Y-61553171D01*
X131643071Y-61380350D01*
X131643071Y-61380349D01*
X131643072Y-61380346D01*
X131671500Y-61200861D01*
X131671500Y-61019139D01*
X131643072Y-60839654D01*
X131643071Y-60839650D01*
X131643071Y-60839649D01*
X131586918Y-60666828D01*
X131586916Y-60666825D01*
X131533695Y-60562371D01*
X131504417Y-60504910D01*
X131397603Y-60357894D01*
X131269106Y-60229397D01*
X131122090Y-60122583D01*
X130960174Y-60040083D01*
X130960171Y-60040081D01*
X130787348Y-59983928D01*
X130667689Y-59964976D01*
X130607861Y-59955500D01*
X130426139Y-59955500D01*
X130366310Y-59964976D01*
X130246652Y-59983928D01*
X130246649Y-59983928D01*
X130073828Y-60040081D01*
X130073825Y-60040083D01*
X129911909Y-60122583D01*
X129836278Y-60177533D01*
X129764894Y-60229397D01*
X129764892Y-60229399D01*
X129764891Y-60229399D01*
X129636399Y-60357891D01*
X129636399Y-60357892D01*
X129636397Y-60357894D01*
X129590525Y-60421030D01*
X129529583Y-60504909D01*
X129447083Y-60666825D01*
X129447081Y-60666828D01*
X129390928Y-60839649D01*
X129390928Y-60839652D01*
X129362500Y-61019139D01*
X129362500Y-61200860D01*
X129390928Y-61380347D01*
X129390928Y-61380350D01*
X129447081Y-61553171D01*
X129447083Y-61553174D01*
X129529583Y-61715090D01*
X129636397Y-61862106D01*
X129764894Y-61990603D01*
X129911910Y-62097417D01*
X130073826Y-62179917D01*
X130073828Y-62179918D01*
X130157225Y-62207015D01*
X130246654Y-62236072D01*
X130383712Y-62257780D01*
X130446847Y-62287709D01*
X130483778Y-62347021D01*
X130482780Y-62416883D01*
X130444170Y-62475116D01*
X130383712Y-62502726D01*
X130246774Y-62524415D01*
X130074015Y-62580548D01*
X129912170Y-62663012D01*
X129912161Y-62663018D01*
X129895603Y-62675048D01*
X129895602Y-62675049D01*
X130470554Y-63250000D01*
X130464339Y-63250000D01*
X130362606Y-63277259D01*
X130271394Y-63329920D01*
X130196920Y-63404394D01*
X130144259Y-63495606D01*
X130117000Y-63597339D01*
X130117000Y-63603553D01*
X129542049Y-63028602D01*
X129542048Y-63028603D01*
X129530018Y-63045161D01*
X129530012Y-63045170D01*
X129447548Y-63207015D01*
X129391415Y-63379774D01*
X129363000Y-63559178D01*
X129363000Y-63740821D01*
X129391415Y-63920225D01*
X129447548Y-64092984D01*
X129530012Y-64254830D01*
X129530014Y-64254834D01*
X129542048Y-64271395D01*
X129542049Y-64271396D01*
X130117000Y-63696445D01*
X130117000Y-63702661D01*
X130144259Y-63804394D01*
X130196920Y-63895606D01*
X130271394Y-63970080D01*
X130362606Y-64022741D01*
X130464339Y-64050000D01*
X130470554Y-64050000D01*
X129895602Y-64624949D01*
X129895603Y-64624950D01*
X129912165Y-64636985D01*
X129912179Y-64636993D01*
X130074012Y-64719450D01*
X130246774Y-64775584D01*
X130246775Y-64775585D01*
X130383711Y-64797273D01*
X130446846Y-64827202D01*
X130483778Y-64886513D01*
X130482780Y-64956376D01*
X130444171Y-65014609D01*
X130383713Y-65042219D01*
X130246650Y-65063928D01*
X130246649Y-65063928D01*
X130073828Y-65120081D01*
X130073825Y-65120083D01*
X129911909Y-65202583D01*
X129828030Y-65263525D01*
X129764894Y-65309397D01*
X129764892Y-65309399D01*
X129764891Y-65309399D01*
X129636399Y-65437891D01*
X129636399Y-65437892D01*
X129636397Y-65437894D01*
X129590525Y-65501030D01*
X129529583Y-65584909D01*
X129447083Y-65746825D01*
X129447081Y-65746828D01*
X129390928Y-65919649D01*
X129390928Y-65919652D01*
X129362500Y-66099139D01*
X129362500Y-66280860D01*
X129390928Y-66460347D01*
X129390928Y-66460350D01*
X129447081Y-66633171D01*
X129447083Y-66633174D01*
X129529583Y-66795090D01*
X129636397Y-66942106D01*
X129764894Y-67070603D01*
X129911910Y-67177417D01*
X130073826Y-67259917D01*
X130073828Y-67259918D01*
X130235029Y-67312294D01*
X130246654Y-67316072D01*
X130382114Y-67337527D01*
X130445249Y-67367456D01*
X130482180Y-67426768D01*
X130481182Y-67496630D01*
X130442572Y-67554863D01*
X130382114Y-67582473D01*
X130246652Y-67603928D01*
X130246649Y-67603928D01*
X130073828Y-67660081D01*
X130073825Y-67660083D01*
X129911909Y-67742583D01*
X129828030Y-67803525D01*
X129764894Y-67849397D01*
X129764892Y-67849399D01*
X129764891Y-67849399D01*
X129636399Y-67977891D01*
X129636399Y-67977892D01*
X129636397Y-67977894D01*
X129590525Y-68041030D01*
X129529583Y-68124909D01*
X129447083Y-68286825D01*
X129447081Y-68286828D01*
X129390928Y-68459649D01*
X129390928Y-68459652D01*
X129362500Y-68639139D01*
X129362500Y-68820860D01*
X129390928Y-69000347D01*
X129390928Y-69000350D01*
X129447081Y-69173171D01*
X129447083Y-69173174D01*
X129529583Y-69335090D01*
X129636397Y-69482106D01*
X129764894Y-69610603D01*
X129911910Y-69717417D01*
X130073826Y-69799917D01*
X130073828Y-69799918D01*
X130235029Y-69852294D01*
X130246654Y-69856072D01*
X130382114Y-69877527D01*
X130445249Y-69907456D01*
X130482180Y-69966768D01*
X130481182Y-70036630D01*
X130442572Y-70094863D01*
X130382114Y-70122473D01*
X130246652Y-70143928D01*
X130246649Y-70143928D01*
X130073828Y-70200081D01*
X130073825Y-70200083D01*
X129911909Y-70282583D01*
X129828030Y-70343525D01*
X129764894Y-70389397D01*
X129764892Y-70389399D01*
X129764891Y-70389399D01*
X129636399Y-70517891D01*
X129636399Y-70517892D01*
X129636397Y-70517894D01*
X129590525Y-70581030D01*
X129529583Y-70664909D01*
X129447083Y-70826825D01*
X129447081Y-70826828D01*
X129390928Y-70999649D01*
X129390928Y-70999652D01*
X129362500Y-71179139D01*
X129362500Y-71360860D01*
X129390928Y-71540347D01*
X129390928Y-71540350D01*
X129447081Y-71713171D01*
X129447083Y-71713174D01*
X129529583Y-71875090D01*
X129636397Y-72022106D01*
X129764894Y-72150603D01*
X129911910Y-72257417D01*
X130073826Y-72339917D01*
X130073828Y-72339918D01*
X130235029Y-72392294D01*
X130246654Y-72396072D01*
X130382114Y-72417527D01*
X130445249Y-72447456D01*
X130482180Y-72506768D01*
X130481182Y-72576630D01*
X130442572Y-72634863D01*
X130382114Y-72662473D01*
X130246652Y-72683928D01*
X130246649Y-72683928D01*
X130073828Y-72740081D01*
X130073825Y-72740083D01*
X129911909Y-72822583D01*
X129828030Y-72883525D01*
X129764894Y-72929397D01*
X129764892Y-72929399D01*
X129764891Y-72929399D01*
X129636399Y-73057891D01*
X129636399Y-73057892D01*
X129636397Y-73057894D01*
X129590525Y-73121030D01*
X129529583Y-73204909D01*
X129447083Y-73366825D01*
X129447081Y-73366828D01*
X129390928Y-73539649D01*
X129390928Y-73539652D01*
X129362500Y-73719139D01*
X129362500Y-73900860D01*
X129390928Y-74080347D01*
X129390928Y-74080350D01*
X129447081Y-74253171D01*
X129447083Y-74253174D01*
X129529583Y-74415090D01*
X129636397Y-74562106D01*
X129764894Y-74690603D01*
X129911910Y-74797417D01*
X130073826Y-74879917D01*
X130073828Y-74879918D01*
X130223014Y-74928391D01*
X130246654Y-74936072D01*
X130382114Y-74957527D01*
X130445249Y-74987456D01*
X130482180Y-75046768D01*
X130481182Y-75116630D01*
X130442572Y-75174863D01*
X130382114Y-75202473D01*
X130246652Y-75223928D01*
X130246649Y-75223928D01*
X130073828Y-75280081D01*
X130073825Y-75280083D01*
X129911909Y-75362583D01*
X129860274Y-75400099D01*
X129764894Y-75469397D01*
X129764892Y-75469399D01*
X129764891Y-75469399D01*
X129636399Y-75597891D01*
X129636399Y-75597892D01*
X129636397Y-75597894D01*
X129598903Y-75649500D01*
X129529583Y-75744909D01*
X129447083Y-75906825D01*
X129447081Y-75906828D01*
X129390928Y-76079649D01*
X129390928Y-76079652D01*
X129362500Y-76259139D01*
X129362500Y-76440860D01*
X129390928Y-76620347D01*
X129390928Y-76620350D01*
X129437336Y-76763178D01*
X129439331Y-76833019D01*
X129403251Y-76892852D01*
X129340550Y-76923680D01*
X129287312Y-76921271D01*
X129232337Y-76906540D01*
X129206057Y-76899499D01*
X129047943Y-76899499D01*
X129040347Y-76899499D01*
X129040331Y-76899500D01*
X113689041Y-76899500D01*
X113622002Y-76879815D01*
X113576247Y-76827011D01*
X113566303Y-76757853D01*
X113571110Y-76737182D01*
X113609071Y-76620350D01*
X113609071Y-76620349D01*
X113609072Y-76620346D01*
X113637500Y-76440861D01*
X113637500Y-76259139D01*
X113609072Y-76079654D01*
X113609071Y-76079650D01*
X113609071Y-76079649D01*
X113552918Y-75906828D01*
X113552916Y-75906825D01*
X113542533Y-75886446D01*
X113470417Y-75744910D01*
X113363603Y-75597894D01*
X113235106Y-75469397D01*
X113088090Y-75362583D01*
X112926174Y-75280083D01*
X112926171Y-75280081D01*
X112753349Y-75223928D01*
X112657008Y-75208669D01*
X112617884Y-75202472D01*
X112554750Y-75172544D01*
X112517819Y-75113232D01*
X112518817Y-75043370D01*
X112557427Y-74985137D01*
X112617884Y-74957527D01*
X112753346Y-74936072D01*
X112753349Y-74936071D01*
X112753350Y-74936071D01*
X112926171Y-74879918D01*
X112926171Y-74879917D01*
X112926174Y-74879917D01*
X113088090Y-74797417D01*
X113235106Y-74690603D01*
X113363603Y-74562106D01*
X113470417Y-74415090D01*
X113552917Y-74253174D01*
X113609072Y-74080346D01*
X113637500Y-73900861D01*
X113637500Y-73719139D01*
X113609072Y-73539654D01*
X113609071Y-73539650D01*
X113609071Y-73539649D01*
X113552918Y-73366828D01*
X113552916Y-73366825D01*
X113470416Y-73204909D01*
X113363603Y-73057894D01*
X113235106Y-72929397D01*
X113088090Y-72822583D01*
X112926174Y-72740083D01*
X112926171Y-72740081D01*
X112753349Y-72683928D01*
X112657008Y-72668669D01*
X112617884Y-72662472D01*
X112554750Y-72632544D01*
X112517819Y-72573232D01*
X112518817Y-72503370D01*
X112557427Y-72445137D01*
X112617884Y-72417527D01*
X112753346Y-72396072D01*
X112753349Y-72396071D01*
X112753350Y-72396071D01*
X112926171Y-72339918D01*
X112926171Y-72339917D01*
X112926174Y-72339917D01*
X113088090Y-72257417D01*
X113235106Y-72150603D01*
X113363603Y-72022106D01*
X113470417Y-71875090D01*
X113552917Y-71713174D01*
X113609072Y-71540346D01*
X113637500Y-71360861D01*
X113637500Y-71179139D01*
X113609072Y-70999654D01*
X113609071Y-70999650D01*
X113609071Y-70999649D01*
X113552918Y-70826828D01*
X113552916Y-70826825D01*
X113470416Y-70664909D01*
X113363603Y-70517894D01*
X113235106Y-70389397D01*
X113088090Y-70282583D01*
X112926174Y-70200083D01*
X112926171Y-70200081D01*
X112753349Y-70143928D01*
X112657008Y-70128669D01*
X112617884Y-70122472D01*
X112554750Y-70092544D01*
X112517819Y-70033232D01*
X112518817Y-69963370D01*
X112557427Y-69905137D01*
X112617884Y-69877527D01*
X112753346Y-69856072D01*
X112753349Y-69856071D01*
X112753350Y-69856071D01*
X112926171Y-69799918D01*
X112926171Y-69799917D01*
X112926174Y-69799917D01*
X113088090Y-69717417D01*
X113235106Y-69610603D01*
X113363603Y-69482106D01*
X113470417Y-69335090D01*
X113552917Y-69173174D01*
X113609072Y-69000346D01*
X113637500Y-68820861D01*
X113637500Y-68639139D01*
X113609072Y-68459654D01*
X113609071Y-68459650D01*
X113609071Y-68459649D01*
X113552918Y-68286828D01*
X113552916Y-68286825D01*
X113470416Y-68124909D01*
X113363603Y-67977894D01*
X113235106Y-67849397D01*
X113088090Y-67742583D01*
X112926174Y-67660083D01*
X112926171Y-67660081D01*
X112753349Y-67603928D01*
X112657008Y-67588669D01*
X112617884Y-67582472D01*
X112554750Y-67552544D01*
X112517819Y-67493232D01*
X112518817Y-67423370D01*
X112557427Y-67365137D01*
X112617884Y-67337527D01*
X112753346Y-67316072D01*
X112753349Y-67316071D01*
X112753350Y-67316071D01*
X112926171Y-67259918D01*
X112926171Y-67259917D01*
X112926174Y-67259917D01*
X113088090Y-67177417D01*
X113235106Y-67070603D01*
X113363603Y-66942106D01*
X113470417Y-66795090D01*
X113552917Y-66633174D01*
X113609072Y-66460346D01*
X113637500Y-66280861D01*
X113637500Y-66099139D01*
X113609072Y-65919654D01*
X113609071Y-65919650D01*
X113609071Y-65919649D01*
X113552918Y-65746828D01*
X113552916Y-65746825D01*
X113503586Y-65650008D01*
X113470417Y-65584910D01*
X113363603Y-65437894D01*
X113235106Y-65309397D01*
X113088090Y-65202583D01*
X112926174Y-65120083D01*
X112926171Y-65120081D01*
X112753349Y-65063928D01*
X112616286Y-65042219D01*
X112553152Y-65012289D01*
X112516221Y-64952978D01*
X112517219Y-64883115D01*
X112555829Y-64824883D01*
X112616288Y-64797273D01*
X112753224Y-64775585D01*
X112753225Y-64775584D01*
X112925984Y-64719451D01*
X113087831Y-64636986D01*
X113104396Y-64624949D01*
X112529447Y-64050000D01*
X112535661Y-64050000D01*
X112637394Y-64022741D01*
X112728606Y-63970080D01*
X112803080Y-63895606D01*
X112855741Y-63804394D01*
X112883000Y-63702661D01*
X112883000Y-63696446D01*
X113457949Y-64271395D01*
X113469986Y-64254831D01*
X113552451Y-64092984D01*
X113608584Y-63920225D01*
X113637000Y-63740821D01*
X113637000Y-63559178D01*
X113608584Y-63379774D01*
X113552450Y-63207012D01*
X113469993Y-63045179D01*
X113469985Y-63045165D01*
X113457950Y-63028603D01*
X113457949Y-63028602D01*
X112883000Y-63603552D01*
X112883000Y-63597339D01*
X112855741Y-63495606D01*
X112803080Y-63404394D01*
X112728606Y-63329920D01*
X112637394Y-63277259D01*
X112535661Y-63250000D01*
X112529447Y-63250000D01*
X113104396Y-62675049D01*
X113104395Y-62675048D01*
X113087834Y-62663014D01*
X113087830Y-62663012D01*
X112925984Y-62580548D01*
X112753225Y-62524415D01*
X112616287Y-62502726D01*
X112553152Y-62472797D01*
X112516221Y-62413485D01*
X112517219Y-62343622D01*
X112555829Y-62285390D01*
X112616286Y-62257780D01*
X112753346Y-62236072D01*
X112753349Y-62236071D01*
X112753350Y-62236071D01*
X112926171Y-62179918D01*
X112926171Y-62179917D01*
X112926174Y-62179917D01*
X113088090Y-62097417D01*
X113235106Y-61990603D01*
X113363603Y-61862106D01*
X113470417Y-61715090D01*
X113552917Y-61553174D01*
X113552918Y-61553171D01*
X113609071Y-61380350D01*
X113609071Y-61380349D01*
X113609072Y-61380346D01*
X113637500Y-61200861D01*
X113637500Y-61019139D01*
X113609072Y-60839654D01*
X113609071Y-60839650D01*
X113609071Y-60839649D01*
X113552918Y-60666828D01*
X113552916Y-60666825D01*
X113499695Y-60562371D01*
X113470417Y-60504910D01*
X113363603Y-60357894D01*
X113235106Y-60229397D01*
X113088090Y-60122583D01*
X112926174Y-60040083D01*
X112926171Y-60040081D01*
X112753348Y-59983928D01*
X112633689Y-59964976D01*
X112573861Y-59955500D01*
X112392139Y-59955500D01*
X112332310Y-59964976D01*
X112212652Y-59983928D01*
X112212649Y-59983928D01*
X112039828Y-60040081D01*
X112039825Y-60040083D01*
X111877909Y-60122583D01*
X111802278Y-60177533D01*
X111730894Y-60229397D01*
X111730892Y-60229399D01*
X111730891Y-60229399D01*
X111602399Y-60357891D01*
X111602399Y-60357892D01*
X111602397Y-60357894D01*
X111556525Y-60421030D01*
X111495583Y-60504909D01*
X111413083Y-60666825D01*
X111413081Y-60666828D01*
X111356928Y-60839649D01*
X111356928Y-60839652D01*
X111328500Y-61019139D01*
X111328500Y-61200860D01*
X111356928Y-61380347D01*
X111356928Y-61380350D01*
X111413081Y-61553171D01*
X111413083Y-61553174D01*
X111495583Y-61715090D01*
X111602397Y-61862106D01*
X111730894Y-61990603D01*
X111877910Y-62097417D01*
X112039826Y-62179917D01*
X112039828Y-62179918D01*
X112123225Y-62207015D01*
X112212654Y-62236072D01*
X112349712Y-62257780D01*
X112412847Y-62287709D01*
X112449778Y-62347021D01*
X112448780Y-62416883D01*
X112410170Y-62475116D01*
X112349712Y-62502726D01*
X112212774Y-62524415D01*
X112040015Y-62580548D01*
X111878170Y-62663012D01*
X111878161Y-62663018D01*
X111861603Y-62675048D01*
X111861602Y-62675049D01*
X112436554Y-63250000D01*
X112430339Y-63250000D01*
X112328606Y-63277259D01*
X112237394Y-63329920D01*
X112162920Y-63404394D01*
X112110259Y-63495606D01*
X112083000Y-63597339D01*
X112083000Y-63603553D01*
X111508049Y-63028602D01*
X111508048Y-63028603D01*
X111496018Y-63045161D01*
X111496012Y-63045170D01*
X111413548Y-63207015D01*
X111357415Y-63379774D01*
X111329000Y-63559178D01*
X111329000Y-63740821D01*
X111357415Y-63920225D01*
X111413548Y-64092984D01*
X111496012Y-64254830D01*
X111496014Y-64254834D01*
X111508048Y-64271395D01*
X111508049Y-64271396D01*
X112083000Y-63696445D01*
X112083000Y-63702661D01*
X112110259Y-63804394D01*
X112162920Y-63895606D01*
X112237394Y-63970080D01*
X112328606Y-64022741D01*
X112430339Y-64050000D01*
X112436554Y-64050000D01*
X111861602Y-64624949D01*
X111861603Y-64624950D01*
X111878165Y-64636985D01*
X111878179Y-64636993D01*
X112040012Y-64719450D01*
X112212774Y-64775584D01*
X112212775Y-64775585D01*
X112349711Y-64797273D01*
X112412846Y-64827202D01*
X112449778Y-64886513D01*
X112448780Y-64956376D01*
X112410171Y-65014609D01*
X112349713Y-65042219D01*
X112212650Y-65063928D01*
X112212649Y-65063928D01*
X112039828Y-65120081D01*
X112039825Y-65120083D01*
X111877909Y-65202583D01*
X111794030Y-65263525D01*
X111730894Y-65309397D01*
X111730892Y-65309399D01*
X111730891Y-65309399D01*
X111602399Y-65437891D01*
X111602399Y-65437892D01*
X111602397Y-65437894D01*
X111556525Y-65501030D01*
X111495583Y-65584909D01*
X111413083Y-65746825D01*
X111413081Y-65746828D01*
X111356928Y-65919649D01*
X111356928Y-65919652D01*
X111328500Y-66099139D01*
X111328500Y-66280860D01*
X111356928Y-66460347D01*
X111356928Y-66460350D01*
X111413081Y-66633171D01*
X111413083Y-66633174D01*
X111495583Y-66795090D01*
X111602397Y-66942106D01*
X111730894Y-67070603D01*
X111877910Y-67177417D01*
X112039826Y-67259917D01*
X112039828Y-67259918D01*
X112201029Y-67312294D01*
X112212654Y-67316072D01*
X112348114Y-67337527D01*
X112411249Y-67367456D01*
X112448180Y-67426768D01*
X112447182Y-67496630D01*
X112408572Y-67554863D01*
X112348114Y-67582473D01*
X112212652Y-67603928D01*
X112212649Y-67603928D01*
X112039828Y-67660081D01*
X112039825Y-67660083D01*
X111877909Y-67742583D01*
X111794030Y-67803525D01*
X111730894Y-67849397D01*
X111730892Y-67849399D01*
X111730891Y-67849399D01*
X111602399Y-67977891D01*
X111602399Y-67977892D01*
X111602397Y-67977894D01*
X111556525Y-68041030D01*
X111495583Y-68124909D01*
X111413083Y-68286825D01*
X111413081Y-68286828D01*
X111356928Y-68459649D01*
X111356928Y-68459652D01*
X111328500Y-68639139D01*
X111328500Y-68820860D01*
X111356928Y-69000347D01*
X111356928Y-69000350D01*
X111413081Y-69173171D01*
X111413083Y-69173174D01*
X111495583Y-69335090D01*
X111602397Y-69482106D01*
X111730894Y-69610603D01*
X111877910Y-69717417D01*
X112039826Y-69799917D01*
X112039828Y-69799918D01*
X112201029Y-69852294D01*
X112212654Y-69856072D01*
X112348114Y-69877527D01*
X112411249Y-69907456D01*
X112448180Y-69966768D01*
X112447182Y-70036630D01*
X112408572Y-70094863D01*
X112348114Y-70122473D01*
X112212652Y-70143928D01*
X112212649Y-70143928D01*
X112039828Y-70200081D01*
X112039825Y-70200083D01*
X111877909Y-70282583D01*
X111794030Y-70343525D01*
X111730894Y-70389397D01*
X111730892Y-70389399D01*
X111730891Y-70389399D01*
X111602399Y-70517891D01*
X111602399Y-70517892D01*
X111602397Y-70517894D01*
X111556525Y-70581030D01*
X111495583Y-70664909D01*
X111413083Y-70826825D01*
X111413081Y-70826828D01*
X111356928Y-70999649D01*
X111356928Y-70999652D01*
X111328500Y-71179139D01*
X111328500Y-71360860D01*
X111356928Y-71540347D01*
X111356928Y-71540350D01*
X111413081Y-71713171D01*
X111413083Y-71713174D01*
X111495583Y-71875090D01*
X111602397Y-72022106D01*
X111730894Y-72150603D01*
X111877910Y-72257417D01*
X112039826Y-72339917D01*
X112039828Y-72339918D01*
X112201029Y-72392294D01*
X112212654Y-72396072D01*
X112348114Y-72417527D01*
X112411249Y-72447456D01*
X112448180Y-72506768D01*
X112447182Y-72576630D01*
X112408572Y-72634863D01*
X112348114Y-72662473D01*
X112212652Y-72683928D01*
X112212649Y-72683928D01*
X112039828Y-72740081D01*
X112039825Y-72740083D01*
X111877909Y-72822583D01*
X111794030Y-72883525D01*
X111730894Y-72929397D01*
X111730892Y-72929399D01*
X111730891Y-72929399D01*
X111602399Y-73057891D01*
X111602399Y-73057892D01*
X111602397Y-73057894D01*
X111556525Y-73121030D01*
X111495583Y-73204909D01*
X111413083Y-73366825D01*
X111413081Y-73366828D01*
X111356928Y-73539649D01*
X111356928Y-73539652D01*
X111328500Y-73719139D01*
X111328500Y-73900860D01*
X111356928Y-74080347D01*
X111356928Y-74080350D01*
X111413081Y-74253171D01*
X111413083Y-74253174D01*
X111495583Y-74415090D01*
X111602397Y-74562106D01*
X111730894Y-74690603D01*
X111877910Y-74797417D01*
X112039826Y-74879917D01*
X112039828Y-74879918D01*
X112189014Y-74928391D01*
X112212654Y-74936072D01*
X112348114Y-74957527D01*
X112411249Y-74987456D01*
X112448180Y-75046768D01*
X112447182Y-75116630D01*
X112408572Y-75174863D01*
X112348114Y-75202473D01*
X112212652Y-75223928D01*
X112212649Y-75223928D01*
X112039828Y-75280081D01*
X112039825Y-75280083D01*
X111877909Y-75362583D01*
X111826274Y-75400099D01*
X111730894Y-75469397D01*
X111730892Y-75469399D01*
X111730891Y-75469399D01*
X111602399Y-75597891D01*
X111602399Y-75597892D01*
X111602397Y-75597894D01*
X111564903Y-75649500D01*
X111495583Y-75744909D01*
X111413083Y-75906825D01*
X111413081Y-75906828D01*
X111356928Y-76079649D01*
X111356928Y-76079652D01*
X111328500Y-76259139D01*
X111328500Y-76440860D01*
X111356928Y-76620347D01*
X111356928Y-76620350D01*
X111394890Y-76737182D01*
X111395693Y-76765301D01*
X111399697Y-76793147D01*
X111396677Y-76799758D01*
X111396885Y-76807023D01*
X111382358Y-76831112D01*
X111370672Y-76856703D01*
X111364558Y-76860632D01*
X111360805Y-76866856D01*
X111335558Y-76879268D01*
X111311894Y-76894477D01*
X111301623Y-76895953D01*
X111298104Y-76897684D01*
X111276959Y-76899500D01*
X111046670Y-76899500D01*
X111046654Y-76899499D01*
X111039058Y-76899499D01*
X110880943Y-76899499D01*
X110804579Y-76919961D01*
X110728214Y-76940423D01*
X110728209Y-76940426D01*
X110591290Y-77019475D01*
X110591282Y-77019481D01*
X105897582Y-81713181D01*
X105836259Y-81746666D01*
X105809901Y-81749500D01*
X104662129Y-81749500D01*
X104662123Y-81749501D01*
X104602516Y-81755908D01*
X104467671Y-81806202D01*
X104467664Y-81806206D01*
X104352455Y-81892452D01*
X104352452Y-81892455D01*
X104266206Y-82007664D01*
X104266202Y-82007671D01*
X104215908Y-82142516D01*
X104210176Y-82195834D01*
X104183438Y-82260385D01*
X104126045Y-82300233D01*
X104056220Y-82302726D01*
X103996131Y-82267073D01*
X103986569Y-82255463D01*
X103911971Y-82152786D01*
X103767213Y-82008028D01*
X103601613Y-81887715D01*
X103601612Y-81887714D01*
X103601610Y-81887713D01*
X103544653Y-81858691D01*
X103419223Y-81794781D01*
X103224534Y-81731522D01*
X103049995Y-81703878D01*
X103022352Y-81699500D01*
X102817648Y-81699500D01*
X102793329Y-81703351D01*
X102615465Y-81731522D01*
X102420776Y-81794781D01*
X102238386Y-81887715D01*
X102072786Y-82008028D01*
X101928028Y-82152786D01*
X101807715Y-82318386D01*
X101714781Y-82500776D01*
X101651522Y-82695465D01*
X101619500Y-82897648D01*
X101619500Y-83102351D01*
X101651522Y-83304534D01*
X101714781Y-83499223D01*
X101807715Y-83681613D01*
X101928028Y-83847213D01*
X102072786Y-83991971D01*
X102227749Y-84104556D01*
X102238390Y-84112287D01*
X102354607Y-84171503D01*
X102420776Y-84205218D01*
X102420778Y-84205218D01*
X102420781Y-84205220D01*
X102524881Y-84239044D01*
X102581894Y-84257569D01*
X102639569Y-84297007D01*
X102666767Y-84361366D01*
X102654852Y-84430212D01*
X102607608Y-84481688D01*
X102543575Y-84499500D01*
X97624500Y-84499500D01*
X97557461Y-84479815D01*
X97511706Y-84427011D01*
X97500500Y-84375500D01*
X97500500Y-76849983D01*
X101499500Y-76849983D01*
X101499500Y-78150001D01*
X101499501Y-78150018D01*
X101510000Y-78252796D01*
X101510001Y-78252799D01*
X101520610Y-78284814D01*
X101565186Y-78419334D01*
X101657288Y-78568656D01*
X101781344Y-78692712D01*
X101930666Y-78784814D01*
X102097203Y-78839999D01*
X102199991Y-78850500D01*
X103800008Y-78850499D01*
X103902797Y-78839999D01*
X104069334Y-78784814D01*
X104218656Y-78692712D01*
X104342712Y-78568656D01*
X104434814Y-78419334D01*
X104489999Y-78252797D01*
X104500500Y-78150009D01*
X104500499Y-76849992D01*
X104498151Y-76827011D01*
X104489999Y-76747203D01*
X104489998Y-76747200D01*
X104474412Y-76700165D01*
X104434814Y-76580666D01*
X104342712Y-76431344D01*
X104218656Y-76307288D01*
X104069334Y-76215186D01*
X104069332Y-76215185D01*
X104063440Y-76211551D01*
X104016716Y-76159603D01*
X104005493Y-76090641D01*
X104033337Y-76026558D01*
X104040856Y-76018330D01*
X104179728Y-75879458D01*
X104304620Y-75707557D01*
X104401095Y-75518217D01*
X104466757Y-75316129D01*
X104466757Y-75316126D01*
X104477231Y-75250000D01*
X103433012Y-75250000D01*
X103465925Y-75192993D01*
X103500000Y-75065826D01*
X103500000Y-74934174D01*
X103465925Y-74807007D01*
X103433012Y-74750000D01*
X104477231Y-74750000D01*
X104466757Y-74683873D01*
X104466757Y-74683870D01*
X104401095Y-74481782D01*
X104304620Y-74292442D01*
X104179727Y-74120540D01*
X104179723Y-74120535D01*
X104029464Y-73970276D01*
X104029459Y-73970272D01*
X103857557Y-73845379D01*
X103668217Y-73748904D01*
X103466129Y-73683242D01*
X103256246Y-73650000D01*
X103250000Y-73650000D01*
X103250000Y-74566988D01*
X103192993Y-74534075D01*
X103065826Y-74500000D01*
X102934174Y-74500000D01*
X102807007Y-74534075D01*
X102750000Y-74566988D01*
X102750000Y-73650000D01*
X102743754Y-73650000D01*
X102533872Y-73683242D01*
X102533869Y-73683242D01*
X102331782Y-73748904D01*
X102142442Y-73845379D01*
X101970540Y-73970272D01*
X101970535Y-73970276D01*
X101820276Y-74120535D01*
X101820272Y-74120540D01*
X101695379Y-74292442D01*
X101598904Y-74481782D01*
X101533242Y-74683870D01*
X101533242Y-74683873D01*
X101522769Y-74750000D01*
X102566988Y-74750000D01*
X102534075Y-74807007D01*
X102500000Y-74934174D01*
X102500000Y-75065826D01*
X102534075Y-75192993D01*
X102566988Y-75250000D01*
X101522769Y-75250000D01*
X101533242Y-75316126D01*
X101533242Y-75316129D01*
X101598904Y-75518217D01*
X101695379Y-75707557D01*
X101820272Y-75879459D01*
X101820276Y-75879464D01*
X101959143Y-76018331D01*
X101992628Y-76079654D01*
X101987644Y-76149346D01*
X101945772Y-76205279D01*
X101936559Y-76211551D01*
X101781342Y-76307289D01*
X101657289Y-76431342D01*
X101565187Y-76580663D01*
X101565186Y-76580666D01*
X101510001Y-76747203D01*
X101510001Y-76747204D01*
X101510000Y-76747204D01*
X101499500Y-76849983D01*
X97500500Y-76849983D01*
X97500500Y-62393713D01*
X101499500Y-62393713D01*
X101499500Y-62606286D01*
X101532753Y-62816239D01*
X101598444Y-63018414D01*
X101694951Y-63207820D01*
X101819890Y-63379786D01*
X101958705Y-63518601D01*
X101992190Y-63579924D01*
X101987206Y-63649616D01*
X101945334Y-63705549D01*
X101936121Y-63711821D01*
X101781342Y-63807289D01*
X101657289Y-63931342D01*
X101565187Y-64080663D01*
X101565186Y-64080666D01*
X101510001Y-64247203D01*
X101510001Y-64247204D01*
X101510000Y-64247204D01*
X101499500Y-64349983D01*
X101499500Y-65650001D01*
X101499501Y-65650018D01*
X101510000Y-65752796D01*
X101510001Y-65752799D01*
X101565185Y-65919331D01*
X101565186Y-65919334D01*
X101657288Y-66068656D01*
X101781344Y-66192712D01*
X101930666Y-66284814D01*
X102097203Y-66339999D01*
X102199991Y-66350500D01*
X103800008Y-66350499D01*
X103902797Y-66339999D01*
X104069334Y-66284814D01*
X104218656Y-66192712D01*
X104342712Y-66068656D01*
X104434814Y-65919334D01*
X104489999Y-65752797D01*
X104500500Y-65650009D01*
X104500499Y-64349992D01*
X104489999Y-64247203D01*
X104434814Y-64080666D01*
X104342712Y-63931344D01*
X104218656Y-63807288D01*
X104069334Y-63715186D01*
X104069333Y-63715185D01*
X104063878Y-63711821D01*
X104048324Y-63694528D01*
X104029708Y-63680592D01*
X104025399Y-63669040D01*
X104017154Y-63659873D01*
X104013418Y-63636918D01*
X104005291Y-63615128D01*
X104007911Y-63603080D01*
X104005931Y-63590910D01*
X104015199Y-63569578D01*
X104020143Y-63546855D01*
X104031893Y-63531158D01*
X104033775Y-63526828D01*
X104041283Y-63518612D01*
X104180104Y-63379792D01*
X104305051Y-63207816D01*
X104401557Y-63018412D01*
X104467246Y-62816243D01*
X104500500Y-62606287D01*
X104500500Y-62393713D01*
X104467246Y-62183757D01*
X104401557Y-61981588D01*
X104305051Y-61792184D01*
X104305049Y-61792181D01*
X104305048Y-61792179D01*
X104180109Y-61620213D01*
X104029786Y-61469890D01*
X103857820Y-61344951D01*
X103668414Y-61248444D01*
X103668413Y-61248443D01*
X103668412Y-61248443D01*
X103466243Y-61182754D01*
X103466241Y-61182753D01*
X103466240Y-61182753D01*
X103304957Y-61157208D01*
X103256287Y-61149500D01*
X102743713Y-61149500D01*
X102695042Y-61157208D01*
X102533760Y-61182753D01*
X102331585Y-61248444D01*
X102142179Y-61344951D01*
X101970213Y-61469890D01*
X101819890Y-61620213D01*
X101694951Y-61792179D01*
X101598444Y-61981585D01*
X101532753Y-62183760D01*
X101499500Y-62393713D01*
X97500500Y-62393713D01*
X97500500Y-58124500D01*
X97520185Y-58057461D01*
X97572989Y-58011706D01*
X97624500Y-58000500D01*
X161876000Y-58000500D01*
X161943039Y-58020185D01*
G37*
%TD.AperFunction*%
%TA.AperFunction,Conductor*%
G36*
X149256691Y-74982185D02*
G01*
X149302446Y-75034989D01*
X149312390Y-75104147D01*
X149283365Y-75167703D01*
X149262537Y-75186818D01*
X149261283Y-75187729D01*
X149261282Y-75187730D01*
X149875906Y-75802352D01*
X149788429Y-75825792D01*
X149687070Y-75884311D01*
X149604311Y-75967070D01*
X149545792Y-76068429D01*
X149522352Y-76155905D01*
X148907730Y-75541282D01*
X148907729Y-75541283D01*
X148880641Y-75578566D01*
X148800764Y-75735332D01*
X148752790Y-75786127D01*
X148684969Y-75802922D01*
X148618834Y-75780384D01*
X148579796Y-75735332D01*
X148499787Y-75578306D01*
X148382981Y-75417536D01*
X148242464Y-75277019D01*
X148242460Y-75277016D01*
X148118313Y-75186818D01*
X148075647Y-75131488D01*
X148069668Y-75061875D01*
X148102274Y-75000080D01*
X148163112Y-74965723D01*
X148191198Y-74962500D01*
X149189652Y-74962500D01*
X149256691Y-74982185D01*
G37*
%TD.AperFunction*%
%TA.AperFunction,Conductor*%
G36*
X151795841Y-74982185D02*
G01*
X151841596Y-75034989D01*
X151851540Y-75104147D01*
X151822515Y-75167703D01*
X151801687Y-75186818D01*
X151677539Y-75277016D01*
X151677533Y-75277021D01*
X151537021Y-75417533D01*
X151420213Y-75578305D01*
X151340204Y-75735331D01*
X151292229Y-75786127D01*
X151224408Y-75802922D01*
X151158273Y-75780384D01*
X151119234Y-75735331D01*
X151039358Y-75578567D01*
X151012268Y-75541283D01*
X150397647Y-76155905D01*
X150374208Y-76068429D01*
X150315689Y-75967070D01*
X150232930Y-75884311D01*
X150131571Y-75825792D01*
X150044094Y-75802352D01*
X150658716Y-75187731D01*
X150658715Y-75187730D01*
X150657459Y-75186817D01*
X150614794Y-75131486D01*
X150608816Y-75061873D01*
X150641423Y-75000078D01*
X150702262Y-74965722D01*
X150730346Y-74962500D01*
X151728802Y-74962500D01*
X151795841Y-74982185D01*
G37*
%TD.AperFunction*%
%TA.AperFunction,Conductor*%
G36*
X139059049Y-74971381D02*
G01*
X139089777Y-74978527D01*
X139092330Y-74981154D01*
X139095841Y-74982185D01*
X139116480Y-75006004D01*
X139138472Y-75028633D01*
X139139199Y-75032223D01*
X139141596Y-75034989D01*
X139146083Y-75066198D01*
X139152347Y-75097111D01*
X139151018Y-75100522D01*
X139151540Y-75104147D01*
X139138437Y-75132837D01*
X139126998Y-75162220D01*
X139123439Y-75165677D01*
X139122515Y-75167703D01*
X139101687Y-75186818D01*
X138977539Y-75277016D01*
X138977533Y-75277021D01*
X138837021Y-75417533D01*
X138720213Y-75578305D01*
X138640485Y-75734780D01*
X138592510Y-75785576D01*
X138524689Y-75802371D01*
X138458554Y-75779833D01*
X138419515Y-75734780D01*
X138376062Y-75649500D01*
X138339787Y-75578306D01*
X138222981Y-75417536D01*
X138082464Y-75277019D01*
X138082460Y-75277016D01*
X137958313Y-75186818D01*
X137915647Y-75131488D01*
X137909668Y-75061875D01*
X137942274Y-75000080D01*
X138003112Y-74965723D01*
X138031198Y-74962500D01*
X139028802Y-74962500D01*
X139059049Y-74971381D01*
G37*
%TD.AperFunction*%
%TD*%
M02*
